<svg width="260" height="300" viewBox="0 0 260 300" fill="none" xmlns="http://www.w3.org/2000/svg">
<path d="M254.06 24H33.49V244.57H254.06V24Z" fill="#F0E9DD" stroke="#292626" stroke-width="2" stroke-linecap="round" stroke-linejoin="round"/>
<path d="M239.16 38.8896H18.5898V259.46H239.16V38.8896Z" fill="#F0E9DD" stroke="#292626" stroke-width="2" stroke-linecap="round" stroke-linejoin="round"/>
<path d="M222.57 55.4897H2V276.06H222.57V55.4897Z" fill="#F0E9DD" stroke="#292626" stroke-width="2" stroke-linecap="round" stroke-linejoin="round"/>
<path d="M119.348 127.47V130.062H85.652V228.27H71.54V130.062H37.7V127.47H119.348Z" fill="black"/>
<path d="M132.363 201.342V158.574H122.283V156.27H132.363V138.702H146.043V156.27H168.075V158.574H146.043V206.67C146.043 221.214 149.643 228.27 156.987 228.27C165.051 228.27 171.963 220.206 175.275 206.382L177.435 206.958C173.547 222.798 166.347 230.574 155.691 230.574C139.851 230.574 132.363 220.926 132.363 201.342Z" fill="black"/>
</svg>
