<svg width="240" height="99" viewBox="0 0 240 99" fill="none" xmlns="http://www.w3.org/2000/svg">
<g clip-path="url(#clip0_516_10494)">
<path d="M135.401 16.2593V29.27H144V33.6015H135.401V46.6122H144V50.9491H131.107V11.9224H144V16.2593H135.401Z" fill="#686E4A"/>
<path d="M165.492 55.2808V68.2915H161.193V63.9546H152.599V68.2915H148.3V55.2808H152.599V59.6177H161.193V55.2808H165.492Z" fill="#686E4A"/>
<path d="M182.685 72.6284V76.9599H178.391V89.9707H174.091V76.9599H169.792V72.6284H182.685Z" fill="#686E4A"/>
<path d="M126.807 11.9224V16.2593H109.614V55.2807H105.315V16.2593H88.1219V11.9224H126.807Z" fill="#686E4A"/>
<path d="M135.401 68.2915V59.6177C137.772 59.6177 139.7 61.5572 139.7 63.9546C139.7 66.3466 137.778 68.2915 135.401 68.2915ZM135.401 55.2808H131.101V89.9706H135.401V72.6284C140.149 72.6284 144 68.744 144 63.9546C144 59.1651 140.149 55.2808 135.401 55.2808Z" fill="#686E4A"/>
<path d="M174.091 50.9491V16.2593C183.588 16.2593 191.284 24.0226 191.284 33.6015C191.284 43.1804 183.588 50.9491 174.091 50.9491ZM174.091 11.9224H169.792V68.2914H174.091V55.286C185.959 55.286 195.584 45.5778 195.584 33.6069C195.584 21.6306 185.959 11.9224 174.091 11.9224Z" fill="#686E4A"/>
<path d="M208.477 85.6337C198.981 85.6337 191.284 77.8704 191.284 68.2915C191.284 58.7125 198.981 50.9492 208.477 50.9492C217.973 50.9492 225.67 58.7125 225.67 68.2915C225.67 77.8704 217.973 85.6337 208.477 85.6337ZM208.477 46.6123C196.609 46.6123 186.985 56.3205 186.985 68.2915C186.985 80.2624 196.609 89.9706 208.477 89.9706C220.345 89.9706 229.97 80.2624 229.97 68.2915C229.97 56.3151 220.35 46.6123 208.477 46.6123Z" fill="#686E4A"/>
<path d="M45.1372 85.6336C36.0521 85.6336 27.907 81.5715 22.3897 75.155L30.7164 58.3569C34.5299 61.8372 39.5879 63.9599 45.1319 63.9599C56.9997 63.9599 66.6243 54.2516 66.6243 42.2807C66.6243 40.185 66.3305 38.1539 65.775 36.236L75.218 55.2914C75.2234 72.0464 61.7532 85.6336 45.1372 85.6336ZM19.81 71.6801C16.7923 66.9499 15.0458 61.32 15.0458 55.2807C15.0458 39.2583 27.3515 26.1399 42.9474 25.0085L30.1609 50.8037C28.7509 48.2877 27.9391 45.3731 27.9391 42.2753H23.6395V59.6176H25.7866L19.81 71.6801ZM47.2202 25.057C55.7339 26.0968 62.3301 33.4076 62.3301 42.2753C62.3301 51.8542 54.6336 59.6176 45.1372 59.6176C40.2608 59.6176 35.8652 57.5703 32.7353 54.284L47.2202 25.057ZM53.731 11.9224L62.3247 29.2646C59.1842 25.0516 54.5588 22.0292 49.2338 20.9895L53.731 11.9224ZM55.8834 7.58545H51.5839L45.1372 20.5962C26.1445 20.5962 10.7516 36.1282 10.7516 55.286C10.7516 63.0979 13.3099 70.3009 17.6308 76.0978L10.7462 89.9705H15.0458L20.3334 79.3087C26.5878 85.8814 35.3898 89.9705 45.1372 89.9705C61.6891 89.9705 75.5064 78.1774 78.7858 62.4675L92.4162 89.9705H96.7157L55.8834 7.58545Z" fill="#686E4A"/>
<path d="M159.046 31.4358L165.492 50.9491H161.193L156.899 37.9384L152.599 50.9491H148.3L154.746 31.4358L148.3 11.9224H152.599L156.899 24.9331L161.193 11.9224H165.492L159.046 31.4358Z" fill="#686E4A"/>
<path d="M156.899 85.6337C154.527 85.6337 152.599 83.6943 152.599 81.2968C152.599 78.9048 154.522 76.9599 156.899 76.9599C159.27 76.9599 161.198 78.8994 161.198 81.2968C161.193 83.6943 159.27 85.6337 156.899 85.6337ZM156.899 72.6284C152.15 72.6284 148.3 76.5128 148.3 81.3022C148.3 86.0917 152.15 89.976 156.899 89.976C161.647 89.976 165.498 86.0917 165.498 81.3022C165.492 76.5074 161.642 72.6284 156.899 72.6284Z" fill="#686E4A"/>
<path d="M208.477 24.9331C206.106 24.9331 204.178 22.9936 204.178 20.5962C204.178 18.2041 206.1 16.2593 208.477 16.2593C210.849 16.2593 212.777 18.1988 212.777 20.5962C212.777 22.9882 210.854 24.9331 208.477 24.9331ZM208.477 11.9224C203.729 11.9224 199.878 15.8067 199.878 20.5962C199.878 25.3856 203.729 29.27 208.477 29.27C213.225 29.27 217.076 25.3856 217.076 20.5962C217.076 15.8067 213.225 11.9224 208.477 11.9224Z" fill="#686E4A"/>
<path d="M126.807 55.2808L109.614 89.9706H105.315L88.1219 55.2808H92.4161L107.462 85.6337L122.508 55.2808H126.807Z" fill="#686E4A"/>
<path d="M3.58384 95.3904H236.421V3.61499H3.58384V95.3904ZM240 99H0V0H240V99Z" fill="#686E4A"/>
</g>
<defs>
<clipPath id="clip0_516_10494">
<rect width="240" height="99" fill="white"/>
</clipPath>
</defs>
</svg>
