<svg width="130" height="165" viewBox="0 0 130 165" fill="none" xmlns="http://www.w3.org/2000/svg">
<path d="M69.1636 121.397H71.9394C71.9394 109.147 61.9974 99.2158 49.733 99.2158V101.988C60.4646 101.988 69.1636 110.678 69.1636 121.397Z" fill="#686E4A"/>
<path d="M58.0605 129.714H55.2847V156.747H58.0605V129.714Z" fill="#686E4A"/>
<path d="M60.8363 126.942H52.5089V129.714H60.8363V126.942Z" fill="#686E4A"/>
<path d="M60.8363 154.668H52.5089V157.441H60.8363V154.668Z" fill="#686E4A"/>
<path d="M13.6477 129.714H10.8719V158.827H13.6477V129.714Z" fill="#686E4A"/>
<path d="M91.37 107.533H88.5942V157.441H91.37V107.533Z" fill="#686E4A"/>
<path d="M77.4911 107.533H74.7153V157.441H77.4911V107.533Z" fill="#686E4A"/>
<path d="M49.7331 126.942H10.8719V129.714H49.7331V126.942Z" fill="#686E4A"/>
<path d="M49.7331 140.805H10.8719V143.577H49.7331V140.805Z" fill="#686E4A"/>
<path d="M66.3879 126.942H63.6121V157.441H66.3879V126.942Z" fill="#686E4A"/>
<path d="M71.9395 154.668H65.6939V157.441H71.9395V154.668Z" fill="#686E4A"/>
<path d="M53.2028 49.3076C60.8679 49.3076 67.0818 55.5145 67.0818 63.1708C67.0818 70.8272 60.8679 77.0341 53.2028 77.0341V74.2614C59.335 74.2614 64.306 69.2961 64.306 63.1708C64.306 57.0456 59.335 52.0803 53.2028 52.0803C47.0706 52.0803 42.0996 57.0456 42.0996 63.1708H39.3238C39.3238 55.5145 45.5377 49.3076 53.2028 49.3076Z" fill="#686E4A"/>
<path d="M61.5303 82.5789V85.3516C73.7947 85.3516 83.7367 75.4209 83.7367 63.1704C83.7367 50.92 73.7947 40.9893 61.5303 40.9893V43.7619C72.2618 43.7619 80.9609 52.4511 80.9609 63.1704C80.9609 73.8898 72.2618 82.5789 61.5303 82.5789Z" fill="#686E4A"/>
<path d="M61.5302 85.3523V82.5797C50.7986 82.5797 42.0996 73.8905 42.0996 63.1711H39.3238C39.3238 75.4216 49.2658 85.3523 61.5302 85.3523Z" fill="#686E4A"/>
<path d="M61.5302 16.0364C69.1953 16.0364 75.4093 22.2433 75.4093 29.8996C75.4093 37.556 69.1953 43.7628 61.5302 43.7628V40.9902C67.6625 40.9902 72.6335 36.0248 72.6335 29.8996C72.6335 23.7744 67.6625 18.809 61.5302 18.809C55.398 18.809 50.427 23.7744 50.427 29.8996H47.6512C47.6512 22.2433 53.8652 16.0364 61.5302 16.0364Z" fill="#686E4A"/>
<path d="M53.2029 74.2606V77.0332H67.0819V74.2606H53.2029Z" fill="#686E4A"/>
<path d="M58.7544 27.127H55.9786V68.7166H58.7544V27.127Z" fill="#686E4A"/>
<path fill-rule="evenodd" clip-rule="evenodd" d="M62.2242 0L91.1388 23.1054V39.6261L130 61.8073V164.141H0V61.8594L33.3096 39.6782V23.1054L62.2242 0ZM35.6228 24.2159V40.9148L2.31317 63.096V161.831H127.687V63.1481L88.8256 40.9669V24.2159L62.2242 2.95893L35.6228 24.2159Z" fill="#686E4A"/>
<path d="M96.9217 63.1711H94.1459V101.988H96.9217V63.1711Z" fill="#686E4A"/>
<path d="M119.128 63.1711H94.8398V65.9438H119.128V63.1711Z" fill="#686E4A"/>
<path d="M119.128 96.4424H94.1459V99.215H119.128V96.4424Z" fill="#686E4A"/>
<path d="M119.128 101.988H94.1459V104.761H119.128V101.988Z" fill="#686E4A"/>
<path d="M96.9217 120.703H94.1459V157.44H96.9217V120.703Z" fill="#686E4A"/>
<path d="M110.801 134.566C110.801 142.222 104.587 148.429 96.9217 148.429V145.657C103.054 145.657 108.025 140.691 108.025 134.566C108.025 128.441 103.054 123.476 96.9217 123.476V120.703C104.587 120.703 110.801 126.91 110.801 134.566Z" fill="#686E4A"/>
<path d="M33.0784 90.8965H30.3026V121.396H33.0784V90.8965Z" fill="#686E4A"/>
<path d="M94.1459 115.851L119.128 107.533V110.306L94.1459 118.624V115.851Z" fill="#686E4A"/>
<path d="M119.128 115.851L94.1459 107.533V110.306L119.128 118.624V115.851Z" fill="#686E4A"/>
<path d="M13.6477 63.1711L27.5267 121.397H24.7509L10.8719 63.1711H13.6477Z" fill="#686E4A"/>
<path d="M13.6477 121.397L27.5267 63.1711H24.7509L10.8719 121.397H13.6477Z" fill="#686E4A"/>
<path d="M113.576 146.35V149.122C115.109 149.122 116.352 150.364 116.352 151.895C116.352 153.426 115.109 154.668 113.576 154.668V157.44C116.642 157.44 119.128 154.957 119.128 151.895C119.128 148.833 116.642 146.35 113.576 146.35Z" fill="#686E4A"/>
<path d="M85.8184 90.8965V93.6691C87.3513 93.6691 88.5942 94.9107 88.5942 96.4418C88.5942 97.9729 87.3513 99.2144 85.8184 99.2144V101.987C88.8841 101.987 91.37 99.504 91.37 96.4418C91.37 93.3795 88.8841 90.8965 85.8184 90.8965Z" fill="#686E4A"/>
<path d="M108.025 151.895C108.025 154.957 110.511 157.44 113.577 157.44V154.668C112.044 154.668 110.801 153.426 110.801 151.895C110.801 150.364 112.044 149.122 113.577 149.122V146.35C110.511 146.35 108.025 148.833 108.025 151.895Z" fill="#686E4A"/>
<path d="M74.7153 107.533H77.4911L84.4306 157.441H81.6548L74.7153 107.533Z" fill="#686E4A"/>
<path d="M91.3701 107.533H88.5943L81.6548 157.441H84.4306L91.3701 107.533Z" fill="#686E4A"/>
<path d="M85.8185 90.8965H33.0782V93.6691H85.8185V90.8965Z" fill="#686E4A"/>
<path d="M85.8185 99.2158H33.0782V101.988H85.8185V99.2158Z" fill="#686E4A"/>
</svg>
