<svg width="320" height="210" viewBox="0 0 320 210" fill="none" xmlns="http://www.w3.org/2000/svg">
<path d="M68.72 124.576H115.82L92.27 58.5337L68.72 124.576ZM145.93 205.646L129.33 160.163H55.2L38.6 205.646H0L74.89 0H109.63L184.52 205.646H145.92H145.93Z" fill="#626841"/>
<path d="M223.87 143.169C223.87 160.573 237.77 174.812 254.75 174.812C271.73 174.812 285.25 160.573 285.25 143.169C285.25 125.764 271.35 111.925 254.75 111.925C238.15 111.925 223.87 126.164 223.87 143.169ZM250.9 210C218.47 210 189.13 180.344 189.13 143.169C189.13 105.994 218.47 76.7268 250.9 76.7268C265.18 76.7268 276.38 81.4697 285.26 89.378V81.0702H320V205.646H285.26V197.339C276.38 204.858 265.19 209.99 250.9 209.99V210Z" fill="#626841"/>
</svg>
