<svg width="130" height="186" viewBox="0 0 130 186" fill="none" xmlns="http://www.w3.org/2000/svg">
<path d="M62.2242 29.1672V26.3914C49.9598 26.3914 40.0178 36.3334 40.0178 48.5978C40.0178 60.8622 49.9598 70.8042 62.2242 70.8042V68.0284C51.4927 68.0284 42.7936 59.3293 42.7936 48.5978C42.7936 37.8662 51.4927 29.1672 62.2242 29.1672Z" fill="#686E4A"/>
<path d="M48.3452 40.2709H51.121C51.121 29.5393 59.8201 20.8403 70.5516 20.8403V18.0645C58.2872 18.0645 48.3452 28.0064 48.3452 40.2709Z" fill="#686E4A"/>
<path d="M84.4306 48.5979H81.6548C81.6548 59.3295 72.9557 68.0285 62.2242 68.0285V70.8043C74.4886 70.8043 84.4306 60.8623 84.4306 48.5979Z" fill="#686E4A"/>
<path d="M76.1032 40.2704C76.1032 47.9354 69.8893 54.1494 62.2242 54.1494C54.5592 54.1494 48.3452 47.9354 48.3452 40.2704H51.121C51.121 46.4026 56.092 51.3736 62.2242 51.3736C68.3564 51.3736 73.3274 46.4026 73.3274 40.2704C73.3274 34.1382 68.3564 29.1672 62.2242 29.1672V26.3914C69.8893 26.3914 76.1032 32.6053 76.1032 40.2704Z" fill="#686E4A"/>
<path d="M70.5513 20.8395L70.5513 18.0637L56.6723 18.0637L56.6723 20.8395L70.5513 20.8395Z" fill="#686E4A"/>
<path d="M123.013 167.957C121.728 174.292 116.127 179.06 109.413 179.06C101.748 179.06 95.5338 172.846 95.5338 165.181H98.3096C98.3096 171.314 103.281 176.285 109.413 176.285C114.587 176.285 118.933 172.746 120.166 167.957H123.013Z" fill="#686E4A"/>
<path d="M123.292 165.182H120.516C120.516 164.223 120.394 163.293 120.166 162.406C118.933 157.617 114.587 154.079 109.413 154.079C104.239 154.079 99.8926 157.617 98.6597 162.406C98.4314 163.293 98.3096 164.223 98.3096 165.182H95.5338C95.5338 164.231 95.6294 163.303 95.8122 162.406C97.0975 156.071 102.698 151.303 109.413 151.303C116.127 151.303 121.728 156.071 123.013 162.406C123.196 163.303 123.292 164.231 123.292 165.182Z" fill="#686E4A"/>
<path d="M81.6548 165.182C81.6548 157.517 87.8687 151.303 95.5338 151.303V154.079C89.4016 154.079 84.4306 159.05 84.4306 165.182C84.4306 171.314 89.4016 176.285 95.5338 176.285V179.061C87.8687 179.061 81.6548 172.847 81.6548 165.182Z" fill="#686E4A"/>
<path d="M20.5872 179.06C12.9221 179.06 6.70819 172.846 6.70819 165.181H9.48399C9.48399 171.314 14.455 176.285 20.5872 176.285C26.7194 176.285 31.6904 171.314 31.6904 165.181H34.4662C34.4662 172.846 28.2523 179.06 20.5872 179.06Z" fill="#686E4A"/>
<path d="M40.0178 151.303H37.242V179.061H40.0178V151.303Z" fill="#686E4A"/>
<path d="M65 73.5801H62.2242V145.751H65V73.5801Z" fill="#686E4A"/>
<path d="M95.5338 73.5801H92.758V145.751H95.5338V73.5801Z" fill="#686E4A"/>
<path d="M34.4662 51.374H31.6904V165.182H34.4662V51.374Z" fill="#686E4A"/>
<path d="M48.3452 151.303H45.5694V179.061H48.3452V151.303Z" fill="#686E4A"/>
<path d="M56.6726 75.6619H53.8968V145.751H56.6726V75.6619Z" fill="#686E4A"/>
<path d="M108.025 53.4551H105.249V145.75H108.025V53.4551Z" fill="#686E4A"/>
<path d="M78.879 151.302H76.1032V179.06H78.879V151.302Z" fill="#686E4A"/>
<path d="M70.5516 151.303H40.0178V154.079H70.5516V151.303Z" fill="#686E4A"/>
<path d="M81.6548 151.302H73.3274V154.077H81.6548V151.302Z" fill="#686E4A"/>
<path d="M81.6548 176.284H73.3274V179.06H81.6548V176.284Z" fill="#686E4A"/>
<path d="M31.6904 51.374H6.70819V54.1498H31.6904V51.374Z" fill="#686E4A"/>
<path d="M59.4484 73.5791H51.121V76.3549H59.4484V73.5791Z" fill="#686E4A"/>
<path d="M123.292 51.374H89.9822V54.1498H123.292V51.374Z" fill="#686E4A"/>
<path d="M59.4484 142.975H51.121V145.75H59.4484V142.975Z" fill="#686E4A"/>
<path d="M70.5516 162.405H40.0178V165.181H70.5516V162.405Z" fill="#686E4A"/>
<path d="M123.292 165.181H95.5338C95.5338 164.23 95.6294 163.302 95.8122 162.405H123.013C123.196 163.302 123.292 164.23 123.292 165.181Z" fill="#686E4A"/>
<path fill-rule="evenodd" clip-rule="evenodd" d="M62.1955 0L130 45.203V185.769H0V45.2331L62.1955 0ZM62.2529 2.81841L2.31317 46.411V183.455H127.687V46.441L62.2529 2.81841Z" fill="#686E4A"/>
<path d="M43.4875 73.5801V76.3559C45.0204 76.3559 46.2633 77.5988 46.2633 79.1317C46.2633 80.6645 45.0204 81.9075 43.4875 81.9075V84.6833C46.5533 84.6833 49.0392 82.1974 49.0392 79.1317C49.0392 76.066 46.5533 73.5801 43.4875 73.5801Z" fill="#686E4A"/>
<path d="M37.9359 79.1317C37.9359 82.1974 40.4218 84.6833 43.4875 84.6833V81.9075C41.9547 81.9075 40.7117 80.6645 40.7117 79.1317C40.7117 77.5988 41.9547 76.3559 43.4875 76.3559V73.5801C40.4218 73.5801 37.9359 76.066 37.9359 79.1317Z" fill="#686E4A"/>
<path d="M17.8114 104.114H15.0356V165.182H17.8114V104.114Z" fill="#686E4A"/>
<path d="M26.1388 104.114H23.363V165.182H26.1388V104.114Z" fill="#686E4A"/>
<path d="M15.0356 104.114H17.8114C17.8114 102.581 19.0543 101.338 20.5872 101.338C22.12 101.338 23.363 102.581 23.363 104.114H26.1388C26.1388 101.048 23.6529 98.5625 20.5872 98.5625C17.5215 98.5625 15.0356 101.048 15.0356 104.114Z" fill="#686E4A"/>
<path d="M20.5872 170.733C23.6529 170.733 26.1388 168.247 26.1388 165.181H23.363C23.363 166.714 22.12 167.957 20.5872 167.957C19.0543 167.957 17.8114 166.714 17.8114 165.181H15.0356C15.0356 168.247 17.5215 170.733 20.5872 170.733Z" fill="#686E4A"/>
<path d="M62.9182 73.5801H65.694L95.5338 145.751H92.758L62.9182 73.5801Z" fill="#686E4A"/>
<path d="M16.2193 25.0488H15.5772V25.2626H16.2193V25.0488Z" fill="#686E4A"/>
<path d="M17.0754 25.0488H16.5939V25.2626H17.0754V25.0488Z" fill="#686E4A"/>
<path d="M20.2859 24.4082V24.622C20.4041 24.622 20.4999 24.7177 20.4999 24.8358C20.4999 24.9538 20.4041 25.0496 20.2859 25.0496V25.2633C20.5223 25.2633 20.7139 25.0719 20.7139 24.8358C20.7139 24.5997 20.5223 24.4082 20.2859 24.4082Z" fill="#686E4A"/>
</svg>
