<svg width="310" height="225" viewBox="0 0 310 225" fill="none" xmlns="http://www.w3.org/2000/svg">
<g clip-path="url(#clip0_7002_15587)">
<mask id="mask0_7002_15587" style="mask-type:luminance" maskUnits="userSpaceOnUse" x="0" y="0" width="310" height="225">
<path d="M310 0H0V225H310V0Z" fill="white"/>
</mask>
<g mask="url(#mask0_7002_15587)">
<path d="M229.99 10L220 220H230L231.36 190H238.63L239.99 220H249.99L240 10H229.98H229.99ZM231.82 180L235 110L238.18 180H231.82Z" fill="#626841"/>
<path d="M260 10V220H269.99V140H280V130H269.99V20H280V10H260Z" fill="#626841"/>
<path d="M295 25H290V220H310V210H300V140H310V130H299.99V35H310V25H295Z" fill="#626841"/>
<path d="M310 0H300C300 5.51 295.51 10 290 10V20C301.03 20 310 11.03 310 0Z" fill="#626841"/>
<path d="M160 140H179.42C178.49 147.95 176.45 155.68 173.32 163.08C169.04 173.2 162.91 182.29 155.1 190.1C147.29 197.91 138.2 204.04 128.08 208.32C117.6 212.75 106.47 215 95 215C83.53 215 72.39 212.75 61.92 208.32C51.8 204.04 42.71 197.91 34.9 190.1C27.09 182.29 20.96 173.2 16.68 163.08C12.25 152.6 10 141.47 10 130C10 118.53 12.25 107.39 16.68 96.92C20.96 86.8 27.09 77.71 34.9 69.9C36.2 68.6 37.53 67.35 38.9 66.15C36.31 74.11 35 82.1 35 90.01C35 108 41.2 124.53 52.46 136.55C63.61 148.45 78.72 155.01 95 155.01C111.28 155.01 126.09 148.77 137.43 137.44C143.57 131.3 148.21 124.07 151.18 116.19C159.06 113.22 166.3 108.58 172.43 102.44C183.76 91.11 190 76.04 190 60.01C190 43.98 183.45 28.62 171.54 17.47C159.52 6.2 142.99 0 125 0C113.38 0 101.81 2.66 90.62 7.89C80.27 12.73 70.39 19.82 62.05 28.38C56.3 34.28 51.25 40.91 47.15 47.91C40.13 52.01 33.66 57 27.83 62.82C19.11 71.54 12.26 81.7 7.47 93.02C2.51 104.74 0 117.18 0 130C0 142.82 2.51 155.26 7.47 166.98C12.25 178.29 19.1 188.45 27.83 197.18C36.55 205.9 46.71 212.75 58.03 217.54C69.75 222.5 82.19 225.01 95.01 225.01C107.83 225.01 120.27 222.5 131.99 217.54C143.3 212.76 153.46 205.91 162.19 197.18C169.48 189.89 175.46 181.6 180.01 172.48V220.01H190.01V130.01H160.01V140.01L160 140ZM69.21 35.36C76.72 27.65 85.59 21.28 94.86 16.95C104.72 12.34 114.87 10 125.01 10C140.46 10 154.56 15.24 164.72 24.76C174.58 34 180.01 46.51 180.01 60C180.01 73.49 174.81 85.91 165.37 95.36C162.06 98.67 158.37 101.46 154.39 103.68C154.8 100.83 155.01 97.93 155.01 95C155.01 78.97 148.77 63.91 137.44 52.57C126.11 41.24 111.04 35 95.01 35C84.77 35 74.77 36.6 65.19 39.78C66.48 38.27 67.83 36.79 69.22 35.37L69.21 35.36ZM51.51 61.19C52.4 59.2 53.39 57.22 54.46 55.27C56.88 53.96 59.36 52.76 61.91 51.68C72.39 47.25 83.52 45 94.99 45C108.35 45 120.9 50.2 130.35 59.64C139.79 69.08 144.99 81.64 144.99 95C144.99 99.54 144.39 103.98 143.23 108.24C138.97 109.4 134.53 110 129.99 110C116.63 110 104.08 104.8 94.63 95.36C85.19 85.92 79.99 73.36 79.99 60H69.99V110H79.99V93.2C82.18 96.48 84.71 99.57 87.56 102.43C98.89 113.76 113.96 120 129.99 120C132.92 120 135.82 119.79 138.67 119.38C136.44 123.35 133.66 127.05 130.35 130.36C120.91 139.8 108.35 145 94.99 145C81.63 145 68.99 139.57 59.75 129.71C50.23 119.55 44.99 105.45 44.99 90C44.99 80.51 47.18 70.82 51.5 61.19H51.51Z" fill="#626841"/>
</g>
</g>
<defs>
<clipPath id="clip0_7002_15587">
<rect width="310" height="225" fill="white"/>
</clipPath>
</defs>
</svg>
