<svg width="320" height="210" viewBox="0 0 320 210" fill="none" xmlns="http://www.w3.org/2000/svg">
<path d="M38.52 131.76H114.4L76.46 29.7058L38.52 131.76ZM104.26 11.1728L176.66 205.29H141.91L117.87 141.169H35.04L11 205.29H0L70.95 14.9956L69.5 11.1728L63.71 5.29078L100.2 0L104.25 11.1728H104.26Z" fill="#626841"/>
<path d="M221.4 139.701C221.4 173.525 234.43 196.462 259.63 196.462C268.03 196.462 277.88 194.107 285.69 189.693V96.7529C285.69 88.516 274.4 81.4617 261.36 81.4617C239.64 81.4617 221.39 99.4034 221.39 139.701H221.4ZM319 207.054L285.69 201.172C274.4 207.054 263.1 210 251.52 210C213 210 187.81 182.058 187.81 140.883C187.81 128.233 191 116.764 197.37 106.183C209.82 85.0092 232.7 71.4816 257.32 71.4816C265.72 71.4816 276.72 73.8364 285.7 78.2505L319.01 73.5408V207.074L319 207.054Z" fill="#626841"/>
</svg>
