<svg width="1101" height="851" viewBox="0 0 1101 851" fill="none" xmlns="http://www.w3.org/2000/svg">
<g clip-path="url(#clip0_7002_15401)">
<path d="M0.0600586 0.0595703H1100.06" stroke="#626841" stroke-width="0.12" stroke-miterlimit="10"/>
<path d="M0.0600586 12.5596H1100.06" stroke="#626841" stroke-width="0.12" stroke-miterlimit="10"/>
<path d="M0.0600586 25.0596H1100.06" stroke="#626841" stroke-width="0.12" stroke-miterlimit="10"/>
<path d="M0.0600586 37.5596H1100.06" stroke="#626841" stroke-width="0.12" stroke-miterlimit="10"/>
<path d="M0.0600586 50.0596H1100.06" stroke="#626841" stroke-width="0.12" stroke-miterlimit="10"/>
<path d="M0.0600586 62.5596H1100.06" stroke="#626841" stroke-width="0.12" stroke-miterlimit="10"/>
<path d="M0.0600586 75.0596H1100.06" stroke="#626841" stroke-width="0.12" stroke-miterlimit="10"/>
<path d="M0.0600586 87.5596H1100.06" stroke="#626841" stroke-width="0.12" stroke-miterlimit="10"/>
<path d="M0.0600586 100.06H1100.06" stroke="#626841" stroke-width="0.12" stroke-miterlimit="10"/>
<path d="M0.0600586 112.56H1100.06" stroke="#626841" stroke-width="0.12" stroke-miterlimit="10"/>
<path d="M0.0600586 125.06H1100.06" stroke="#626841" stroke-width="0.12" stroke-miterlimit="10"/>
<path d="M0.0600586 137.56H1100.06" stroke="#626841" stroke-width="0.12" stroke-miterlimit="10"/>
<path d="M0.0600586 150.06H1100.06" stroke="#626841" stroke-width="0.12" stroke-miterlimit="10"/>
<path d="M0.0600586 162.56H1100.06" stroke="#626841" stroke-width="0.12" stroke-miterlimit="10"/>
<path d="M0.0600586 175.06H1100.06" stroke="#626841" stroke-width="0.12" stroke-miterlimit="10"/>
<path d="M0.0600586 187.56H1100.06" stroke="#626841" stroke-width="0.12" stroke-miterlimit="10"/>
<path d="M0.0600586 200.06H1100.06" stroke="#626841" stroke-width="0.12" stroke-miterlimit="10"/>
<path d="M0.0600586 212.56H1100.06" stroke="#626841" stroke-width="0.12" stroke-miterlimit="10"/>
<path d="M0.0600586 225.06H1100.06" stroke="#626841" stroke-width="0.12" stroke-miterlimit="10"/>
<path d="M0.0600586 237.56H1100.06" stroke="#626841" stroke-width="0.12" stroke-miterlimit="10"/>
<path d="M0.0600586 250.06H1100.06" stroke="#626841" stroke-width="0.12" stroke-miterlimit="10"/>
<path d="M0.0600586 262.56H1100.06" stroke="#626841" stroke-width="0.12" stroke-miterlimit="10"/>
<path d="M0.0600586 275.06H1100.06" stroke="#626841" stroke-width="0.12" stroke-miterlimit="10"/>
<path d="M0.0600586 287.56H1100.06" stroke="#626841" stroke-width="0.12" stroke-miterlimit="10"/>
<path d="M0.0600586 300.06H1100.06" stroke="#626841" stroke-width="0.12" stroke-miterlimit="10"/>
<path d="M0.0600586 312.56H1100.06" stroke="#626841" stroke-width="0.12" stroke-miterlimit="10"/>
<path d="M0.0600586 325.06H1100.06" stroke="#626841" stroke-width="0.12" stroke-miterlimit="10"/>
<path d="M0.0600586 337.56H1100.06" stroke="#626841" stroke-width="0.12" stroke-miterlimit="10"/>
<path d="M0.0600586 350.06H1100.06" stroke="#626841" stroke-width="0.12" stroke-miterlimit="10"/>
<path d="M0.0600586 362.56H1100.06" stroke="#626841" stroke-width="0.12" stroke-miterlimit="10"/>
<path d="M0.0600586 375.06H1100.06" stroke="#626841" stroke-width="0.12" stroke-miterlimit="10"/>
<path d="M0.0600586 387.56H1100.06" stroke="#626841" stroke-width="0.12" stroke-miterlimit="10"/>
<path d="M0.0600586 400.06H1100.06" stroke="#626841" stroke-width="0.12" stroke-miterlimit="10"/>
<path d="M0.0600586 412.56H1100.06" stroke="#626841" stroke-width="0.12" stroke-miterlimit="10"/>
<path d="M0.0600586 425.06H1100.06" stroke="#626841" stroke-width="0.12" stroke-miterlimit="10"/>
<path d="M0.0600586 437.56H1100.06" stroke="#626841" stroke-width="0.12" stroke-miterlimit="10"/>
<path d="M0.0600586 450.06H1100.06" stroke="#626841" stroke-width="0.12" stroke-miterlimit="10"/>
<path d="M0.0600586 462.56H1100.06" stroke="#626841" stroke-width="0.12" stroke-miterlimit="10"/>
<path d="M0.0600586 475.06H1100.06" stroke="#626841" stroke-width="0.12" stroke-miterlimit="10"/>
<path d="M0.0600586 487.56H1100.06" stroke="#626841" stroke-width="0.12" stroke-miterlimit="10"/>
<path d="M0.0600586 500.06H1100.06" stroke="#626841" stroke-width="0.12" stroke-miterlimit="10"/>
<path d="M0.0600586 512.56H1100.06" stroke="#626841" stroke-width="0.12" stroke-miterlimit="10"/>
<path d="M0.0600586 525.06H1100.06" stroke="#626841" stroke-width="0.12" stroke-miterlimit="10"/>
<path d="M0.0600586 537.56H1100.06" stroke="#626841" stroke-width="0.12" stroke-miterlimit="10"/>
<path d="M0.0600586 550.06H1100.06" stroke="#626841" stroke-width="0.12" stroke-miterlimit="10"/>
<path d="M0.0600586 562.56H1100.06" stroke="#626841" stroke-width="0.12" stroke-miterlimit="10"/>
<path d="M0.0600586 575.06H1100.06" stroke="#626841" stroke-width="0.12" stroke-miterlimit="10"/>
<path d="M0.0600586 587.56H1100.06" stroke="#626841" stroke-width="0.12" stroke-miterlimit="10"/>
<path d="M0.0600586 600.06H1100.06" stroke="#626841" stroke-width="0.12" stroke-miterlimit="10"/>
<path d="M0.0600586 612.56H1100.06" stroke="#626841" stroke-width="0.12" stroke-miterlimit="10"/>
<path d="M0.0600586 625.06H1100.06" stroke="#626841" stroke-width="0.12" stroke-miterlimit="10"/>
<path d="M0.0600586 637.56H1100.06" stroke="#626841" stroke-width="0.12" stroke-miterlimit="10"/>
<path d="M0.0600586 650.06H1100.06" stroke="#626841" stroke-width="0.12" stroke-miterlimit="10"/>
<path d="M0.0600586 662.56H1100.06" stroke="#626841" stroke-width="0.12" stroke-miterlimit="10"/>
<path d="M0.0600586 675.06H1100.06" stroke="#626841" stroke-width="0.12" stroke-miterlimit="10"/>
<path d="M0.0600586 687.56H1100.06" stroke="#626841" stroke-width="0.12" stroke-miterlimit="10"/>
<path d="M0.0600586 700.06H1100.06" stroke="#626841" stroke-width="0.12" stroke-miterlimit="10"/>
<path d="M0.0600586 712.56H1100.06" stroke="#626841" stroke-width="0.12" stroke-miterlimit="10"/>
<path d="M0.0600586 725.06H1100.06" stroke="#626841" stroke-width="0.12" stroke-miterlimit="10"/>
<path d="M0.0600586 737.56H1100.06" stroke="#626841" stroke-width="0.12" stroke-miterlimit="10"/>
<path d="M0.0600586 750.06H1100.06" stroke="#626841" stroke-width="0.12" stroke-miterlimit="10"/>
<path d="M0.0600586 762.56H1100.06" stroke="#626841" stroke-width="0.12" stroke-miterlimit="10"/>
<path d="M0.0600586 775.06H1100.06" stroke="#626841" stroke-width="0.12" stroke-miterlimit="10"/>
<path d="M0.0600586 787.56H1100.06" stroke="#626841" stroke-width="0.12" stroke-miterlimit="10"/>
<path d="M0.0600586 800.06H1100.06" stroke="#626841" stroke-width="0.12" stroke-miterlimit="10"/>
<path d="M0.0600586 812.56H1100.06" stroke="#626841" stroke-width="0.12" stroke-miterlimit="10"/>
<path d="M0.0600586 825.06H1100.06" stroke="#626841" stroke-width="0.12" stroke-miterlimit="10"/>
<path d="M0.0600586 837.56H1100.06" stroke="#626841" stroke-width="0.12" stroke-miterlimit="10"/>
<path d="M0.0600586 850.06H1100.06" stroke="#626841" stroke-width="0.12" stroke-miterlimit="10"/>
<path d="M0.0600586 0.0595703V850.06" stroke="#626841" stroke-width="0.12" stroke-miterlimit="10"/>
<path d="M12.5601 0.0595703V850.06" stroke="#626841" stroke-width="0.12" stroke-miterlimit="10"/>
<path d="M25.0601 0.0595703V850.06" stroke="#626841" stroke-width="0.12" stroke-miterlimit="10"/>
<path d="M37.5601 0.0595703V850.06" stroke="#626841" stroke-width="0.12" stroke-miterlimit="10"/>
<path d="M50.0601 0.0595703V850.06" stroke="#626841" stroke-width="0.12" stroke-miterlimit="10"/>
<path d="M62.5601 0.0595703V850.06" stroke="#626841" stroke-width="0.12" stroke-miterlimit="10"/>
<path d="M75.0601 0.0595703V850.06" stroke="#626841" stroke-width="0.12" stroke-miterlimit="10"/>
<path d="M87.5601 0.0595703V850.06" stroke="#626841" stroke-width="0.12" stroke-miterlimit="10"/>
<path d="M100.06 0.0595703V850.06" stroke="#626841" stroke-width="0.12" stroke-miterlimit="10"/>
<path d="M112.56 0.0595703V850.06" stroke="#626841" stroke-width="0.12" stroke-miterlimit="10"/>
<path d="M125.06 0.0595703V850.06" stroke="#626841" stroke-width="0.12" stroke-miterlimit="10"/>
<path d="M137.56 0.0595703V850.06" stroke="#626841" stroke-width="0.12" stroke-miterlimit="10"/>
<path d="M150.06 0.0595703V850.06" stroke="#626841" stroke-width="0.12" stroke-miterlimit="10"/>
<path d="M162.56 0.0595703V850.06" stroke="#626841" stroke-width="0.12" stroke-miterlimit="10"/>
<path d="M175.06 0.0595703V850.06" stroke="#626841" stroke-width="0.12" stroke-miterlimit="10"/>
<path d="M187.56 0.0595703V850.06" stroke="#626841" stroke-width="0.12" stroke-miterlimit="10"/>
<path d="M200.06 0.0595703V850.06" stroke="#626841" stroke-width="0.12" stroke-miterlimit="10"/>
<path d="M212.56 0.0595703V850.06" stroke="#626841" stroke-width="0.12" stroke-miterlimit="10"/>
<path d="M225.06 0.0595703V850.06" stroke="#626841" stroke-width="0.12" stroke-miterlimit="10"/>
<path d="M237.56 0.0595703V850.06" stroke="#626841" stroke-width="0.12" stroke-miterlimit="10"/>
<path d="M250.06 0.0595703V850.06" stroke="#626841" stroke-width="0.12" stroke-miterlimit="10"/>
<path d="M262.56 0.0595703V850.06" stroke="#626841" stroke-width="0.12" stroke-miterlimit="10"/>
<path d="M275.06 0.0595703V850.06" stroke="#626841" stroke-width="0.12" stroke-miterlimit="10"/>
<path d="M287.56 0.0595703V850.06" stroke="#626841" stroke-width="0.12" stroke-miterlimit="10"/>
<path d="M300.06 0.0595703V850.06" stroke="#626841" stroke-width="0.12" stroke-miterlimit="10"/>
<path d="M312.56 0.0595703V850.06" stroke="#626841" stroke-width="0.12" stroke-miterlimit="10"/>
<path d="M325.06 0.0595703V850.06" stroke="#626841" stroke-width="0.12" stroke-miterlimit="10"/>
<path d="M337.56 0.0595703V850.06" stroke="#626841" stroke-width="0.12" stroke-miterlimit="10"/>
<path d="M350.06 0.0595703V850.06" stroke="#626841" stroke-width="0.12" stroke-miterlimit="10"/>
<path d="M362.56 0.0595703V850.06" stroke="#626841" stroke-width="0.12" stroke-miterlimit="10"/>
<path d="M375.06 0.0595703V850.06" stroke="#626841" stroke-width="0.12" stroke-miterlimit="10"/>
<path d="M387.56 0.0595703V850.06" stroke="#626841" stroke-width="0.12" stroke-miterlimit="10"/>
<path d="M400.06 0.0595703V850.06" stroke="#626841" stroke-width="0.12" stroke-miterlimit="10"/>
<path d="M412.56 0.0595703V850.06" stroke="#626841" stroke-width="0.12" stroke-miterlimit="10"/>
<path d="M425.06 0.0595703V850.06" stroke="#626841" stroke-width="0.12" stroke-miterlimit="10"/>
<path d="M437.56 0.0595703V850.06" stroke="#626841" stroke-width="0.12" stroke-miterlimit="10"/>
<path d="M450.06 0.0595703V850.06" stroke="#626841" stroke-width="0.12" stroke-miterlimit="10"/>
<path d="M462.56 0.0595703V850.06" stroke="#626841" stroke-width="0.12" stroke-miterlimit="10"/>
<path d="M475.06 0.0595703V850.06" stroke="#626841" stroke-width="0.12" stroke-miterlimit="10"/>
<path d="M487.56 0.0595703V850.06" stroke="#626841" stroke-width="0.12" stroke-miterlimit="10"/>
<path d="M500.06 0.0595703V850.06" stroke="#626841" stroke-width="0.12" stroke-miterlimit="10"/>
<path d="M512.56 0.0595703V850.06" stroke="#626841" stroke-width="0.12" stroke-miterlimit="10"/>
<path d="M525.06 0.0595703V850.06" stroke="#626841" stroke-width="0.12" stroke-miterlimit="10"/>
<path d="M537.56 0.0595703V850.06" stroke="#626841" stroke-width="0.12" stroke-miterlimit="10"/>
<path d="M550.06 0.0595703V850.06" stroke="#626841" stroke-width="0.12" stroke-miterlimit="10"/>
<path d="M562.56 0.0595703V850.06" stroke="#626841" stroke-width="0.12" stroke-miterlimit="10"/>
<path d="M575.06 0.0595703V850.06" stroke="#626841" stroke-width="0.12" stroke-miterlimit="10"/>
<path d="M587.56 0.0595703V850.06" stroke="#626841" stroke-width="0.12" stroke-miterlimit="10"/>
<path d="M600.06 0.0595703V850.06" stroke="#626841" stroke-width="0.12" stroke-miterlimit="10"/>
<path d="M612.56 0.0595703V850.06" stroke="#626841" stroke-width="0.12" stroke-miterlimit="10"/>
<path d="M625.06 0.0595703V850.06" stroke="#626841" stroke-width="0.12" stroke-miterlimit="10"/>
<path d="M637.56 0.0595703V850.06" stroke="#626841" stroke-width="0.12" stroke-miterlimit="10"/>
<path d="M650.06 0.0595703V850.06" stroke="#626841" stroke-width="0.12" stroke-miterlimit="10"/>
<path d="M662.56 0.0595703V850.06" stroke="#626841" stroke-width="0.12" stroke-miterlimit="10"/>
<path d="M675.06 0.0595703V850.06" stroke="#626841" stroke-width="0.12" stroke-miterlimit="10"/>
<path d="M687.56 0.0595703V850.06" stroke="#626841" stroke-width="0.12" stroke-miterlimit="10"/>
<path d="M700.06 0.0595703V850.06" stroke="#626841" stroke-width="0.12" stroke-miterlimit="10"/>
<path d="M712.56 0.0595703V850.06" stroke="#626841" stroke-width="0.12" stroke-miterlimit="10"/>
<path d="M725.06 0.0595703V850.06" stroke="#626841" stroke-width="0.12" stroke-miterlimit="10"/>
<path d="M737.56 0.0595703V850.06" stroke="#626841" stroke-width="0.12" stroke-miterlimit="10"/>
<path d="M750.06 0.0595703V850.06" stroke="#626841" stroke-width="0.12" stroke-miterlimit="10"/>
<path d="M762.56 0.0595703V850.06" stroke="#626841" stroke-width="0.12" stroke-miterlimit="10"/>
<path d="M775.06 0.0595703V850.06" stroke="#626841" stroke-width="0.12" stroke-miterlimit="10"/>
<path d="M787.56 0.0595703V850.06" stroke="#626841" stroke-width="0.12" stroke-miterlimit="10"/>
<path d="M800.06 0.0595703V850.06" stroke="#626841" stroke-width="0.12" stroke-miterlimit="10"/>
<path d="M812.56 0.0595703V850.06" stroke="#626841" stroke-width="0.12" stroke-miterlimit="10"/>
<path d="M825.06 0.0595703V850.06" stroke="#626841" stroke-width="0.12" stroke-miterlimit="10"/>
<path d="M837.56 0.0595703V850.06" stroke="#626841" stroke-width="0.12" stroke-miterlimit="10"/>
<path d="M850.06 0.0595703V850.06" stroke="#626841" stroke-width="0.12" stroke-miterlimit="10"/>
<path d="M862.56 0.0595703V850.06" stroke="#626841" stroke-width="0.12" stroke-miterlimit="10"/>
<path d="M875.06 0.0595703V850.06" stroke="#626841" stroke-width="0.12" stroke-miterlimit="10"/>
<path d="M887.56 0.0595703V850.06" stroke="#626841" stroke-width="0.12" stroke-miterlimit="10"/>
<path d="M900.06 0.0595703V850.06" stroke="#626841" stroke-width="0.12" stroke-miterlimit="10"/>
<path d="M912.56 0.0595703V850.06" stroke="#626841" stroke-width="0.12" stroke-miterlimit="10"/>
<path d="M925.06 0.0595703V850.06" stroke="#626841" stroke-width="0.12" stroke-miterlimit="10"/>
<path d="M937.56 0.0595703V850.06" stroke="#626841" stroke-width="0.12" stroke-miterlimit="10"/>
<path d="M950.06 0.0595703V850.06" stroke="#626841" stroke-width="0.12" stroke-miterlimit="10"/>
<path d="M962.56 0.0595703V850.06" stroke="#626841" stroke-width="0.12" stroke-miterlimit="10"/>
<path d="M975.06 0.0595703V850.06" stroke="#626841" stroke-width="0.12" stroke-miterlimit="10"/>
<path d="M987.56 0.0595703V850.06" stroke="#626841" stroke-width="0.12" stroke-miterlimit="10"/>
<path d="M1000.06 0.0595703V850.06" stroke="#626841" stroke-width="0.12" stroke-miterlimit="10"/>
<path d="M1012.56 0.0595703V850.06" stroke="#626841" stroke-width="0.12" stroke-miterlimit="10"/>
<path d="M1025.06 0.0595703V850.06" stroke="#626841" stroke-width="0.12" stroke-miterlimit="10"/>
<path d="M1037.56 0.0595703V850.06" stroke="#626841" stroke-width="0.12" stroke-miterlimit="10"/>
<path d="M1050.06 0.0595703V850.06" stroke="#626841" stroke-width="0.12" stroke-miterlimit="10"/>
<path d="M1062.56 0.0595703V850.06" stroke="#626841" stroke-width="0.12" stroke-miterlimit="10"/>
<path d="M1075.06 0.0595703V850.06" stroke="#626841" stroke-width="0.12" stroke-miterlimit="10"/>
<path d="M1087.56 0.0595703V850.06" stroke="#626841" stroke-width="0.12" stroke-miterlimit="10"/>
<path d="M1100.06 0.0595703V850.06" stroke="#626841" stroke-width="0.12" stroke-miterlimit="10"/>
<path d="M387.56 700.06C511.83 700.06 612.56 599.33 612.56 475.06C612.56 350.79 511.83 250.06 387.56 250.06C263.29 250.06 162.56 350.8 162.56 475.06C162.56 599.32 263.3 700.06 387.56 700.06Z" stroke="#626841" stroke-width="2.5" stroke-linecap="round" stroke-linejoin="round" stroke-dasharray="0.03 12.5"/>
<path d="M475.06 612.56C599.33 612.56 700.06 511.83 700.06 387.56C700.06 263.29 599.33 162.56 475.06 162.56C350.79 162.56 250.06 263.3 250.06 387.56C250.06 511.82 350.8 612.56 475.06 612.56Z" stroke="#626841" stroke-width="2.5" stroke-linecap="round" stroke-linejoin="round" stroke-dasharray="0.03 12.5"/>
<path d="M2.06006 150.06H1098.56" stroke="#626841" stroke-width="2.5" stroke-linecap="round" stroke-linejoin="round" stroke-dasharray="0.03 12.5"/>
<path d="M2.06006 175.06H1098.56" stroke="#626841" stroke-width="2.5" stroke-linecap="round" stroke-linejoin="round" stroke-dasharray="0.03 12.5"/>
<path d="M2.06006 475.06H1098.56" stroke="#626841" stroke-width="2.5" stroke-linecap="round" stroke-linejoin="round" stroke-dasharray="0.03 12.5"/>
<path d="M2.06006 500.06H1098.56" stroke="#626841" stroke-width="2.5" stroke-linecap="round" stroke-linejoin="round" stroke-dasharray="0.03 12.5"/>
<path d="M2.06006 700.06H1098.56" stroke="#626841" stroke-width="2.5" stroke-linecap="round" stroke-linejoin="round" stroke-dasharray="0.03 12.5"/>
<path d="M2.06006 675.06H1098.56" stroke="#626841" stroke-width="2.5" stroke-linecap="round" stroke-linejoin="round" stroke-dasharray="0.03 12.5"/>
<path d="M325.06 1.55957V847.56" stroke="#626841" stroke-width="2.5" stroke-linecap="round" stroke-linejoin="round" stroke-dasharray="0.03 12.5"/>
<path d="M350.06 1.55957V847.56" stroke="#626841" stroke-width="2.5" stroke-linecap="round" stroke-linejoin="round" stroke-dasharray="0.03 12.5"/>
<path d="M600.06 1.55957V847.56" stroke="#626841" stroke-width="2.5" stroke-linecap="round" stroke-linejoin="round" stroke-dasharray="0.03 12.5"/>
<path d="M625.06 1.55957V847.56" stroke="#626841" stroke-width="2.5" stroke-linecap="round" stroke-linejoin="round" stroke-dasharray="0.03 12.5"/>
<path d="M700.06 1.55957V847.56" stroke="#626841" stroke-width="2.5" stroke-linecap="round" stroke-linejoin="round" stroke-dasharray="0.03 12.5"/>
<path d="M725.06 1.55957V847.56" stroke="#626841" stroke-width="2.5" stroke-linecap="round" stroke-linejoin="round" stroke-dasharray="0.03 12.5"/>
<path d="M825.06 1.55957V847.56" stroke="#626841" stroke-width="2.5" stroke-linecap="round" stroke-linejoin="round" stroke-dasharray="0.03 12.5"/>
<path d="M800.06 1.55957V847.56" stroke="#626841" stroke-width="2.5" stroke-linecap="round" stroke-linejoin="round" stroke-dasharray="0.03 12.5"/>
<path d="M875.06 1.55957V847.56" stroke="#626841" stroke-width="2.5" stroke-linecap="round" stroke-linejoin="round" stroke-dasharray="0.03 12.5"/>
<path d="M900.06 1.55957V847.56" stroke="#626841" stroke-width="2.5" stroke-linecap="round" stroke-linejoin="round" stroke-dasharray="0.03 12.5"/>
<path opacity="0.25" d="M150.06 0.0595703H0.0600586V850.06H150.06V0.0595703Z" fill="#626841"/>
<path opacity="0.25" d="M1100.06 0.0595703H950.06V850.06H1100.06V0.0595703Z" fill="#626841"/>
<path opacity="0.25" d="M700.06 0.0595703H1100.06V150.06H0.0600586V0.0595703H700.06Z" fill="#626841"/>
<path opacity="0.25" d="M700.06 700.06H1100.06V850.06H0.0600586V700.06H700.06Z" fill="#626841"/>
<path d="M800.04 175.06L775.06 700.06H800.06L803.47 625.06H821.65L825.06 700.06H850.06L825.08 175.06H800.04ZM804.61 600.06L812.57 425.06L820.53 600.06H804.62H804.61Z" fill="#626841"/>
<path d="M725.03 175.06H700.06V700.06H750.06V675.06H725.06L725.03 175.06Z" fill="#626841"/>
<path d="M550.06 500.06H598.61C596.29 519.94 591.2 539.26 583.37 557.77C572.67 583.07 557.35 605.8 537.83 625.32C518.31 644.84 495.59 660.16 470.28 670.86C444.09 681.94 416.27 687.56 387.57 687.56C358.87 687.56 331.05 681.95 304.86 670.86C279.55 660.16 256.83 644.84 237.31 625.32C217.79 605.8 202.46 583.08 191.77 557.77C180.69 531.58 175.07 503.75 175.07 475.06C175.07 446.37 180.69 418.54 191.77 392.35C202.47 367.04 217.79 344.32 237.31 324.8C240.55 321.56 243.89 318.42 247.31 315.42C240.83 335.32 237.57 355.3 237.57 375.06C237.57 420.04 253.07 461.37 281.22 491.42C309.1 521.18 346.86 537.56 387.57 537.56C428.28 537.56 465.3 521.96 493.64 493.63C508.98 478.29 520.59 460.21 528.01 440.5C547.72 433.08 565.8 421.47 581.14 406.13C609.47 377.8 625.07 340.13 625.07 300.06C625.07 259.99 608.68 221.58 578.93 193.71C548.88 165.56 507.55 150.06 462.57 150.06C433.52 150.06 404.61 156.7 376.61 169.79C350.74 181.89 326.04 199.61 305.18 221.03C290.82 235.78 278.19 252.35 267.92 269.85C250.36 280.09 234.19 292.57 219.63 307.13C197.83 328.94 180.7 354.34 168.74 382.62C156.35 411.91 150.07 443.02 150.07 475.07C150.07 507.12 156.35 538.23 168.74 567.52C180.7 595.8 197.83 621.2 219.63 643.01C241.44 664.81 266.84 681.94 295.12 693.9C324.41 706.29 355.52 712.57 387.57 712.57C419.62 712.57 450.73 706.29 480.02 693.9C508.3 681.94 533.7 664.81 555.51 643.01C573.73 624.79 588.67 604.06 600.07 581.25V700.07H625.07V475.07H550.07V500.07L550.06 500.06ZM323.08 238.47C341.86 219.19 364.03 203.27 387.19 192.43C411.84 180.9 437.2 175.05 462.56 175.05C501.17 175.05 536.43 188.15 561.83 211.95C586.48 235.05 600.06 266.33 600.06 300.05C600.06 333.77 587.06 364.83 563.45 388.44C555.17 396.71 545.94 403.68 536.01 409.25C537.04 402.13 537.56 394.88 537.56 387.55C537.56 347.48 521.96 309.82 493.63 281.48C465.3 253.15 427.63 237.55 387.56 237.55C361.95 237.55 336.96 241.56 313.01 249.49C316.24 245.71 319.6 242.03 323.08 238.46V238.47ZM278.85 303.03C281.08 298.04 283.55 293.1 286.22 288.23C292.26 284.95 298.48 281.96 304.86 279.26C331.05 268.18 358.87 262.56 387.57 262.56C420.96 262.56 452.35 275.56 475.96 299.17C499.57 322.78 512.57 354.17 512.57 387.56C512.57 398.9 511.07 410.01 508.17 420.66C497.52 423.56 486.41 425.06 475.07 425.06C441.68 425.06 410.29 412.06 386.68 388.45C363.07 364.84 350.07 333.45 350.07 300.06H325.07V425.06H350.07V383.05C355.55 391.26 361.87 398.98 369 406.12C397.33 434.45 435 450.05 475.07 450.05C482.4 450.05 489.65 449.53 496.77 448.5C491.2 458.43 484.23 467.66 475.96 475.94C452.35 499.55 420.96 512.55 387.57 512.55C354.18 512.55 322.56 498.97 299.46 474.32C275.67 448.92 262.57 413.67 262.57 375.05C262.57 351.34 268.05 327.1 278.86 303.02L278.85 303.03Z" fill="#626841"/>
<path d="M925.02 287.56C940.22 276.15 950.06 257.98 950.06 237.56C950.06 203.1 922.02 175.06 887.56 175.06H875.06V700.06H887.56C922.02 700.06 950.06 672.02 950.06 637.56V337.56C950.06 317.14 940.22 298.97 925.02 287.56ZM925.06 237.56C925.06 253.85 914.61 267.75 900.06 272.91V202.21C914.61 207.37 925.06 221.27 925.06 237.56ZM925.06 637.56C925.06 653.85 914.61 667.75 900.06 672.91V302.21C914.61 307.37 925.06 321.26 925.06 337.56V637.56Z" fill="#626841"/>
</g>
<defs>
<clipPath id="clip0_7002_15401">
<rect width="1100.12" height="850.12" fill="white"/>
</clipPath>
</defs>
</svg>
