<svg width="1163" height="603" viewBox="0 0 1163 603" fill="none" xmlns="http://www.w3.org/2000/svg">
<path d="M1161.5 1.5H1.5V601.5H1161.5V1.5Z" fill="#F5F5ED"/>
<path opacity="0.25" d="M1161.5 521.5H1.5V601.5H1161.5V521.5Z" fill="#79803C"/>
<path opacity="0.25" d="M81.5 1.5H1.5V601.5H81.5V1.5Z" fill="#79803C"/>
<path opacity="0.25" d="M1161.5 1.5H1081.5V601.5H1161.5V1.5Z" fill="#79803C"/>
<path opacity="0.25" d="M1161.5 1.5H1.5V81.5H1161.5V1.5Z" fill="#79803C"/>
<path opacity="0.3" d="M1081.5 41.5H1041.5V81.5H1081.5V41.5Z" fill="#79803C"/>
<path opacity="0.3" d="M1121.5 41.5H1081.5V81.5H1121.5V41.5Z" fill="#79803C"/>
<path opacity="0.3" d="M41.5 561.5H1.5V601.5H41.5V561.5Z" fill="#79803C"/>
<path opacity="0.3" d="M1121.5 521.5H1081.5V561.5H1121.5V521.5Z" fill="#79803C"/>
<path opacity="0.3" d="M41.5 1.5H1.5V41.5H41.5V1.5Z" fill="#79803C"/>
<path opacity="0.3" d="M1161.5 1.5H1121.5V41.5H1161.5V1.5Z" fill="#79803C"/>
<path opacity="0.3" d="M81.5 521.5H41.5V561.5H81.5V521.5Z" fill="#79803C"/>
<path opacity="0.3" d="M1161.5 561.5H1121.5V601.5H1161.5V561.5Z" fill="#79803C"/>
<path opacity="0.3" d="M81.5 41.5H41.5V81.5H81.5V41.5Z" fill="#79803C"/>
<path d="M2 601.5V1.5H1V601.5H2ZM1161.5 601H1.5V602H1161.5V601ZM1161 1.5V601.5H1162V1.5H1161ZM1.5 2H1161.5V1H1.5V2ZM1.5 601.5H1V602H1.5V601.5ZM1161.5 601.5V602H1162V601.5H1161.5ZM1161.5 1.5H1162V1H1161.5V1.5ZM1.5 1.5V1H1V1.5H1.5Z" fill="#79803C"/>
<path d="M3 601.5V1.5H0V601.5H3ZM1161.5 600H1.5V603H1161.5V600ZM1160 1.5V601.5H1163V1.5H1160ZM1.5 3H1161.5V0H1.5V3ZM1.5 601.5H0V603H1.5V601.5ZM1161.5 601.5V603H1163V601.5H1161.5ZM1161.5 1.5H1163V0H1161.5V1.5ZM1.5 1.5V0H0V1.5H1.5Z" fill="#79803C"/>
<path d="M821.5 371.5H841.5V481.5H821.5V371.5ZM781.5 521.5H881.5V331.5H781.5V521.5Z" fill="#626841"/>
<path d="M681.5 371.5H701.5V481.5H681.5V371.5ZM641.5 521.5H741.5V331.5H641.5V521.5Z" fill="#626841"/>
<path d="M441.5 481.5H421.5V371.5H441.5V481.5ZM561.5 311.5H521.5V331.5H501.5V371.5H521.5V481.5C521.5 503.56 503.56 521.5 481.5 521.5V331.5H381.5V521.5H481.5V561.5C525.61 561.5 561.5 525.61 561.5 481.5V371.5H581.5V521.5H621.5V331.5H561.5V311.5Z" fill="#626841"/>
<path d="M941.5 331.5H901.5V371.5H941.5V391.5H901.5V431.5H941.5V461.5H901.5V501.5H941.5V521.5H981.5V311.5H941.5V331.5Z" fill="#626841"/>
<path d="M1041.5 311.5H1001.5V521.5H1041.5V501.5H1081.5V461.5H1041.5V441.5H1081.5V401.5H1041.5V371.5H1081.5V331.5H1041.5V311.5Z" fill="#626841"/>
<path d="M1021.5 211.5C1021.5 227.24 1013.52 242.87 999.62 254.4C986.31 265.43 969.22 271.5 951.5 271.5C939.39 271.5 927.97 269.3 917.56 264.96C908.03 260.99 899.55 255.33 892.36 248.14C881.5 237.27 874.27 223.38 872.15 209.72L911.61 203.14C912.18 207.74 915.03 214.24 920.64 219.85C925.95 225.16 935.61 231.49 951.5 231.49C959.8 231.49 968.04 228.61 974.09 223.59C978.66 219.81 981.5 215.17 981.5 211.49C981.5 208.33 981.12 206.19 975.93 203.21C969.05 199.26 957.75 196.55 946.83 193.93C933.17 190.65 919.04 187.26 907.17 180.46C885.95 168.29 881.49 150.37 881.49 137.48C881.49 121.9 889.03 106.92 902.18 96.41C914.21 86.78 929.95 81.48 946.49 81.48C963.03 81.48 979.49 87.82 991.95 99.34C1004.37 110.83 1011.49 126.19 1011.49 141.48H971.49C971.49 137.43 968.92 132.53 964.79 128.71C961.87 126.01 955.61 121.48 946.49 121.48C931.76 121.48 921.49 129.91 921.49 137.48C921.49 140.64 921.87 142.78 927.06 145.76C933.94 149.71 945.24 152.42 956.16 155.04C969.82 158.32 983.95 161.71 995.82 168.51C1017.04 180.68 1021.5 198.6 1021.5 211.49V211.5Z" fill="#626841"/>
<path d="M372.03 81.4999H371.5L371.77 81.4399L372.03 81.4999Z" fill="#626841"/>
<path d="M477.3 81.5L432.06 271.5H391.06L371.64 179.23L351.95 271.5H310.94L265.7 81.5H306.82L330.43 180.66L351.58 81.5H391.94L412.7 180.12L436.18 81.5H477.3Z" fill="#626841"/>
<path d="M516.95 211.5L527.34 167.85L537.73 211.5H516.95ZM547.9 81.5H506.78L461.54 271.5H502.66L507.42 251.5H547.25L552.01 271.5H593.13L547.89 81.5H547.9Z" fill="#626841"/>
<path d="M871.5 81.5V121.5H831.5V271.5H791.5V121.5H751.5V81.5H871.5Z" fill="#626841"/>
<path d="M1081.5 81.5H1041.5V271.5H1081.5V81.5Z" fill="#626841"/>
<path d="M731.11 81.5V271.5H689.42L651.5 180.99V271.5H611.5V81.5H653.18L691.11 172.01V81.5H731.11Z" fill="#626841"/>
<path d="M261.5 161.5V271.5H221.5V253.99C205.54 265.37 186.49 271.5 166.5 271.5C141.12 271.5 117.27 261.62 99.32 243.68C81.38 225.74 71.5 201.88 71.5 176.5C71.5 151.12 81.38 127.27 99.32 109.32C117.26 91.38 141.12 81.5 166.5 81.5C191.88 81.5 215.73 91.38 233.68 109.32C241.72 117.36 248.14 126.59 252.78 136.6L213.17 147.4C203.44 131.85 186.17 121.49 166.51 121.49C136.18 121.49 111.51 146.16 111.51 176.49C111.51 206.82 136.18 231.49 166.51 231.49C187.84 231.49 206.37 219.29 215.49 201.49H161.51V161.49H261.51L261.5 161.5Z" fill="#626841"/>
<path d="M42 1.5H41V601.5H42V1.5Z" fill="#79803C"/>
<path d="M1122 1.5H1121V601.5H1122V1.5Z" fill="#79803C"/>
<path d="M1161.5 41H1.5V42H1161.5V41Z" fill="#79803C"/>
<path d="M1161.5 561H1.5V562H1161.5V561Z" fill="#79803C"/>
<path d="M82 1.5H81V601.5H82V1.5Z" fill="#79803C"/>
<path d="M1082 1.5H1081V601.5H1082V1.5Z" fill="#79803C"/>
<path d="M1161.5 521H1.5V522H1161.5V521Z" fill="#79803C"/>
<path d="M1161.5 81H1.5V82H1161.5V81Z" fill="#79803C"/>
<g opacity="0.5">
<path d="M371.66 81.9302L371.92 81.9902L372.13 81.0102L371.87 80.9502L371.66 81.9302ZM371.6 81.9902L371.87 81.9302L371.67 80.9502L371.4 81.0102L371.6 81.9902ZM372.03 81.0002H371.5V82.0002H372.03V81.0002ZM371.77 81.4402L371.87 80.9502L371.77 80.9302L371.67 80.9502L371.77 81.4402ZM371.5 81.5002L371.4 81.0102L366.67 82.0002H371.51V81.5002H371.5ZM372.03 81.5002V82.0002H376.8L372.14 81.0102L372.04 81.5002H372.03Z" fill="#79803C"/>
<path d="M371.66 81.9302L371.92 81.9902L372.13 81.0102L371.87 80.9502L371.66 81.9302ZM371.6 81.9902L371.87 81.9302L371.67 80.9502L371.4 81.0102L371.6 81.9902ZM372.03 81.0002H371.5V82.0002H372.03V81.0002ZM371.77 81.4402L371.87 80.9502L371.77 80.9302L371.67 80.9502L371.77 81.4402ZM371.5 81.5002L371.4 81.0102L366.67 82.0002H371.51V81.5002H371.5ZM372.03 81.5002V82.0002H376.8L372.14 81.0102L372.04 81.5002H372.03Z" fill="#79803C"/>
<path d="M91.75 81.5H91.25V521.5H91.75V81.5Z" fill="#79803C"/>
<path d="M101.75 81.5H101.25V521.5H101.75V81.5Z" fill="#79803C"/>
<path d="M111.75 81.5H111.25V521.5H111.75V81.5Z" fill="#79803C"/>
<path d="M131.75 81.5H131.25V521.5H131.75V81.5Z" fill="#79803C"/>
<path d="M141.75 81.5H141.25V521.5H141.75V81.5Z" fill="#79803C"/>
<path d="M151.75 81.5H151.25V521.5H151.75V81.5Z" fill="#79803C"/>
<path d="M171.75 81.5H171.25V521.5H171.75V81.5Z" fill="#79803C"/>
<path d="M181.75 81.5H181.25V521.5H181.75V81.5Z" fill="#79803C"/>
<path d="M191.75 81.5H191.25V521.5H191.75V81.5Z" fill="#79803C"/>
<path d="M211.75 81.5H211.25V521.5H211.75V81.5Z" fill="#79803C"/>
<path d="M221.75 81.5H221.25V521.5H221.75V81.5Z" fill="#79803C"/>
<path d="M231.75 81.5H231.25V521.5H231.75V81.5Z" fill="#79803C"/>
<path d="M251.75 81.5H251.25V521.5H251.75V81.5Z" fill="#79803C"/>
<path d="M261.75 81.5H261.25V521.5H261.75V81.5Z" fill="#79803C"/>
<path d="M271.75 81.5H271.25V521.5H271.75V81.5Z" fill="#79803C"/>
<path d="M291.75 81.5H291.25V521.5H291.75V81.5Z" fill="#79803C"/>
<path d="M301.75 81.5H301.25V521.5H301.75V81.5Z" fill="#79803C"/>
<path d="M311.75 81.5H311.25V521.5H311.75V81.5Z" fill="#79803C"/>
<path d="M331.75 81.5H331.25V521.5H331.75V81.5Z" fill="#79803C"/>
<path d="M341.75 81.5H341.25V521.5H341.75V81.5Z" fill="#79803C"/>
<path d="M351.75 81.5H351.25V521.5H351.75V81.5Z" fill="#79803C"/>
<path d="M371.75 81.5H371.25V521.5H371.75V81.5Z" fill="#79803C"/>
<path d="M381.75 81.5H381.25V521.5H381.75V81.5Z" fill="#79803C"/>
<path d="M391.75 81.5H391.25V521.5H391.75V81.5Z" fill="#79803C"/>
<path d="M411.75 81.5H411.25V521.5H411.75V81.5Z" fill="#79803C"/>
<path d="M421.75 81.5H421.25V521.5H421.75V81.5Z" fill="#79803C"/>
<path d="M431.75 81.5H431.25V521.5H431.75V81.5Z" fill="#79803C"/>
<path d="M451.75 81.5H451.25V521.5H451.75V81.5Z" fill="#79803C"/>
<path d="M461.75 81.5H461.25V521.5H461.75V81.5Z" fill="#79803C"/>
<path d="M471.75 81.5H471.25V521.5H471.75V81.5Z" fill="#79803C"/>
<path d="M491.75 81.5H491.25V521.5H491.75V81.5Z" fill="#79803C"/>
<path d="M501.75 81.5H501.25V521.5H501.75V81.5Z" fill="#79803C"/>
<path d="M511.75 81.5H511.25V521.5H511.75V81.5Z" fill="#79803C"/>
<path d="M531.75 81.5H531.25V521.5H531.75V81.5Z" fill="#79803C"/>
<path d="M541.75 81.5H541.25V521.5H541.75V81.5Z" fill="#79803C"/>
<path d="M551.75 81.5H551.25V521.5H551.75V81.5Z" fill="#79803C"/>
<path d="M571.75 81.5H571.25V521.5H571.75V81.5Z" fill="#79803C"/>
<path d="M581.75 81.5H581.25V521.5H581.75V81.5Z" fill="#79803C"/>
<path d="M591.75 81.5H591.25V521.5H591.75V81.5Z" fill="#79803C"/>
<path d="M611.75 81.5H611.25V521.5H611.75V81.5Z" fill="#79803C"/>
<path d="M621.75 81.5H621.25V521.5H621.75V81.5Z" fill="#79803C"/>
<path d="M631.75 81.5H631.25V521.5H631.75V81.5Z" fill="#79803C"/>
<path d="M651.75 81.5H651.25V521.5H651.75V81.5Z" fill="#79803C"/>
<path d="M661.75 81.5H661.25V521.5H661.75V81.5Z" fill="#79803C"/>
<path d="M671.75 81.5H671.25V521.5H671.75V81.5Z" fill="#79803C"/>
<path d="M691.75 81.5H691.25V521.5H691.75V81.5Z" fill="#79803C"/>
<path d="M701.75 81.5H701.25V521.5H701.75V81.5Z" fill="#79803C"/>
<path d="M711.75 81.5H711.25V521.5H711.75V81.5Z" fill="#79803C"/>
<path d="M731.75 81.5H731.25V521.5H731.75V81.5Z" fill="#79803C"/>
<path d="M741.75 81.5H741.25V521.5H741.75V81.5Z" fill="#79803C"/>
<path d="M751.75 81.5H751.25V521.5H751.75V81.5Z" fill="#79803C"/>
<path d="M771.75 81.5H771.25V521.5H771.75V81.5Z" fill="#79803C"/>
<path d="M781.75 81.5H781.25V521.5H781.75V81.5Z" fill="#79803C"/>
<path d="M791.75 81.5H791.25V521.5H791.75V81.5Z" fill="#79803C"/>
<path d="M811.75 81.5H811.25V521.5H811.75V81.5Z" fill="#79803C"/>
<path d="M821.75 81.5H821.25V521.5H821.75V81.5Z" fill="#79803C"/>
<path d="M831.75 81.5H831.25V521.5H831.75V81.5Z" fill="#79803C"/>
<path d="M851.75 81.5H851.25V521.5H851.75V81.5Z" fill="#79803C"/>
<path d="M861.75 81.5H861.25V521.5H861.75V81.5Z" fill="#79803C"/>
<path d="M871.75 81.5H871.25V521.5H871.75V81.5Z" fill="#79803C"/>
<path d="M891.75 81.5H891.25V521.5H891.75V81.5Z" fill="#79803C"/>
<path d="M901.75 81.5H901.25V521.5H901.75V81.5Z" fill="#79803C"/>
<path d="M911.75 81.5H911.25V521.5H911.75V81.5Z" fill="#79803C"/>
<path d="M931.75 81.5H931.25V521.5H931.75V81.5Z" fill="#79803C"/>
<path d="M941.75 81.5H941.25V521.5H941.75V81.5Z" fill="#79803C"/>
<path d="M951.75 81.5H951.25V521.5H951.75V81.5Z" fill="#79803C"/>
<path d="M971.75 81.5H971.25V521.5H971.75V81.5Z" fill="#79803C"/>
<path d="M981.75 81.5H981.25V521.5H981.75V81.5Z" fill="#79803C"/>
<path d="M991.75 81.5H991.25V521.5H991.75V81.5Z" fill="#79803C"/>
<path d="M1011.75 81.5H1011.25V521.5H1011.75V81.5Z" fill="#79803C"/>
<path d="M1021.75 81.5H1021.25V521.5H1021.75V81.5Z" fill="#79803C"/>
<path d="M1031.75 81.5H1031.25V521.5H1031.75V81.5Z" fill="#79803C"/>
<path d="M1051.75 81.5H1051.25V521.5H1051.75V81.5Z" fill="#79803C"/>
<path d="M1061.75 81.5H1061.25V521.5H1061.75V81.5Z" fill="#79803C"/>
<path d="M1071.75 81.5H1071.25V521.5H1071.75V81.5Z" fill="#79803C"/>
<path d="M1081.5 511.25H81.5V511.75H1081.5V511.25Z" fill="#79803C"/>
<path d="M1081.5 501.25H81.5V501.75H1081.5V501.25Z" fill="#79803C"/>
<path d="M1081.5 491.25H81.5V491.75H1081.5V491.25Z" fill="#79803C"/>
<path d="M1081.5 471.25H81.5V471.75H1081.5V471.25Z" fill="#79803C"/>
<path d="M1081.5 461.25H81.5V461.75H1081.5V461.25Z" fill="#79803C"/>
<path d="M1081.5 451.25H81.5V451.75H1081.5V451.25Z" fill="#79803C"/>
<path d="M1081.5 431.25H81.5V431.75H1081.5V431.25Z" fill="#79803C"/>
<path d="M1081.5 421.25H81.5V421.75H1081.5V421.25Z" fill="#79803C"/>
<path d="M1081.5 411.25H81.5V411.75H1081.5V411.25Z" fill="#79803C"/>
<path d="M1081.5 391.25H81.5V391.75H1081.5V391.25Z" fill="#79803C"/>
<path d="M1081.5 381.25H81.5V381.75H1081.5V381.25Z" fill="#79803C"/>
<path d="M1081.5 371.25H81.5V371.75H1081.5V371.25Z" fill="#79803C"/>
<path d="M1081.5 351.25H81.5V351.75H1081.5V351.25Z" fill="#79803C"/>
<path d="M1081.5 341.25H81.5V341.75H1081.5V341.25Z" fill="#79803C"/>
<path d="M1081.5 331.25H81.5V331.75H1081.5V331.25Z" fill="#79803C"/>
<path d="M1081.5 311.25H81.5V311.75H1081.5V311.25Z" fill="#79803C"/>
<path d="M1081.5 301.25H81.5V301.75H1081.5V301.25Z" fill="#79803C"/>
<path d="M1081.5 291.25H81.5V291.75H1081.5V291.25Z" fill="#79803C"/>
<path d="M1081.5 271.25H81.5V271.75H1081.5V271.25Z" fill="#79803C"/>
<path d="M1081.5 261.25H81.5V261.75H1081.5V261.25Z" fill="#79803C"/>
<path d="M1081.5 251.25H81.5V251.75H1081.5V251.25Z" fill="#79803C"/>
<path d="M1081.5 231.25H81.5V231.75H1081.5V231.25Z" fill="#79803C"/>
<path d="M1081.5 221.25H81.5V221.75H1081.5V221.25Z" fill="#79803C"/>
<path d="M1081.5 211.25H81.5V211.75H1081.5V211.25Z" fill="#79803C"/>
<path d="M1081.5 191.25H81.5V191.75H1081.5V191.25Z" fill="#79803C"/>
<path d="M1081.5 181.25H81.5V181.75H1081.5V181.25Z" fill="#79803C"/>
<path d="M1081.5 171.25H81.5V171.75H1081.5V171.25Z" fill="#79803C"/>
<path d="M1081.5 151.25H81.5V151.75H1081.5V151.25Z" fill="#79803C"/>
<path d="M1081.5 141.25H81.5V141.75H1081.5V141.25Z" fill="#79803C"/>
<path d="M1081.5 131.25H81.5V131.75H1081.5V131.25Z" fill="#79803C"/>
<path d="M1081.5 111.25H81.5V111.75H1081.5V111.25Z" fill="#79803C"/>
<path d="M1081.5 101.25H81.5V101.75H1081.5V101.25Z" fill="#79803C"/>
<path d="M1081.5 91.25H81.5V91.75H1081.5V91.25Z" fill="#79803C"/>
<path d="M122 1.5H121V601.5H122V1.5Z" fill="#79803C"/>
<path d="M162 1.5H161V601.5H162V1.5Z" fill="#79803C"/>
<path d="M202 1.5H201V601.5H202V1.5Z" fill="#79803C"/>
<path d="M242 1.5H241V601.5H242V1.5Z" fill="#79803C"/>
<path d="M282 1.5H281V601.5H282V1.5Z" fill="#79803C"/>
<path d="M322 1.5H321V601.5H322V1.5Z" fill="#79803C"/>
<path d="M362 1.5H361V601.5H362V1.5Z" fill="#79803C"/>
<path d="M402 1.5H401V601.5H402V1.5Z" fill="#79803C"/>
<path d="M442 1.5H441V601.5H442V1.5Z" fill="#79803C"/>
<path d="M482 1.5H481V601.5H482V1.5Z" fill="#79803C"/>
<path d="M522 1.5H521V601.5H522V1.5Z" fill="#79803C"/>
<path d="M562 1.5H561V601.5H562V1.5Z" fill="#79803C"/>
<path d="M602 1.5H601V601.5H602V1.5Z" fill="#79803C"/>
<path d="M642 1.5H641V601.5H642V1.5Z" fill="#79803C"/>
<path d="M682 1.5H681V601.5H682V1.5Z" fill="#79803C"/>
<path d="M722 1.5H721V601.5H722V1.5Z" fill="#79803C"/>
<path d="M762 1.5H761V601.5H762V1.5Z" fill="#79803C"/>
<path d="M802 1.5H801V601.5H802V1.5Z" fill="#79803C"/>
<path d="M842 1.5H841V601.5H842V1.5Z" fill="#79803C"/>
<path d="M882 1.5H881V601.5H882V1.5Z" fill="#79803C"/>
<path d="M922 1.5H921V601.5H922V1.5Z" fill="#79803C"/>
<path d="M962 1.5H961V601.5H962V1.5Z" fill="#79803C"/>
<path d="M1002 1.5H1001V601.5H1002V1.5Z" fill="#79803C"/>
<path d="M1042 1.5H1041V601.5H1042V1.5Z" fill="#79803C"/>
<path d="M1161.5 121H1.5V122H1161.5V121Z" fill="#79803C"/>
<path d="M1161.5 161H1.5V162H1161.5V161Z" fill="#79803C"/>
<path d="M1161.5 201H1.5V202H1161.5V201Z" fill="#79803C"/>
<path d="M1161.5 241H1.5V242H1161.5V241Z" fill="#79803C"/>
<path d="M1161.5 281H1.5V282H1161.5V281Z" fill="#79803C"/>
<path d="M1161.5 321H1.5V322H1161.5V321Z" fill="#79803C"/>
<path d="M1161.5 361H1.5V362H1161.5V361Z" fill="#79803C"/>
<path d="M1161.5 401H1.5V402H1161.5V401Z" fill="#79803C"/>
<path d="M1161.5 441H1.5V442H1161.5V441Z" fill="#79803C"/>
<path d="M1161.5 481H1.5V482H1161.5V481Z" fill="#79803C"/>
</g>
</svg>
