<svg width="505" height="240" viewBox="0 0 505 240" fill="none" xmlns="http://www.w3.org/2000/svg">
<g clip-path="url(#clip0_7002_16260)">
<path d="M375 144.99H385V199.98H375V144.99ZM355 219.98H405V124.99H355V219.98Z" fill="#626841"/>
<path d="M305 144.99H315V199.98H305V144.99ZM285 219.98H335V124.99H285V219.98Z" fill="#626841"/>
<path d="M185 199.97H175V144.98H185V199.97ZM245 114.99H225V124.99H215V144.99H225V199.98C225 211.01 216.03 219.98 205 219.98V124.99H155V219.98H205V239.98C227.06 239.98 245 222.04 245 199.99V145H255V219.99H275V125H245V115V114.99Z" fill="#626841"/>
<path d="M435 124.98H415V144.98H435V154.98H415V174.98H435V189.98H415V209.97H435V219.97H455V114.99H435V124.98Z" fill="#626841"/>
<path d="M485 114.99H465V219.97H485V209.97H505V189.98H485V179.98H505V159.98H485V144.98H505V124.98H485V114.99Z" fill="#626841"/>
<path d="M475 64.99C475 72.86 471.01 80.67 464.06 86.44C457.41 91.95 448.86 94.99 440 94.99C433.95 94.99 428.24 93.89 423.03 91.72C418.26 89.73 414.03 86.91 410.43 83.31C405 77.88 401.39 70.93 400.33 64.1L420.06 60.81C420.34 63.11 421.77 66.36 424.58 69.16C427.23 71.82 432.07 74.98 440.01 74.98C444.16 74.98 448.28 73.54 451.31 71.03C453.59 69.14 455.01 66.82 455.01 64.98C455.01 63.4 454.82 62.33 452.22 60.84C448.78 58.87 443.13 57.51 437.67 56.2C430.84 54.56 423.78 52.86 417.84 49.46C407.23 43.38 405 34.42 405 27.97C405 20.18 408.77 12.69 415.34 7.43998C421.36 2.62998 429.22 -0.0200195 437.5 -0.0200195C445.78 -0.0200195 454 3.14998 460.23 8.90998C466.44 14.65 470 22.33 470 29.98H450C450 27.95 448.72 25.51 446.65 23.59C445.19 22.24 442.06 19.98 437.5 19.98C430.13 19.98 425 24.2 425 27.98C425 29.56 425.19 30.63 427.79 32.12C431.23 34.09 436.88 35.45 442.34 36.76C449.17 38.4 456.23 40.1 462.17 43.5C472.78 49.58 475.01 58.54 475.01 64.99H475Z" fill="#626841"/>
<path d="M202.9 0L180.28 94.99H159.78L150.07 48.86L140.23 94.99H119.72L97.1001 0H117.66L129.46 49.57L140.04 0H160.22L170.6 49.3L182.34 0H202.9Z" fill="#626841"/>
<path d="M222.73 64.99L227.93 43.17L233.13 64.99H222.74H222.73ZM238.2 0H217.64L195.02 94.99H215.58L217.96 84.99H237.88L240.26 94.99H260.82L238.2 0Z" fill="#626841"/>
<path d="M400 0V20H380V94.99H360V20H340V0H400Z" fill="#626841"/>
<path d="M505 0H485V94.99H505V0Z" fill="#626841"/>
<path d="M329.8 0V94.99H308.96L290 49.74V94.99H270V0H290.84L309.8 45.25V0H329.8Z" fill="#626841"/>
<path d="M95 39.99V94.98H75V86.23C67.02 91.92 57.5 94.98 47.5 94.98C34.81 94.98 22.88 90.04 13.91 81.07C4.94 72.11 0 60.18 0 47.49C0 34.8 4.94 22.88 13.91 13.91C22.88 4.94 34.81 0 47.5 0C60.19 0 72.12 4.94 81.09 13.91C85.11 17.93 88.32 22.54 90.64 27.55L70.83 32.95C65.97 25.18 57.33 20 47.5 20C32.34 20 20 32.33 20 47.5C20 62.67 32.34 75 47.5 75C58.17 75 67.43 68.9 71.99 60H45V40H95V39.99Z" fill="#626841"/>
</g>
<defs>
<clipPath id="clip0_7002_16260">
<rect width="505" height="239.97" fill="white"/>
</clipPath>
</defs>
</svg>
