<svg width="885" height="125" viewBox="0 0 885 125" fill="none" xmlns="http://www.w3.org/2000/svg">
<g clip-path="url(#clip0_7002_16274)">
<path fill-rule="evenodd" clip-rule="evenodd" d="M555 85H565V30H555V85ZM605 0H625V10H655V105H635V30H625V85C625 107.06 607.06 125 585 125V105H535V10H585V105C596.03 105 605 96.03 605 85V30H595V10H605V0Z" fill="#626841"/>
<path fill-rule="evenodd" clip-rule="evenodd" d="M685 30H695V85H685V30ZM665 105H715V10H665V105Z" fill="#626841"/>
<path fill-rule="evenodd" clip-rule="evenodd" d="M755 30H765V85H755V30ZM735 105H785V10H735V105Z" fill="#626841"/>
<path d="M815 10H795V30H815V40H795V60H815V75H795V95H815V105H835V0H815V10Z" fill="#626841"/>
<path d="M845 0H865V10H885V30H865V45H885V65H865V75H885V95H865V105H845V0Z" fill="#626841"/>
<path d="M475 75C475 82.87 471.01 90.69 464.06 96.45C457.41 101.96 448.86 105 440 105C433.95 105 428.24 103.9 423.03 101.73C418.26 99.74 414.03 96.92 410.43 93.32C405 87.89 401.39 80.94 400.33 74.11L420.06 70.82C420.34 73.12 421.77 76.37 424.58 79.17C427.23 81.83 432.07 84.99 440.01 84.99C444.16 84.99 448.28 83.55 451.31 81.04C453.59 79.15 455.01 76.83 455.01 74.99C455.01 73.41 454.82 72.34 452.22 70.85C448.78 68.88 443.14 67.52 437.68 66.21C430.85 64.57 423.79 62.87 417.85 59.47C407.24 53.39 405.01 44.43 405.01 37.98C405.01 30.19 408.78 22.7 415.35 17.44C421.37 12.63 429.23 9.97998 437.51 9.97998C445.79 9.97998 454.01 13.15 460.24 18.91C466.45 24.65 470.01 32.33 470.01 39.98H450.01C450.01 37.95 448.73 35.51 446.66 33.59C445.2 32.24 442.07 29.98 437.51 29.98C430.14 29.98 425.01 34.2 425.01 37.98C425.01 39.56 425.2 40.63 427.8 42.12C431.24 44.09 436.88 45.45 442.34 46.76C449.17 48.4 456.23 50.1 462.17 53.5C472.78 59.58 475.01 68.54 475.01 74.99L475 75Z" fill="#626841"/>
<path d="M150.27 10.0002L150.13 9.97021L150 10.0002H140.04L129.46 59.5802L117.66 10.0002H97.1001L119.72 105H140.23L150.07 58.8602L159.78 105H180.28L202.9 10.0002H182.34L170.6 59.3102L160.22 10.0002H150.27Z" fill="#626841"/>
<path fill-rule="evenodd" clip-rule="evenodd" d="M227.92 53.17L222.72 75H233.11L227.91 53.17H227.92ZM217.64 10H238.2L260.82 105H240.26L237.88 95H217.96L215.58 105H195.02L217.64 10Z" fill="#626841"/>
<path d="M400 10V30H380V105H360V30H340V10H400Z" fill="#626841"/>
<path d="M505 10H485V105H505V10Z" fill="#626841"/>
<path d="M329.8 10V105H308.96L290 59.74V105H270V10H290.84L309.8 55.26V10H329.8Z" fill="#626841"/>
<path d="M95 105V49.9998H45V69.9998H71.99C67.43 78.8998 58.17 84.9998 47.5 84.9998C32.34 84.9998 20 72.6598 20 57.4998C20 42.3398 32.34 29.9998 47.5 29.9998C57.33 29.9998 65.97 35.1798 70.83 42.9598L90.64 37.5598C88.32 32.5498 85.11 27.9398 81.09 23.9198C72.12 14.9498 60.19 10.0098 47.5 10.0098C34.81 10.0098 22.88 14.9498 13.91 23.9198C4.94 32.8798 0 44.8098 0 57.4998C0 70.1898 4.94 82.1198 13.91 91.0898C22.88 100.06 34.81 105 47.5 105C57.5 105 67.02 101.93 75 96.2398V105H95Z" fill="#626841"/>
</g>
<defs>
<clipPath id="clip0_7002_16274">
<rect width="885" height="125" fill="white"/>
</clipPath>
</defs>
</svg>
