<svg width="1163" height="215" viewBox="0 0 1163 215" fill="none" xmlns="http://www.w3.org/2000/svg">
<g clip-path="url(#clip0_7002_16022)">
<path d="M1161.5 1.5H1.5V212.5H1161.5V1.5Z" fill="#F5F5ED"/>
<path d="M956.09 74.0001H968.17V140.46H956.09V74.0001ZM931.92 164.63H992.34V49.8301H931.92V164.62V164.63Z" fill="#626841"/>
<path d="M871.5 74.0001H883.58V140.46H871.5V74.0001ZM847.33 164.63H907.75V49.8301H847.33V164.62V164.63Z" fill="#626841"/>
<path d="M726.5 140.46H714.42V74H726.5V140.46ZM799 37.75H774.83V49.83H762.75V74H774.83V140.46C774.83 153.79 763.99 164.63 750.67 164.63V49.83H690.25V164.62H750.66V189C777.31 189 798.99 167.11 798.99 140.46V74H811.07V164.62H835.24V49.83H798.99V37.75H799Z" fill="#626841"/>
<path d="M1028.58 49.83H1004.42V74H1028.58V86.08H1004.42V110.25H1028.58V128.38H1004.42V152.54H1028.58V164.62H1052.75V37.75H1028.58V49.83Z" fill="#626841"/>
<path d="M1089 37.75H1064.83V164.62H1089V152.54H1113.17V128.38H1089V116.29H1113.17V92.12H1089V74H1113.17V49.83H1089V37.75Z" fill="#626841"/>
<path d="M617.75 128.38C617.75 137.89 612.93 147.33 604.53 154.3C596.49 160.96 586.17 164.63 575.46 164.63C568.14 164.63 561.25 163.3 554.95 160.68C549.19 158.28 544.07 154.86 539.73 150.52C533.17 143.95 528.8 135.56 527.52 127.31L551.36 123.34C551.7 126.12 553.43 130.05 556.82 133.43C560.03 136.64 565.87 140.46 575.46 140.46C580.47 140.46 585.45 138.72 589.11 135.69C591.87 133.4 593.59 130.6 593.59 128.38C593.59 126.47 593.36 125.18 590.22 123.38C586.06 120.99 579.24 119.36 572.64 117.78C564.38 115.8 555.85 113.75 548.68 109.64C535.86 102.29 533.17 91.4601 533.17 83.6801C533.17 74.2601 537.73 65.2201 545.67 58.8701C552.94 53.0501 562.45 49.8501 572.44 49.8501C582.43 49.8501 592.38 53.6801 599.9 60.6401C607.4 67.5801 611.71 76.8601 611.71 86.1001H587.54C587.54 83.6501 585.99 80.6901 583.49 78.3801C581.73 76.7501 577.95 74.0101 572.44 74.0101C563.54 74.0101 557.34 79.1001 557.34 83.6801C557.34 85.5901 557.57 86.8801 560.71 88.6801C564.87 91.0701 571.69 92.7001 578.29 94.2801C586.55 96.2601 595.08 98.3101 602.25 102.42C615.07 109.77 617.76 120.6 617.76 128.38H617.75Z" fill="#626841"/>
<path d="M225.36 49.8298H225.04L225.2 49.7998L225.36 49.8298Z" fill="#626841"/>
<path d="M288.96 49.8301L261.63 164.63H236.86L225.12 108.88L213.23 164.63H188.46L161.12 49.8301H185.96L200.23 109.74L213.01 49.8301H237.39L249.93 109.41L264.12 49.8301H288.96Z" fill="#626841"/>
<path d="M312.92 128.38L319.2 102.01L325.48 128.38H312.92ZM331.62 49.8301H306.78L279.45 164.62H304.29L307.17 152.54H331.24L334.12 164.62H358.96L331.63 49.8301H331.62Z" fill="#626841"/>
<path d="M527.12 49.8301V74.0001H502.96V164.63H478.79V74.0001H454.62V49.8301H527.12Z" fill="#626841"/>
<path d="M654 49.8301H629.83V164.62H654V49.8301Z" fill="#626841"/>
<path d="M442.3 49.8301V164.63H417.12L394.21 109.94V164.63H370.04V49.8301H395.23L418.14 104.52V49.8301H442.3Z" fill="#626841"/>
<path d="M158.58 98.1701V164.63H134.41V154.05C124.77 160.93 113.26 164.63 101.18 164.63C85.8498 164.63 71.4398 158.66 60.5898 147.82C49.7498 136.98 43.7798 122.57 43.7798 107.23C43.7798 91.8901 49.7498 77.4901 60.5898 66.6401C71.4298 55.8001 85.8398 49.8301 101.18 49.8301C116.52 49.8301 130.92 55.8001 141.77 66.6401C146.63 71.5001 150.51 77.0701 153.31 83.1201L129.38 89.6501C123.5 80.2501 113.07 73.9901 101.19 73.9901C82.8698 73.9901 67.9598 88.9001 67.9598 107.22C67.9598 125.54 82.8698 140.45 101.19 140.45C114.08 140.45 125.27 133.08 130.78 122.33H98.1698V98.1601H158.59L158.58 98.1701Z" fill="#626841"/>
<g opacity="0.5">
<path d="M702.33 49.3301H1.5V50.3301H702.33V49.3301Z" fill="#79803C"/>
<path d="M56.3799 49.8301H55.3799V164.62H56.3799V49.8301Z" fill="#79803C"/>
<path d="M62.4199 49.8301H61.4199V164.62H62.4199V49.8301Z" fill="#79803C"/>
<path d="M68.46 49.8301H67.46V164.62H68.46V49.8301Z" fill="#79803C"/>
<path d="M80.54 49.8301H79.54V164.62H80.54V49.8301Z" fill="#79803C"/>
<path d="M86.5801 49.8301H85.5801V164.62H86.5801V49.8301Z" fill="#79803C"/>
<path d="M92.6201 49.8301H91.6201V164.62H92.6201V49.8301Z" fill="#79803C"/>
<path d="M104.71 49.8301H103.71V164.62H104.71V49.8301Z" fill="#79803C"/>
<path d="M110.75 49.8301H109.75V164.62H110.75V49.8301Z" fill="#79803C"/>
<path d="M116.79 49.8301H115.79V164.62H116.79V49.8301Z" fill="#79803C"/>
<path d="M128.88 49.8301H127.88V164.62H128.88V49.8301Z" fill="#79803C"/>
<path d="M134.92 49.8301H133.92V164.62H134.92V49.8301Z" fill="#79803C"/>
<path d="M140.96 49.8301H139.96V164.62H140.96V49.8301Z" fill="#79803C"/>
<path d="M153.04 49.8301H152.04V164.62H153.04V49.8301Z" fill="#79803C"/>
<path d="M159.08 49.8301H158.08V164.62H159.08V49.8301Z" fill="#79803C"/>
<path d="M165.12 49.8301H164.12V164.62H165.12V49.8301Z" fill="#79803C"/>
<path d="M177.21 49.8301H176.21V164.62H177.21V49.8301Z" fill="#79803C"/>
<path d="M183.25 49.8301H182.25V164.62H183.25V49.8301Z" fill="#79803C"/>
<path d="M189.29 49.8301H188.29V164.62H189.29V49.8301Z" fill="#79803C"/>
<path d="M201.38 49.8301H200.38V164.62H201.38V49.8301Z" fill="#79803C"/>
<path d="M207.42 49.8301H206.42V164.62H207.42V49.8301Z" fill="#79803C"/>
<path d="M213.46 49.8301H212.46V164.62H213.46V49.8301Z" fill="#79803C"/>
<path d="M225.54 49.8301H224.54V164.62H225.54V49.8301Z" fill="#79803C"/>
<path d="M231.58 49.8301H230.58V164.62H231.58V49.8301Z" fill="#79803C"/>
<path d="M237.62 49.8301H236.62V164.62H237.62V49.8301Z" fill="#79803C"/>
<path d="M249.71 49.8301H248.71V164.62H249.71V49.8301Z" fill="#79803C"/>
<path d="M255.75 49.8301H254.75V164.62H255.75V49.8301Z" fill="#79803C"/>
<path d="M261.79 49.8301H260.79V164.62H261.79V49.8301Z" fill="#79803C"/>
<path d="M273.87 49.8301H272.87V164.62H273.87V49.8301Z" fill="#79803C"/>
<path d="M279.91 49.8301H278.91V164.62H279.91V49.8301Z" fill="#79803C"/>
<path d="M285.96 49.8301H284.96V164.62H285.96V49.8301Z" fill="#79803C"/>
<path d="M298.04 49.8301H297.04V164.62H298.04V49.8301Z" fill="#79803C"/>
<path d="M304.08 49.8301H303.08V164.62H304.08V49.8301Z" fill="#79803C"/>
<path d="M310.12 49.8301H309.12V164.62H310.12V49.8301Z" fill="#79803C"/>
<path d="M322.21 49.8301H321.21V164.62H322.21V49.8301Z" fill="#79803C"/>
<path d="M328.25 49.8301H327.25V164.62H328.25V49.8301Z" fill="#79803C"/>
<path d="M334.29 49.8301H333.29V164.62H334.29V49.8301Z" fill="#79803C"/>
<path d="M346.37 49.8301H345.37V164.62H346.37V49.8301Z" fill="#79803C"/>
<path d="M352.41 49.8301H351.41V164.62H352.41V49.8301Z" fill="#79803C"/>
<path d="M358.46 49.8301H357.46V164.62H358.46V49.8301Z" fill="#79803C"/>
<path d="M370.54 49.8301H369.54V164.62H370.54V49.8301Z" fill="#79803C"/>
<path d="M376.58 49.8301H375.58V164.62H376.58V49.8301Z" fill="#79803C"/>
<path d="M382.62 49.8301H381.62V164.62H382.62V49.8301Z" fill="#79803C"/>
<path d="M394.71 49.8301H393.71V164.62H394.71V49.8301Z" fill="#79803C"/>
<path d="M400.75 49.8301H399.75V164.62H400.75V49.8301Z" fill="#79803C"/>
<path d="M406.79 49.8301H405.79V164.62H406.79V49.8301Z" fill="#79803C"/>
<path d="M418.87 49.8301H417.87V164.62H418.87V49.8301Z" fill="#79803C"/>
<path d="M424.91 49.8301H423.91V164.62H424.91V49.8301Z" fill="#79803C"/>
<path d="M430.96 49.8301H429.96V164.62H430.96V49.8301Z" fill="#79803C"/>
<path d="M443.04 49.8301H442.04V164.62H443.04V49.8301Z" fill="#79803C"/>
<path d="M449.08 49.8301H448.08V164.62H449.08V49.8301Z" fill="#79803C"/>
<path d="M455.12 49.8301H454.12V164.62H455.12V49.8301Z" fill="#79803C"/>
<path d="M467.21 49.8301H466.21V164.62H467.21V49.8301Z" fill="#79803C"/>
<path d="M473.25 49.8301H472.25V164.62H473.25V49.8301Z" fill="#79803C"/>
<path d="M479.29 49.8301H478.29V164.62H479.29V49.8301Z" fill="#79803C"/>
<path d="M491.37 49.8301H490.37V164.62H491.37V49.8301Z" fill="#79803C"/>
<path d="M497.41 49.8301H496.41V164.62H497.41V49.8301Z" fill="#79803C"/>
<path d="M503.46 49.8301H502.46V164.62H503.46V49.8301Z" fill="#79803C"/>
<path d="M515.54 49.8301H514.54V164.62H515.54V49.8301Z" fill="#79803C"/>
<path d="M521.58 49.8301H520.58V164.62H521.58V49.8301Z" fill="#79803C"/>
<path d="M527.62 49.8301H526.62V164.62H527.62V49.8301Z" fill="#79803C"/>
<path d="M539.71 49.8301H538.71V164.62H539.71V49.8301Z" fill="#79803C"/>
<path d="M545.75 49.8301H544.75V164.62H545.75V49.8301Z" fill="#79803C"/>
<path d="M551.79 49.8301H550.79V164.62H551.79V49.8301Z" fill="#79803C"/>
<path d="M563.87 49.8301H562.87V164.62H563.87V49.8301Z" fill="#79803C"/>
<path d="M569.91 49.8301H568.91V164.62H569.91V49.8301Z" fill="#79803C"/>
<path d="M575.96 49.8301H574.96V164.62H575.96V49.8301Z" fill="#79803C"/>
<path d="M588.04 49.8301H587.04V164.62H588.04V49.8301Z" fill="#79803C"/>
<path d="M594.08 49.8301H593.08V164.62H594.08V49.8301Z" fill="#79803C"/>
<path d="M600.12 49.8301H599.12V164.62H600.12V49.8301Z" fill="#79803C"/>
<path d="M612.21 49.8301H611.21V164.62H612.21V49.8301Z" fill="#79803C"/>
<path d="M618.25 49.8301H617.25V164.62H618.25V49.8301Z" fill="#79803C"/>
<path d="M624.29 49.8301H623.29V164.62H624.29V49.8301Z" fill="#79803C"/>
<path d="M636.37 49.8301H635.37V164.62H636.37V49.8301Z" fill="#79803C"/>
<path d="M642.41 49.8301H641.41V164.62H642.41V49.8301Z" fill="#79803C"/>
<path d="M648.46 49.8301H647.46V164.62H648.46V49.8301Z" fill="#79803C"/>
<path d="M660.54 49.8301H659.54V164.62H660.54V49.8301Z" fill="#79803C"/>
<path d="M666.58 49.8301H665.58V164.62H666.58V49.8301Z" fill="#79803C"/>
<path d="M672.62 49.8301H671.62V164.62H672.62V49.8301Z" fill="#79803C"/>
<path d="M684.71 49.8301H683.71V164.62H684.71V49.8301Z" fill="#79803C"/>
<path d="M690.75 49.8301H689.75V164.62H690.75V49.8301Z" fill="#79803C"/>
<path d="M696.79 49.8301H695.79V164.62H696.79V49.8301Z" fill="#79803C"/>
<path d="M708.87 49.8301H707.87V164.62H708.87V49.8301Z" fill="#79803C"/>
<path d="M714.91 49.8301H713.91V164.62H714.91V49.8301Z" fill="#79803C"/>
<path d="M720.96 49.8301H719.96V164.62H720.96V49.8301Z" fill="#79803C"/>
<path d="M733.04 49.8301H732.04V164.62H733.04V49.8301Z" fill="#79803C"/>
<path d="M739.08 49.8301H738.08V164.62H739.08V49.8301Z" fill="#79803C"/>
<path d="M745.12 49.8301H744.12V164.62H745.12V49.8301Z" fill="#79803C"/>
<path d="M757.21 49.8301H756.21V164.62H757.21V49.8301Z" fill="#79803C"/>
<path d="M763.25 49.8301H762.25V164.62H763.25V49.8301Z" fill="#79803C"/>
<path d="M769.29 49.8301H768.29V164.62H769.29V49.8301Z" fill="#79803C"/>
<path d="M781.37 49.8301H780.37V164.62H781.37V49.8301Z" fill="#79803C"/>
<path d="M787.41 49.8301H786.41V164.62H787.41V49.8301Z" fill="#79803C"/>
<path d="M793.46 49.8301H792.46V164.62H793.46V49.8301Z" fill="#79803C"/>
<path d="M805.54 49.8301H804.54V164.62H805.54V49.8301Z" fill="#79803C"/>
<path d="M811.58 49.8301H810.58V164.62H811.58V49.8301Z" fill="#79803C"/>
<path d="M817.62 49.8301H816.62V164.62H817.62V49.8301Z" fill="#79803C"/>
<path d="M829.71 49.8301H828.71V164.62H829.71V49.8301Z" fill="#79803C"/>
<path d="M835.75 49.8301H834.75V164.62H835.75V49.8301Z" fill="#79803C"/>
<path d="M841.79 49.8301H840.79V164.62H841.79V49.8301Z" fill="#79803C"/>
<path d="M853.87 49.8301H852.87V164.62H853.87V49.8301Z" fill="#79803C"/>
<path d="M859.91 49.8301H858.91V164.62H859.91V49.8301Z" fill="#79803C"/>
<path d="M865.96 49.8301H864.96V164.62H865.96V49.8301Z" fill="#79803C"/>
<path d="M878.04 49.8301H877.04V164.62H878.04V49.8301Z" fill="#79803C"/>
<path d="M884.08 49.8301H883.08V164.62H884.08V49.8301Z" fill="#79803C"/>
<path d="M890.12 49.8301H889.12V164.62H890.12V49.8301Z" fill="#79803C"/>
<path d="M902.21 49.8301H901.21V164.62H902.21V49.8301Z" fill="#79803C"/>
<path d="M908.25 49.8301H907.25V164.62H908.25V49.8301Z" fill="#79803C"/>
<path d="M914.29 49.8301H913.29V164.62H914.29V49.8301Z" fill="#79803C"/>
<path d="M926.37 49.8301H925.37V164.62H926.37V49.8301Z" fill="#79803C"/>
<path d="M932.41 49.8301H931.41V164.62H932.41V49.8301Z" fill="#79803C"/>
<path d="M938.46 49.8301H937.46V164.62H938.46V49.8301Z" fill="#79803C"/>
<path d="M950.54 49.8301H949.54V164.62H950.54V49.8301Z" fill="#79803C"/>
<path d="M956.58 49.8301H955.58V164.62H956.58V49.8301Z" fill="#79803C"/>
<path d="M962.62 49.8301H961.62V164.62H962.62V49.8301Z" fill="#79803C"/>
<path d="M974.71 49.8301H973.71V164.62H974.71V49.8301Z" fill="#79803C"/>
<path d="M980.75 49.8301H979.75V164.62H980.75V49.8301Z" fill="#79803C"/>
<path d="M986.79 49.8301H985.79V164.62H986.79V49.8301Z" fill="#79803C"/>
<path d="M998.87 49.8301H997.87V164.62H998.87V49.8301Z" fill="#79803C"/>
<path d="M1004.91 49.8301H1003.91V164.62H1004.91V49.8301Z" fill="#79803C"/>
<path d="M1010.96 49.8301H1009.96V164.62H1010.96V49.8301Z" fill="#79803C"/>
<path d="M1023.04 49.8301H1022.04V164.62H1023.04V49.8301Z" fill="#79803C"/>
<path d="M1029.08 49.8301H1028.08V164.62H1029.08V49.8301Z" fill="#79803C"/>
<path d="M1035.12 49.8301H1034.12V164.62H1035.12V49.8301Z" fill="#79803C"/>
<path d="M1047.21 49.8301H1046.21V164.62H1047.21V49.8301Z" fill="#79803C"/>
<path d="M1053.25 49.8301H1052.25V164.62H1053.25V49.8301Z" fill="#79803C"/>
<path d="M1059.29 49.8301H1058.29V164.62H1059.29V49.8301Z" fill="#79803C"/>
<path d="M1071.37 49.8301H1070.37V164.62H1071.37V49.8301Z" fill="#79803C"/>
<path d="M1077.41 49.8301H1076.41V164.62H1077.41V49.8301Z" fill="#79803C"/>
<path d="M1083.46 49.8301H1082.46V164.62H1083.46V49.8301Z" fill="#79803C"/>
<path d="M1095.54 49.8301H1094.54V164.62H1095.54V49.8301Z" fill="#79803C"/>
<path d="M1101.58 49.8301H1100.58V164.62H1101.58V49.8301Z" fill="#79803C"/>
<path d="M1107.62 49.8301H1106.62V164.62H1107.62V49.8301Z" fill="#79803C"/>
<path d="M1113.16 158.08H49.8301V159.08H1113.16V158.08Z" fill="#79803C"/>
<path d="M1113.16 152.04H49.8301V153.04H1113.16V152.04Z" fill="#79803C"/>
<path d="M1113.16 139.96H49.8301V140.96H1113.16V139.96Z" fill="#79803C"/>
<path d="M1113.16 133.92H49.8301V134.92H1113.16V133.92Z" fill="#79803C"/>
<path d="M1113.16 127.88H49.8301V128.88H1113.16V127.88Z" fill="#79803C"/>
<path d="M1113.16 115.79H49.8301V116.79H1113.16V115.79Z" fill="#79803C"/>
<path d="M1113.16 109.75H49.8301V110.75H1113.16V109.75Z" fill="#79803C"/>
<path d="M1113.16 103.71H49.8301V104.71H1113.16V103.71Z" fill="#79803C"/>
<path d="M1113.16 91.6201H49.8301V92.6201H1113.16V91.6201Z" fill="#79803C"/>
<path d="M1113.16 85.5801H49.8301V86.5801H1113.16V85.5801Z" fill="#79803C"/>
<path d="M1113.16 79.54H49.8301V80.54H1113.16V79.54Z" fill="#79803C"/>
<path d="M1113.16 67.46H49.8301V68.46H1113.16V67.46Z" fill="#79803C"/>
<path d="M1113.16 61.4199H49.8301V62.4199H1113.16V61.4199Z" fill="#79803C"/>
<path d="M1113.16 55.3799H49.8301V56.3799H1113.16V55.3799Z" fill="#79803C"/>
<path d="M1113.16 73.5H49.8301V74.5H1113.16V73.5Z" fill="#79803C"/>
<path d="M1113.16 97.6699H49.8301V98.6699H1113.16V97.6699Z" fill="#79803C"/>
<path d="M1113.16 121.83H49.8301V122.83H1113.16V121.83Z" fill="#79803C"/>
<path d="M1113.16 146H49.8301V147H1113.16V146Z" fill="#79803C"/>
</g>
<g opacity="0.5">
<path d="M1161.5 25.1699H1.5V26.1699H1161.5V25.1699Z" fill="#79803C"/>
<path d="M1161.5 49H1.5V50H1161.5V49Z" fill="#79803C"/>
<path d="M74.5 1.5H73.5V212.96H74.5V1.5Z" fill="#79803C"/>
<path d="M26.1699 1.5H25.1699V212.96H26.1699V1.5Z" fill="#79803C"/>
<path d="M50.3301 1.5H49.3301V212.96H50.3301V1.5Z" fill="#79803C"/>
<path d="M98.6699 1.5H97.6699V212.96H98.6699V1.5Z" fill="#79803C"/>
<path d="M122.83 1.5H121.83V212.96H122.83V1.5Z" fill="#79803C"/>
<path d="M147 1.5H146V212.96H147V1.5Z" fill="#79803C"/>
<path d="M171.17 1.5H170.17V212.96H171.17V1.5Z" fill="#79803C"/>
<path d="M195.33 1.5H194.33V212.96H195.33V1.5Z" fill="#79803C"/>
<path d="M219.5 1.5H218.5V212.96H219.5V1.5Z" fill="#79803C"/>
<path d="M243.67 1.5H242.67V212.96H243.67V1.5Z" fill="#79803C"/>
<path d="M267.83 1.5H266.83V212.96H267.83V1.5Z" fill="#79803C"/>
<path d="M292 1.5H291V212.96H292V1.5Z" fill="#79803C"/>
<path d="M316.17 1.5H315.17V212.96H316.17V1.5Z" fill="#79803C"/>
<path d="M340.33 1.5H339.33V212.96H340.33V1.5Z" fill="#79803C"/>
<path d="M364.5 1.5H363.5V212.96H364.5V1.5Z" fill="#79803C"/>
<path d="M388.67 1.5H387.67V212.96H388.67V1.5Z" fill="#79803C"/>
<path d="M412.83 1.5H411.83V212.96H412.83V1.5Z" fill="#79803C"/>
<path d="M437 1.5H436V212.96H437V1.5Z" fill="#79803C"/>
<path d="M461.17 1.5H460.17V212.96H461.17V1.5Z" fill="#79803C"/>
<path d="M485.33 1.5H484.33V212.96H485.33V1.5Z" fill="#79803C"/>
<path d="M509.5 1.5H508.5V212.96H509.5V1.5Z" fill="#79803C"/>
<path d="M533.67 1.5H532.67V212.96H533.67V1.5Z" fill="#79803C"/>
<path d="M557.83 1.5H556.83V212.96H557.83V1.5Z" fill="#79803C"/>
<path d="M582 1.5H581V212.96H582V1.5Z" fill="#79803C"/>
<path d="M606.17 1.5H605.17V212.96H606.17V1.5Z" fill="#79803C"/>
<path d="M630.33 1.5H629.33V212.96H630.33V1.5Z" fill="#79803C"/>
<path d="M654.5 1.5H653.5V212.96H654.5V1.5Z" fill="#79803C"/>
<path d="M678.67 1.5H677.67V212.96H678.67V1.5Z" fill="#79803C"/>
<path d="M703 1.5H702V212.96H703V1.5Z" fill="#79803C"/>
<path d="M727 1.5H726V212.96H727V1.5Z" fill="#79803C"/>
<path d="M751.17 1.5H750.17V212.96H751.17V1.5Z" fill="#79803C"/>
<path d="M775.33 1.5H774.33V212.96H775.33V1.5Z" fill="#79803C"/>
<path d="M799.5 1.5H798.5V212.96H799.5V1.5Z" fill="#79803C"/>
<path d="M823.67 1.5H822.67V212.96H823.67V1.5Z" fill="#79803C"/>
<path d="M847.83 1.5H846.83V212.96H847.83V1.5Z" fill="#79803C"/>
<path d="M872 1.5H871V212.96H872V1.5Z" fill="#79803C"/>
<path d="M896.17 1.5H895.17V212.96H896.17V1.5Z" fill="#79803C"/>
<path d="M920.33 1.5H919.33V212.96H920.33V1.5Z" fill="#79803C"/>
<path d="M944.5 1.5H943.5V212.96H944.5V1.5Z" fill="#79803C"/>
<path d="M968.67 1.5H967.67V212.96H968.67V1.5Z" fill="#79803C"/>
<path d="M992.83 1.5H991.83V212.96H992.83V1.5Z" fill="#79803C"/>
<path d="M1137.83 1.5H1136.83V212.96H1137.83V1.5Z" fill="#79803C"/>
<path d="M1017 1.5H1016V212.96H1017V1.5Z" fill="#79803C"/>
<path d="M1041.17 1.5H1040.17V212.96H1041.17V1.5Z" fill="#79803C"/>
<path d="M1065.33 1.5H1064.33V212.96H1065.33V1.5Z" fill="#79803C"/>
<path d="M1089.5 1.5H1088.5V212.96H1089.5V1.5Z" fill="#79803C"/>
<path d="M1113.67 1.5H1112.67V212.96H1113.67V1.5Z" fill="#79803C"/>
<path d="M1161.5 188.29H1.5V189.29H1161.5V188.29Z" fill="#79803C"/>
<path d="M1161.5 164H1.5V165H1161.5V164Z" fill="#79803C"/>
</g>
<path opacity="0.25" d="M1161.5 1.5H1.5V49.83H1161.5V1.5Z" fill="#79803C"/>
<path opacity="0.25" d="M1161.5 164.62H1.5V212.95H1161.5V164.62Z" fill="#79803C"/>
<path opacity="0.25" d="M49.83 1.5H1.5V212.96H49.83V1.5Z" fill="#79803C"/>
<path opacity="0.25" d="M1161.5 1.5H1113.17V212.96H1161.5V1.5Z" fill="#79803C"/>
<path d="M1113.67 1.5H1112.67V212.96H1113.67V1.5Z" fill="#79803C"/>
<path d="M1161.5 49.3301H1.5V50.3301H1161.5V49.3301Z" fill="#79803C"/>
<path d="M3 212.96V1.5H0V212.96H3ZM1161.5 211.46H1.5V214.46H1161.5V211.46ZM1160 1.5V212.96H1163V1.5H1160ZM1.5 3H1161.5V0H1.5V3ZM1.5 212.96H0V214.46H1.5V212.96ZM1161.5 212.96V214.46H1163V212.96H1161.5ZM1161.5 1.5H1163V0H1161.5V1.5ZM1.5 1.5V0H0V1.5H1.5Z" fill="#79803C"/>
<path d="M50.3301 1.5H49.3301V212.96H50.3301V1.5Z" fill="#79803C"/>
<path d="M1161.5 164.12H1.5V165.12H1161.5V164.12Z" fill="#79803C"/>
<path opacity="0.3" d="M653.5 164.5H629.5V188.5H653.5V164.5Z" fill="#79803C"/>
<path opacity="0.3" d="M1137.5 25.5H1113.5V49.5H1137.5V25.5Z" fill="#79803C"/>
<path opacity="0.3" d="M25.5 188.5H1.5V212.5H25.5V188.5Z" fill="#79803C"/>
<path opacity="0.3" d="M49.5 25.5H25.5V49.5H49.5V25.5Z" fill="#79803C"/>
<path opacity="0.3" d="M1161.5 188.5H1137.5V212.5H1161.5V188.5Z" fill="#79803C"/>
<path opacity="0.3" d="M1161.5 1.5H1137.5V25.5H1161.5V1.5Z" fill="#79803C"/>
<path opacity="0.3" d="M49.5 164.5H25.5V188.5H49.5V164.5Z" fill="#79803C"/>
<path opacity="0.3" d="M25.5 1.5H1.5V25.5H25.5V1.5Z" fill="#79803C"/>
<path opacity="0.3" d="M1137.5 164.5H1113.5V188.5H1137.5V164.5Z" fill="#79803C"/>
</g>
<defs>
<clipPath id="clip0_7002_16022">
<rect width="1163" height="214.46" fill="white"/>
</clipPath>
</defs>
</svg>
