<svg width="250" height="260" viewBox="0 0 250 260" fill="none" xmlns="http://www.w3.org/2000/svg">
<path d="M76.49 115.12H80.36L83.97 114.34L96.87 119.77C83.45 173.01 53.52 211.78 20.48 233.23C17.38 228.84 9.64 221.6 5 218.24C37.52 199.63 65.39 163.97 76.48 118.99V115.11L76.49 115.12ZM67.72 27.77L77.27 12C109.01 19.24 151.08 33.71 173.01 45.34L163.2 63.43C141.78 51.54 100.23 36.29 67.72 27.76V27.77ZM115.46 64.98H136.11V224.44C136.11 236.33 133.27 242.27 125.01 245.63C116.49 248.73 102.56 248.99 81.14 248.99C80.11 243.56 77.27 235.03 74.17 229.35C89.91 230.13 105.14 230.13 109.52 229.87C114.17 229.61 115.46 228.32 115.46 224.18V64.98ZM218.17 83.33L235.98 95.99C214.3 116.41 185.66 140.44 163.21 155.43L149.53 144.32C171.47 128.81 201.14 102.97 218.18 83.33H218.17ZM134.3 76.61C151.33 141.22 187.46 193.95 245.01 215.66C240.62 219.54 234.43 227.29 231.59 232.46C172.49 207.13 136.88 152.08 117.78 80.23L134.3 76.61ZM43.98 64.98H126.82V83.59H43.98V64.98ZM10.43 115.12H83.72V133.47H10.43V115.12Z" fill="#626841"/>
</svg>
