<svg width="320" height="210" viewBox="0 0 320 210" fill="none" xmlns="http://www.w3.org/2000/svg">
<path d="M125 124.36L91.1 35.68L58.84 124.36H124.99H125ZM102.31 3L182.68 203.98H155.62L133.48 146.32H50.65L29.6 203.98H5L81.81 3H102.31Z" fill="#626841"/>
<path d="M291.77 140.83C280.29 137.9 269.81 136.44 260.33 136.44C248.48 136.44 239.28 138.73 232.72 143.3C226.34 147.88 223.15 154.28 223.15 162.52C223.15 170.21 225.88 176.25 231.35 180.64C236.82 184.85 243.92 186.95 252.67 186.95C263.42 186.95 272.62 183.84 280.28 177.61C287.93 171.2 291.76 162.42 291.76 151.25V140.82L291.77 140.83ZM260.33 58.1899C276.37 58.1899 289.49 63.1299 299.69 73.0199C309.9 82.7199 315 96.6299 315 114.75V203.98H294.5C293.95 194.64 293.59 188.6 293.41 185.86C289.04 192.82 283.11 198.12 275.64 201.78C268.35 205.26 259.97 207 250.49 207C241.01 207 232.81 205.35 224.79 202.06C216.95 198.58 210.67 193.55 205.93 186.96C201.19 180.19 198.82 172.13 198.82 162.8C198.82 148.71 204.47 137.63 215.77 129.58C227.25 121.34 242.01 117.22 260.05 117.22C270.26 117.22 280.82 118.59 291.76 121.34V118.87C291.76 105.51 289.03 95.6199 283.56 89.2199C278.28 82.6299 270.17 79.3399 259.23 79.3399C250.48 79.3399 243.19 81.1699 237.36 84.8299C231.53 88.4899 226.61 93.8899 222.6 101.03L204.83 90.8699C209.2 80.9899 216.31 73.1099 226.15 67.2599C236.17 61.2199 247.56 58.1999 260.32 58.1999L260.33 58.1899Z" fill="#626841"/>
</svg>
