<svg width="780" height="585" viewBox="0 0 780 585" fill="none" xmlns="http://www.w3.org/2000/svg">
<ellipse cx="390" cy="359.998" rx="390" ry="225" fill="#626841"/>
<ellipse cx="390" cy="349.998" rx="390" ry="225" fill="#FFF6E7"/>
<path d="M302.15 216.228L314.98 208.738V238.688L302.16 246.178L302.15 216.228Z" fill="#A06A52"/>
<path d="M314.98 208.738L327.8 201.248V231.198L314.98 238.688V208.738Z" fill="#A06A52"/>
<path d="M327.8 201.249L340.62 193.759L340.63 223.709L327.8 231.199V201.249Z" fill="#A06A52"/>
<path d="M340.62 193.759L353.45 186.269V216.219L340.63 223.709L340.62 193.759Z" fill="#A06A52"/>
<path d="M353.45 186.268L366.27 178.778V208.738L353.45 216.218V186.268Z" fill="#A06A52"/>
<path d="M366.27 178.778L379.09 171.288V201.248L366.27 208.728V178.778Z" fill="#A06A52"/>
<path d="M379.09 171.289L391.92 163.799V193.759L379.09 201.239V171.289Z" fill="#A06A52"/>
<path d="M391.91 163.799L404.74 156.309V186.269L391.92 193.759L391.91 163.799Z" fill="#A06A52"/>
<path d="M404.74 156.308L417.56 148.818V178.778L404.74 186.268V156.308Z" fill="#A06A52"/>
<path d="M417.56 148.819L430.38 141.339L430.39 171.289L417.56 178.779V148.819Z" fill="#A06A52"/>
<path d="M430.38 141.329L443.21 133.849V163.799L430.39 171.289L430.38 141.329Z" fill="#A06A52"/>
<path d="M443.21 133.848L456.03 126.358V156.308L443.21 163.798V133.848Z" fill="#A06A52"/>
<path d="M456.03 126.358L468.85 118.868L468.86 148.818L456.03 156.308V126.358Z" fill="#A06A52"/>
<path d="M468.85 118.869L481.68 111.379V141.329L468.86 148.819L468.85 118.869Z" fill="#A06A52"/>
<path d="M481.67 111.379L494.5 103.889V133.839L481.68 141.329L481.67 111.379Z" fill="#A06A52"/>
<path d="M494.5 103.888L507.32 96.3984V126.348L494.5 133.838V103.888Z" fill="#A06A52"/>
<path d="M173.91 201.238L379.08 81.418L400.46 83.918L263.68 163.808L238.03 178.778V208.728L173.91 201.238Z" fill="#54902E"/>
<path d="M379.1 395.928L173.92 276.128L173.91 201.238L238.03 208.728V178.778L263.68 163.808L302.15 216.228L302.16 246.178L379.1 321.058V395.928Z" fill="white"/>
<path d="M302.16 246.178L507.33 126.348L584.26 201.228L379.1 321.058L302.16 246.178Z" fill="#9A7260"/>
<path d="M379.1 395.929L584.27 276.109L584.26 201.229L379.1 321.059V395.929Z" fill="#33594B"/>
<path d="M302.15 216.228L494.52 103.898L494.53 133.848L302.16 246.178L302.15 216.228Z" fill="#9A7260"/>
<path d="M314.98 313.568V358.498L366.27 388.448V343.518L314.98 313.568Z" fill="#F5CC7C"/>
<path d="M304.15 217.388L312.98 212.228L312.99 237.528L304.15 242.688V217.388Z" fill="#F5CC7C"/>
<path d="M316.97 209.897L325.81 204.737V230.037L316.97 235.197V209.897Z" fill="#F5CC7C"/>
<path d="M329.79 202.408L338.63 197.248V222.548L329.79 227.708V202.408Z" fill="#F5CC7C"/>
<path d="M342.61 194.918L351.45 189.758L351.46 215.058L342.62 220.218L342.61 194.918Z" fill="#F5CC7C"/>
<path d="M355.44 187.428L364.28 182.268V207.568L355.44 212.728V187.428Z" fill="#F5CC7C"/>
<path d="M368.26 179.937L377.1 174.777V200.077L368.26 205.237V179.937Z" fill="#F5CC7C"/>
<path d="M381.08 172.448L389.92 167.288V192.588L381.09 197.748L381.08 172.448Z" fill="#F5CC7C"/>
<path d="M393.91 164.968L402.75 159.798V185.108L393.91 190.268V164.968Z" fill="#F5CC7C"/>
<path d="M406.73 157.478L415.57 152.308V177.618L406.73 182.778V157.478Z" fill="#F5CC7C"/>
<path d="M419.55 149.988L428.39 144.828V170.128L419.56 175.288L419.55 149.988Z" fill="#F5CC7C"/>
<path d="M432.38 142.498L441.21 137.338L441.22 162.638L432.38 167.798V142.498Z" fill="#F5CC7C"/>
<path d="M445.2 135.008L454.04 129.848V155.148L445.2 160.308V135.008Z" fill="#F5CC7C"/>
<path d="M458.02 127.517L466.86 122.357V147.657L458.02 152.817V127.517Z" fill="#F5CC7C"/>
<path d="M470.84 120.028L479.68 114.868V140.168L470.85 145.328L470.84 120.028Z" fill="#F5CC7C"/>
<path d="M483.67 112.538L492.51 107.378V132.678L483.67 137.838V112.538Z" fill="#F5CC7C"/>
<path d="M496.49 105.048L505.33 99.8877V125.188L496.49 130.348V105.048Z" fill="#F5CC7C"/>
<path d="M263.68 159.828L468.85 39.998L515.02 102.898L309.85 222.728L263.68 159.828Z" fill="#33594B"/>
<path d="M309.85 222.728V226.708L515.02 106.878V102.898L309.85 222.728Z" fill="#8196A9"/>
<path d="M314.98 358.498L311.41 360.578L362.7 390.528L366.27 388.448L314.98 358.498Z" fill="#E2B196"/>
<path d="M366.27 343.519L362.54 345.499L362.7 390.529L366.27 388.449V343.519Z" fill="#02478C"/>
<path d="M314.98 313.568L311.25 315.548L311.41 360.578L314.98 358.498V313.568Z" fill="#02478C"/>
<path d="M314.98 313.568L311.25 315.548L362.54 345.498L366.27 343.518L314.98 313.568Z" fill="#E2B196"/>
<path d="M353.45 306.078V321.058L359.87 324.808V309.828L353.45 306.078Z" fill="#F5CC7C"/>
<path d="M353.45 306.078V321.058L351.28 322.428V307.348L353.45 306.078Z" fill="#02478C"/>
<path d="M359.87 309.828L353.45 306.078L351.28 307.348L357.7 311.098L359.87 309.828Z" fill="#E2B196"/>
<path d="M359.87 324.809L353.45 321.059L351.28 322.429L357.7 326.179L359.87 324.809Z" fill="#E2B196"/>
<path d="M359.87 309.828V324.808L357.7 326.178V311.098L359.87 309.828Z" fill="#02478C"/>
<path d="M186.78 238.688V268.608L199.57 276.128L199.58 246.198L186.78 238.688Z" fill="#F5CC7C"/>
<path d="M186.78 238.688V268.608L184.58 269.908V239.958L186.78 238.688Z" fill="#02478C"/>
<path d="M199.58 246.198L186.78 238.688L184.58 239.958L197.4 247.448L199.58 246.198Z" fill="#E2B196"/>
<path d="M199.57 276.128L186.78 268.608L184.58 269.908L197.4 277.398L199.57 276.128Z" fill="#E2B196"/>
<path d="M199.58 246.198L199.57 276.128L197.4 277.398V247.448L199.58 246.198Z" fill="#02478C"/>
<path d="M186.78 208.738V223.718L199.57 231.198V216.228L186.78 208.738Z" fill="#F5CC7C"/>
<path d="M186.78 208.738V223.718L184.58 224.968V210.008L186.78 208.738Z" fill="#02478C"/>
<path d="M199.57 216.228L186.78 208.738L184.58 210.008L197.4 217.498L199.57 216.228Z" fill="#E2B196"/>
<path d="M199.57 231.199L186.78 223.719L184.58 224.969L197.4 232.689L199.57 231.199Z" fill="#E2B196"/>
<path d="M199.57 216.229V231.199L197.4 232.689V217.499L199.57 216.229Z" fill="#02478C"/>
<path d="M212.39 253.669V283.589L225.19 291.109L225.2 261.179L212.39 253.669Z" fill="#F5CC7C"/>
<path d="M212.39 253.669V283.589L210.19 284.889V254.929L212.39 253.669Z" fill="#02478C"/>
<path d="M225.2 261.179L212.39 253.669L210.19 254.929L223.02 262.419L225.2 261.179Z" fill="#E2B196"/>
<path d="M225.19 291.109L212.39 283.589L210.19 284.889L223.02 292.369L225.19 291.109Z" fill="#E2B196"/>
<path d="M225.2 261.179L225.19 291.109L223.02 292.369V262.419L225.2 261.179Z" fill="#02478C"/>
<path d="M212.39 223.719V238.689L225.19 246.179V231.199L212.39 223.719Z" fill="#F5CC7C"/>
<path d="M212.39 223.719V238.689L210.19 239.949V224.979L212.39 223.719Z" fill="#02478C"/>
<path d="M225.19 231.199L212.39 223.719L210.19 224.979L223.02 232.469L225.19 231.199Z" fill="#E2B196"/>
<path d="M225.19 246.178L212.39 238.688L210.19 239.948L223.02 247.668L225.19 246.178Z" fill="#E2B196"/>
<path d="M225.19 231.199V246.179L223.02 247.669V232.469L225.19 231.199Z" fill="#02478C"/>
<path d="M238.01 268.639V298.569L250.8 306.079L250.81 276.149L238.01 268.639Z" fill="#F5CC7C"/>
<path d="M238.01 268.639V298.569L235.81 299.859V269.909L238.01 268.639Z" fill="#02478C"/>
<path d="M250.81 276.149L238.01 268.639L235.81 269.909L248.63 277.399L250.81 276.149Z" fill="#E2B196"/>
<path d="M250.8 306.078L238.01 298.568L235.81 299.858L248.63 307.348L250.8 306.078Z" fill="#E2B196"/>
<path d="M250.81 276.148L250.8 306.078L248.63 307.348V277.398L250.81 276.148Z" fill="#02478C"/>
<path d="M238.01 238.688V253.668L250.8 261.148V246.178L238.01 238.688Z" fill="#F5CC7C"/>
<path d="M238.01 238.688V253.668L235.81 254.918V239.958L238.01 238.688Z" fill="#02478C"/>
<path d="M250.8 246.178L238.01 238.688L235.81 239.958L248.63 247.448L250.8 246.178Z" fill="#E2B196"/>
<path d="M250.8 261.149L238.01 253.669L235.81 254.919L248.63 262.639L250.8 261.149Z" fill="#E2B196"/>
<path d="M250.8 246.179V261.149L248.63 262.639V247.449L250.8 246.179Z" fill="#02478C"/>
<path d="M263.62 283.618V313.538L276.42 321.058L276.43 291.128L263.62 283.618Z" fill="#F5CC7C"/>
<path d="M263.62 283.618V313.538L261.42 314.838V284.888L263.62 283.618Z" fill="#02478C"/>
<path d="M276.43 291.128L263.62 283.618L261.42 284.888L274.25 292.368L276.43 291.128Z" fill="#E2B196"/>
<path d="M276.42 321.058L263.62 313.538L261.42 314.838L274.25 322.318L276.42 321.058Z" fill="#E2B196"/>
<path d="M276.43 291.128L276.42 321.058L274.25 322.318V292.368L276.43 291.128Z" fill="#02478C"/>
<path d="M263.62 253.668V268.638L276.42 276.128V261.158L263.62 253.668Z" fill="#F5CC7C"/>
<path d="M263.62 253.668V268.638L261.42 269.898V254.938L263.62 253.668Z" fill="#02478C"/>
<path d="M276.42 261.158L263.62 253.668L261.42 254.938L274.25 262.418L276.42 261.158Z" fill="#E2B196"/>
<path d="M276.42 276.128L263.62 268.638L261.42 269.898L274.25 277.618L276.42 276.128Z" fill="#E2B196"/>
<path d="M276.42 261.158V276.128L274.25 277.618V262.418L276.42 261.158Z" fill="#02478C"/>
<path d="M289.24 298.589V328.519L302.03 336.029L302.04 306.109L289.24 298.589Z" fill="#F5CC7C"/>
<path d="M289.24 298.589V328.519L287.04 329.809V299.859L289.24 298.589Z" fill="#02478C"/>
<path d="M302.04 306.109L289.24 298.589L287.04 299.859L299.86 307.349L302.04 306.109Z" fill="#E2B196"/>
<path d="M302.03 336.029L289.24 328.519L287.04 329.809L299.86 337.299L302.03 336.029Z" fill="#E2B196"/>
<path d="M302.04 306.108L302.03 336.028L299.86 337.298V307.348L302.04 306.108Z" fill="#02478C"/>
<path d="M289.24 268.639V283.619L302.03 291.109V276.129L289.24 268.639Z" fill="#F5CC7C"/>
<path d="M289.24 268.639V283.619L287.04 284.879V269.909L289.24 268.639Z" fill="#02478C"/>
<path d="M302.03 276.129L289.24 268.639L287.04 269.909L299.86 277.399L302.03 276.129Z" fill="#E2B196"/>
<path d="M302.03 291.109L289.24 283.619L287.04 284.879L299.86 292.589L302.03 291.109Z" fill="#E2B196"/>
<path d="M302.03 276.129V291.109L299.86 292.589V277.399L302.03 276.129Z" fill="#02478C"/>
<path d="M327.8 291.108V306.078L340.6 313.568V298.588L327.8 291.108Z" fill="#F5CC7C"/>
<path d="M327.8 291.108V306.078L325.6 307.338V292.368L327.8 291.108Z" fill="#02478C"/>
<path d="M340.6 298.588L327.8 291.108L325.6 292.368L338.43 299.858L340.6 298.588Z" fill="#E2B196"/>
<path d="M340.6 313.568L327.8 306.078L325.6 307.338L338.43 315.058L340.6 313.568Z" fill="#E2B196"/>
<path d="M340.6 298.589V313.569L338.43 315.059V299.859L340.6 298.589Z" fill="#02478C"/>
<path d="M309.85 222.728L263.68 159.828L232.9 177.798V181.778L263.68 163.808L309.85 226.708V222.728Z" fill="#E4DBD4"/>
<path d="M379.1 395.929L545.8 493.269V302.349L456.04 205.009L379.09 205.019L379.1 395.929Z" fill="#FFFBF8"/>
<path d="M417.57 216.219V223.709L391.93 238.689V216.219H417.57Z" fill="#79803C"/>
<path d="M391.93 238.688L417.57 223.708L443.3 238.748L443.22 268.638L391.93 238.688Z" fill="#819577"/>
<path d="M712.52 395.928L545.8 493.268V302.348L554.79 312.098L712.51 219.998L712.52 395.928Z" fill="#626841"/>
<path d="M404.75 261.148L404.74 291.108L430.39 306.078V276.128L404.75 261.148Z" fill="#FDE57C"/>
<path d="M404.74 291.108L401.53 292.978V263.028L404.75 261.148L404.74 291.108Z" fill="#F5CC7C"/>
<path d="M404.75 306.078L404.74 336.028L430.39 351.008V321.058L404.75 306.078Z" fill="#FDE57C"/>
<path d="M404.74 336.028L401.53 337.908V307.958L404.75 306.078L404.74 336.028Z" fill="#F5CC7C"/>
<path d="M456.04 291.108V321.058L481.68 336.028L481.69 306.078L456.04 291.108Z" fill="#FDE57C"/>
<path d="M456.04 321.058L452.83 322.928V292.978L456.04 291.108V321.058Z" fill="#F5CC7C"/>
<path d="M661.23 261.148V291.098L635.58 306.078V276.128L661.23 261.148Z" fill="#F5CC7C"/>
<path d="M661.23 291.099L664.44 292.979L638.8 307.949L635.58 306.079L661.23 291.099Z" fill="#F7EFDA"/>
<path d="M635.58 306.079L638.8 307.949L638.79 277.999L635.58 276.129V306.079Z" fill="#929C80"/>
<path d="M661.23 291.098L664.44 292.978V263.018L661.23 261.148V291.098Z" fill="#929C80"/>
<path d="M622.75 283.608L622.76 313.568L597.11 328.538V298.588L622.75 283.608Z" fill="#F5CC7C"/>
<path d="M622.76 313.568L625.97 315.438L600.32 330.418L597.11 328.538L622.76 313.568Z" fill="#F7EFDA"/>
<path d="M597.11 328.539L600.32 330.419V300.469L597.11 298.589V328.539Z" fill="#929C80"/>
<path d="M622.76 313.568L625.97 315.438V285.488L622.75 283.608L622.76 313.568Z" fill="#929C80"/>
<path d="M699.7 238.688V268.638L674.06 283.608V253.658L699.7 238.688Z" fill="#F5CC7C"/>
<path d="M699.7 268.639L702.92 270.509L677.27 285.489L674.06 283.609L699.7 268.639Z" fill="#F7EFDA"/>
<path d="M674.06 283.608L677.27 285.488V255.538L674.06 253.658V283.608Z" fill="#929C80"/>
<path d="M699.7 268.638L702.92 270.508L702.91 240.558L699.7 238.688V268.638Z" fill="#929C80"/>
<path d="M661.23 380.958V410.908L635.58 425.878V395.928L661.23 380.958Z" fill="#F5CC7C"/>
<path d="M661.23 410.908L664.44 412.778L638.8 427.758L635.58 425.878L661.23 410.908Z" fill="#F7EFDA"/>
<path d="M635.58 425.879L638.8 427.759L638.79 397.809L635.58 395.929V425.879Z" fill="#929C80"/>
<path d="M661.23 410.908L664.44 412.778V382.828L661.23 380.958V410.908Z" fill="#929C80"/>
<path d="M622.75 403.419L622.76 433.369L597.11 448.349V418.399L622.75 403.419Z" fill="#F5CC7C"/>
<path d="M622.76 433.368L625.97 435.248L600.32 450.218L597.11 448.348L622.76 433.368Z" fill="#F7EFDA"/>
<path d="M597.11 448.348L600.32 450.218V420.268L597.11 418.398V448.348Z" fill="#929C80"/>
<path d="M622.76 433.369L625.97 435.249V405.299L622.75 403.419L622.76 433.369Z" fill="#929C80"/>
<path d="M699.7 358.488V388.438L674.06 403.418V373.468L699.7 358.488Z" fill="#F5CC7C"/>
<path d="M699.7 388.438L702.92 390.318L677.27 405.288L674.06 403.418L699.7 388.438Z" fill="#F7EFDA"/>
<path d="M674.06 403.419L677.27 405.289V375.339L674.06 373.469V403.419Z" fill="#929C80"/>
<path d="M699.7 388.438L702.92 390.318L702.91 360.368L699.7 358.488V388.438Z" fill="#929C80"/>
<path d="M699.7 298.589V328.539L674.06 343.519V313.569L699.7 298.589Z" fill="#F5CC7C"/>
<path d="M699.7 328.538L702.92 330.418L677.27 345.388L674.06 343.518L699.7 328.538Z" fill="#F7EFDA"/>
<path d="M674.06 343.518L677.27 345.388V315.438L674.06 313.568V343.518Z" fill="#929C80"/>
<path d="M699.7 328.539L702.92 330.419L702.91 300.469L699.7 298.589V328.539Z" fill="#929C80"/>
<path d="M661.23 321.059V351.009L635.58 365.979V336.029L661.23 321.059Z" fill="#F5CC7C"/>
<path d="M661.23 351.009L664.44 352.879L638.79 367.859L635.58 365.979L661.23 351.009Z" fill="#F7EFDA"/>
<path d="M635.58 365.978L638.79 367.858V337.908L635.58 336.028V365.978Z" fill="#929C80"/>
<path d="M661.23 351.009L664.44 352.879V322.929L661.23 321.059V351.009Z" fill="#929C80"/>
<path d="M661.23 261.148L664.44 263.028L638.79 277.998L635.58 276.128L661.23 261.148Z" fill="#EEE5D2"/>
<path d="M622.75 283.608L625.97 285.488L600.32 300.468L597.11 298.588L622.75 283.608Z" fill="#EEE5D2"/>
<path d="M699.7 238.688L702.91 240.558L677.27 255.538L674.06 253.658L699.7 238.688Z" fill="#EEE5D2"/>
<path d="M661.23 380.958L664.44 382.828L638.79 397.808L635.58 395.928L661.23 380.958Z" fill="#EEE5D2"/>
<path d="M622.75 403.419L625.97 405.299L600.32 420.269L597.11 418.399L622.75 403.419Z" fill="#EEE5D2"/>
<path d="M699.7 358.488L702.91 360.368L677.27 375.338L674.06 373.468L699.7 358.488Z" fill="#EEE5D2"/>
<path d="M699.7 298.589L702.91 300.469L677.27 315.439L674.06 313.569L699.7 298.589Z" fill="#EEE5D2"/>
<path d="M661.23 321.059L664.44 322.929L638.79 337.909L635.58 336.029L661.23 321.059Z" fill="#EEE5D2"/>
<path d="M456.04 336.028V365.988L468.86 373.468V343.518L456.04 336.028Z" fill="#FDE57C"/>
<path d="M456.04 365.978L452.83 367.858V337.908L456.04 336.028V365.978Z" fill="#F5CC7C"/>
<path d="M456.04 246.179V276.129L468.86 283.619V253.669L456.04 246.179Z" fill="#FDE57C"/>
<path d="M456.04 276.129L452.83 277.999V248.049L456.04 246.179V276.129Z" fill="#F5CC7C"/>
<path d="M391.93 223.719L404.75 231.199V246.179L391.93 238.689V223.719Z" stroke="white" stroke-width="0.5" stroke-miterlimit="10"/>
<path d="M404.75 231.199L391.93 238.689" stroke="white" stroke-width="0.5" stroke-miterlimit="10"/>
<path d="M391.93 223.719L404.75 246.179" stroke="white" stroke-width="0.5" stroke-miterlimit="10"/>
<path d="M396.74 235.879L401.54 244.309" stroke="white" stroke-width="0.5" stroke-miterlimit="10"/>
<path d="M393.53 237.749L395.13 240.559" stroke="white" stroke-width="0.5" stroke-miterlimit="10"/>
<path d="M395.13 236.818L398.34 242.438" stroke="white" stroke-width="0.5" stroke-miterlimit="10"/>
<path d="M395.13 225.589L399.94 234.009" stroke="white" stroke-width="0.5" stroke-miterlimit="10"/>
<path d="M398.34 227.459L401.54 233.069" stroke="white" stroke-width="0.5" stroke-miterlimit="10"/>
<path d="M401.54 229.329L403.15 232.139" stroke="white" stroke-width="0.5" stroke-miterlimit="10"/>
<path d="M391.93 238.689L404.75 231.199" stroke="white" stroke-width="0.5" stroke-miterlimit="10"/>
<path d="M397.06 232.699L391.96 235.669" stroke="white" stroke-width="0.5" stroke-miterlimit="10"/>
<path d="M395.77 230.449L391.93 232.699" stroke="white" stroke-width="0.5" stroke-miterlimit="10"/>
<path d="M394.49 228.209L391.93 229.699" stroke="white" stroke-width="0.5" stroke-miterlimit="10"/>
<path d="M393.21 225.959L391.93 226.709" stroke="white" stroke-width="0.5" stroke-miterlimit="10"/>
<path d="M404.75 234.199L399.69 237.149" stroke="white" stroke-width="0.5" stroke-miterlimit="10"/>
<path d="M404.75 237.188L400.9 239.438" stroke="white" stroke-width="0.5" stroke-miterlimit="10"/>
<path d="M404.75 240.188L402.18 241.688" stroke="white" stroke-width="0.5" stroke-miterlimit="10"/>
<path d="M404.75 243.179L403.47 243.929" stroke="white" stroke-width="0.5" stroke-miterlimit="10"/>
<path d="M404.75 231.198L417.57 238.688V253.668L404.75 246.178V231.198Z" stroke="white" stroke-width="0.5" stroke-miterlimit="10"/>
<path d="M417.57 238.688L404.75 246.178" stroke="white" stroke-width="0.5" stroke-miterlimit="10"/>
<path d="M404.75 231.198L417.57 253.668" stroke="white" stroke-width="0.5" stroke-miterlimit="10"/>
<path d="M409.56 243.368L414.37 251.788" stroke="white" stroke-width="0.5" stroke-miterlimit="10"/>
<path d="M406.35 245.238L407.96 248.048" stroke="white" stroke-width="0.5" stroke-miterlimit="10"/>
<path d="M407.96 244.309L411.16 249.919" stroke="white" stroke-width="0.5" stroke-miterlimit="10"/>
<path d="M407.96 233.068L412.76 241.498" stroke="white" stroke-width="0.5" stroke-miterlimit="10"/>
<path d="M411.16 234.948L414.37 240.558" stroke="white" stroke-width="0.5" stroke-miterlimit="10"/>
<path d="M414.37 236.818L415.97 239.628" stroke="white" stroke-width="0.5" stroke-miterlimit="10"/>
<path d="M417.57 238.688L404.75 246.178" stroke="white" stroke-width="0.5" stroke-miterlimit="10"/>
<path d="M409.88 240.188L404.78 243.158" stroke="white" stroke-width="0.5" stroke-miterlimit="10"/>
<path d="M408.6 237.938L404.75 240.188" stroke="white" stroke-width="0.5" stroke-miterlimit="10"/>
<path d="M407.31 235.698L404.75 237.188" stroke="white" stroke-width="0.5" stroke-miterlimit="10"/>
<path d="M406.03 233.448L404.75 234.198" stroke="white" stroke-width="0.5" stroke-miterlimit="10"/>
<path d="M417.57 241.688L412.51 244.638" stroke="white" stroke-width="0.5" stroke-miterlimit="10"/>
<path d="M417.57 244.679L413.73 246.929" stroke="white" stroke-width="0.5" stroke-miterlimit="10"/>
<path d="M417.57 247.679L415.01 249.169" stroke="white" stroke-width="0.5" stroke-miterlimit="10"/>
<path d="M417.57 250.668L416.29 251.418" stroke="white" stroke-width="0.5" stroke-miterlimit="10"/>
<path d="M417.57 238.688L430.4 246.178L430.39 261.148L417.57 253.668V238.688Z" stroke="white" stroke-width="0.5" stroke-miterlimit="10"/>
<path d="M430.4 246.179L417.57 253.669" stroke="white" stroke-width="0.5" stroke-miterlimit="10"/>
<path d="M417.57 238.688L430.39 261.148" stroke="white" stroke-width="0.5" stroke-miterlimit="10"/>
<path d="M422.38 250.858L427.19 259.278" stroke="white" stroke-width="0.5" stroke-miterlimit="10"/>
<path d="M419.17 252.729L420.78 255.539" stroke="white" stroke-width="0.5" stroke-miterlimit="10"/>
<path d="M420.78 251.788L423.98 257.408" stroke="white" stroke-width="0.5" stroke-miterlimit="10"/>
<path d="M420.78 240.559L425.59 248.989" stroke="white" stroke-width="0.5" stroke-miterlimit="10"/>
<path d="M423.98 242.429L427.19 248.049" stroke="white" stroke-width="0.5" stroke-miterlimit="10"/>
<path d="M427.19 244.299L428.79 247.109" stroke="white" stroke-width="0.5" stroke-miterlimit="10"/>
<path d="M430.4 246.179L417.57 253.669" stroke="white" stroke-width="0.5" stroke-miterlimit="10"/>
<path d="M422.7 247.679L417.61 250.649" stroke="white" stroke-width="0.5" stroke-miterlimit="10"/>
<path d="M421.42 245.429L417.57 247.669" stroke="white" stroke-width="0.5" stroke-miterlimit="10"/>
<path d="M420.14 243.179L417.57 244.679" stroke="white" stroke-width="0.5" stroke-miterlimit="10"/>
<path d="M418.85 240.938L417.57 241.678" stroke="white" stroke-width="0.5" stroke-miterlimit="10"/>
<path d="M430.4 249.169L425.34 252.129" stroke="white" stroke-width="0.5" stroke-miterlimit="10"/>
<path d="M430.4 252.169L426.55 254.409" stroke="white" stroke-width="0.5" stroke-miterlimit="10"/>
<path d="M430.4 255.158L427.83 256.658" stroke="white" stroke-width="0.5" stroke-miterlimit="10"/>
<path d="M430.39 258.158L429.11 258.908" stroke="white" stroke-width="0.5" stroke-miterlimit="10"/>
<path d="M430.39 246.179L443.22 253.669V268.639L430.39 261.149V246.179Z" stroke="white" stroke-width="0.5" stroke-miterlimit="10"/>
<path d="M443.22 253.669L430.39 261.149" stroke="white" stroke-width="0.5" stroke-miterlimit="10"/>
<path d="M443.22 268.639L430.39 246.179" stroke="white" stroke-width="0.5" stroke-miterlimit="10"/>
<path d="M435.2 258.349L440.01 266.769" stroke="white" stroke-width="0.5" stroke-miterlimit="10"/>
<path d="M432 260.219L433.6 263.029" stroke="white" stroke-width="0.5" stroke-miterlimit="10"/>
<path d="M433.6 259.278L436.81 264.898" stroke="white" stroke-width="0.5" stroke-miterlimit="10"/>
<path d="M433.6 248.049L438.41 256.469" stroke="white" stroke-width="0.5" stroke-miterlimit="10"/>
<path d="M436.81 249.919L440.01 255.539" stroke="white" stroke-width="0.5" stroke-miterlimit="10"/>
<path d="M440.01 251.789L441.62 254.599" stroke="white" stroke-width="0.5" stroke-miterlimit="10"/>
<path d="M443.22 253.669L430.39 261.149" stroke="white" stroke-width="0.5" stroke-miterlimit="10"/>
<path d="M435.52 255.159L430.43 258.139" stroke="white" stroke-width="0.5" stroke-miterlimit="10"/>
<path d="M434.24 252.919L430.4 255.159" stroke="white" stroke-width="0.5" stroke-miterlimit="10"/>
<path d="M432.96 250.669L430.4 252.169" stroke="white" stroke-width="0.5" stroke-miterlimit="10"/>
<path d="M431.68 248.419L430.4 249.169" stroke="white" stroke-width="0.5" stroke-miterlimit="10"/>
<path d="M443.22 256.659L438.16 259.609" stroke="white" stroke-width="0.5" stroke-miterlimit="10"/>
<path d="M443.22 259.659L439.37 261.899" stroke="white" stroke-width="0.5" stroke-miterlimit="10"/>
<path d="M443.22 262.648L440.65 264.148" stroke="white" stroke-width="0.5" stroke-miterlimit="10"/>
<path d="M443.22 265.648L441.93 266.388" stroke="white" stroke-width="0.5" stroke-miterlimit="10"/>
<path d="M417.57 223.709L443.3 238.749L443.22 216.219H417.57V223.709Z" fill="#F5CC7C"/>
<path d="M721.5 214.749L554.79 312.099V308.319L721.5 210.979V214.749Z" fill="#929C80"/>
<path d="M404.74 291.108L401.53 292.978L427.18 307.958L430.39 306.078L404.74 291.108Z" fill="#F7EFDA"/>
<path d="M404.74 336.028L401.53 337.908L427.18 352.888L430.39 351.008L404.74 336.028Z" fill="#F7EFDA"/>
<path d="M456.04 321.059L452.83 322.929L478.47 337.909L481.68 336.029L456.04 321.059Z" fill="#F7EFDA"/>
<path d="M456.04 365.988L452.83 367.858L465.65 375.348L468.86 373.468L456.04 365.988Z" fill="#F7EFDA"/>
<path d="M456.04 276.129L452.83 277.999L465.65 285.489L468.86 283.619L456.04 276.129Z" fill="#F7EFDA"/>
<path d="M430.39 306.079L427.18 307.959V278.009L430.39 276.129V306.079Z" fill="#F5CC7C"/>
<path d="M430.39 351.009L427.18 352.889V322.929L430.39 321.059V351.009Z" fill="#F5CC7C"/>
<path d="M481.68 336.028L478.47 337.908L478.48 307.958L481.69 306.078L481.68 336.028Z" fill="#F5CC7C"/>
<path d="M468.86 373.469L465.65 375.349V345.399L468.86 343.519V373.469Z" fill="#F5CC7C"/>
<path d="M468.86 283.618L465.65 285.488V255.538L468.86 253.668V283.618Z" fill="#F5CC7C"/>
<path d="M404.75 261.148L401.53 263.028L427.18 278.008L430.39 276.128L404.75 261.148Z" fill="#EEE5D2"/>
<path d="M404.75 306.078L401.53 307.958L427.18 322.928L430.39 321.058L404.75 306.078Z" fill="#EEE5D2"/>
<path d="M456.04 291.108L452.83 292.978L478.48 307.958L481.69 306.078L456.04 291.108Z" fill="#EEE5D2"/>
<path d="M456.04 336.028L452.83 337.908L465.65 345.398L468.86 343.518L456.04 336.028Z" fill="#EEE5D2"/>
<path d="M456.04 246.179L452.83 248.049L465.65 255.539L468.86 253.669L456.04 246.179Z" fill="#EEE5D2"/>
<path d="M366.27 358.499L443.21 403.419V448.349L366.27 403.339V358.499Z" fill="#FFFBF8"/>
<path d="M366.27 358.499L443.21 403.419L456.04 395.929L379.1 351.009L366.27 358.499Z" fill="#F7EFDA"/>
<path d="M366.27 358.499L443.21 403.419V412.789L366.28 367.859L366.27 358.499Z" fill="#EEE5D2"/>
<path d="M418.21 403.419L404.75 395.749L391.92 388.449L391.91 418.339L418.21 433.719V403.419Z" fill="#FDE57C"/>
<path d="M405.15 426.089L404.33 425.609L404.34 395.519L405.16 395.989L405.15 426.089Z" fill="#F7EFDA"/>
<path d="M456.04 395.929L443.21 403.419V448.349L456.04 440.859V395.929Z" fill="#79803C"/>
<path d="M456.04 395.929L443.21 403.419V412.789L456.04 405.299V395.929Z" fill="#F5CC7C"/>
<path d="M456.05 201.248H366.29L366.28 205.008L456.05 205.018H456.06L554.79 312.088V308.318L456.05 201.248Z" fill="#E4DBD4"/>
<path opacity="0.5" d="M481.69 351.008V410.908L545.8 448.348L635.57 395.928V336.028L545.8 388.448L481.69 351.008Z" fill="white"/>
<path d="M481.69 351.008L494.51 343.518V403.418L481.69 410.908V351.008Z" fill="white"/>
<path d="M494.51 349.138L481.69 356.628L545.8 394.068L635.57 341.648L622.75 334.158L545.8 379.088L494.51 349.138Z" fill="white"/>
<path d="M635.57 336.028L622.75 328.538V388.438L635.57 395.928V336.028Z" fill="white"/>
<path d="M494.51 403.418L481.69 410.908L545.8 448.348L635.57 395.928L622.75 388.438L545.8 433.368L494.51 403.418Z" fill="white"/>
<path d="M545.8 442.728L481.69 405.288L494.51 397.798L545.8 427.748V442.728Z" fill="#F7EFDA"/>
<path d="M545.8 427.748L622.75 382.818L635.57 390.308L545.8 442.728V427.748Z" fill="#929C80"/>
<path d="M558.62 380.958L635.57 336.028L622.75 328.538L545.8 373.468" fill="#929C80"/>
<path d="M545.8 373.468L494.51 343.518L481.69 351.008L532.97 380.958L545.8 373.468Z" fill="#929C80"/>
<path d="M558.62 380.958L545.8 373.468L532.97 380.958L545.8 388.448L558.62 380.958Z" fill="#929C80"/>
<path d="M545.8 394.068L635.57 341.648V336.028L545.8 388.448V394.068Z" fill="#FDE57C"/>
<path d="M545.8 388.448L481.69 351.008V356.628L545.8 394.068V388.448Z" fill="#EEE5D2"/>
<path d="M545.8 448.348L635.57 395.928V390.308L545.8 442.728V448.348Z" fill="#FDE57C"/>
<path d="M545.8 444.008V442.728L481.69 405.288V410.908L545.8 448.348V444.008Z" fill="#EEE5D2"/>
<path d="M622.76 103.898L456.05 201.248L554.79 308.318L721.5 210.978L622.76 103.898Z" fill="#79803C"/>
<path d="M533 103.898H622.76L456.05 201.248H366.28L533 103.898Z" fill="#929C80"/>
<path d="M58.5 268.639L58.51 388.449L186.75 463.319V343.519L58.5 268.639Z" fill="white"/>
<path d="M276.5 291.099L276.51 410.909L186.75 463.319V343.519L276.5 291.099Z" fill="#79803C"/>
<path d="M173.92 403.418L180.34 399.678V392.188L173.93 395.938L173.92 403.418Z" fill="#79803C"/>
<path d="M58.5 328.539L64.91 324.799L180.34 392.189L173.93 395.939L58.5 328.539Z" fill="#F5CC7C"/>
<path d="M58.5 328.539V336.089L173.93 403.419V395.939L58.5 328.539Z" fill="#F7EFDA"/>
<path d="M84.1499 358.488L96.9799 365.978V395.928L84.1599 388.448L84.1499 358.488Z" fill="#F7EFDA"/>
<path d="M109.8 373.469L135.45 388.439V418.399L109.81 403.419L109.8 373.469Z" fill="#F7EFDA"/>
<path d="M118.24 398.499L135.45 408.549V418.399L109.81 403.419L118.24 398.499Z" fill="#F5CC7C"/>
<path d="M109.8 373.469L118.24 378.389V398.499L109.81 403.419L109.8 373.469Z" fill="#79803C"/>
<path d="M86.8799 386.849L96.9799 392.749V395.929L84.1599 388.449L86.8799 386.849Z" fill="#F5CC7C"/>
<path d="M84.1499 358.488L86.8799 360.088V386.848L84.1599 388.448L84.1499 358.488Z" fill="#79803C"/>
<path d="M84.1499 298.528L96.9799 306.018V335.968L84.1599 328.478L84.1499 298.528Z" fill="#F7EFDA"/>
<path d="M90.5699 324.799L96.9799 328.539V335.969L84.1599 328.479L90.5699 324.799Z" fill="#F5CC7C"/>
<path d="M84.1499 298.528L90.5699 302.268V324.798L84.1599 328.478L84.1499 298.528Z" fill="#79803C"/>
<path d="M116.21 317.278L129.04 324.768V354.718L116.22 347.228L116.21 317.278Z" fill="#F7EFDA"/>
<path d="M122.63 343.549L129.04 347.249V354.719L116.22 347.229L122.63 343.549Z" fill="#F5CC7C"/>
<path d="M116.21 317.278L122.63 321.028V343.548L116.22 347.228L116.21 317.278Z" fill="#79803C"/>
<path d="M148.27 336.028L161.1 343.518V373.468L148.28 365.978L148.27 336.028Z" fill="#F7EFDA"/>
<path d="M154.69 362.299L161.1 366.039V373.469L148.28 365.979L154.69 362.299Z" fill="#F5CC7C"/>
<path d="M148.27 336.028L154.69 339.778V362.298L148.28 365.978L148.27 336.028Z" fill="#79803C"/>
<path d="M225.21 336.029L238.04 328.549V373.469L225.22 380.959L225.21 336.029Z" fill="#819577"/>
<path d="M225.21 373.469L231.63 369.729L238.04 373.469L225.22 380.958L225.21 373.469Z" fill="#F5CC7C"/>
<path d="M231.63 332.289L238.04 328.549V373.469L231.63 369.729V332.289Z" fill="#FDE57C"/>
<path d="M148.27 395.929L161.1 403.419V433.369L148.28 425.879L148.27 395.929Z" fill="#F7EFDA"/>
<path d="M151 424.289L161.1 430.189V433.369L148.28 425.879L151 424.289Z" fill="#F5CC7C"/>
<path d="M148.27 395.929L151 397.529V424.289L148.28 425.879L148.27 395.929Z" fill="#79803C"/>
<path d="M58.5 268.639L148.26 216.219L276.5 291.099L186.75 343.519L58.5 268.639Z" fill="#EEE5D2"/>
<path d="M217.98 452.108C217.98 454.268 215.49 456.018 212.42 456.018C210.81 456.018 209.36 455.538 208.35 454.768C207.43 454.068 206.86 453.138 206.86 452.108C206.86 449.948 209.35 448.198 212.42 448.198C215.49 448.198 217.98 449.948 217.98 452.108Z" fill="#819577"/>
<path d="M202.41 316.349C204.22 317.429 204.42 320.449 202.84 323.089C202.01 324.469 200.86 325.479 199.7 325.959C198.64 326.399 197.56 326.419 196.7 325.899C194.89 324.819 194.69 321.799 196.27 319.159C197.85 316.529 200.6 315.269 202.41 316.349Z" fill="#819577"/>
<path d="M208.03 452.108V334.548C208.03 332.488 206.94 330.578 205.17 329.538L197.31 324.908C196.05 324.148 196.03 321.848 197.28 319.768C198.53 317.688 200.56 316.608 201.82 317.368L212.21 323.428C215.07 325.098 216.82 328.158 216.82 331.468V452.108C216.82 453.578 214.85 454.778 212.43 454.778C211.16 454.778 210.01 454.448 209.21 453.928C208.47 453.448 208.03 452.808 208.03 452.108Z" fill="#F4DE7F"/>
<path d="M273.4 468.189C274.08 467.669 274.8 467.009 275.37 466.169C275.93 465.359 276.43 464.239 276.43 462.909C276.43 464.239 275.92 465.349 275.37 466.169C274.79 466.999 274.08 467.669 273.4 468.189C271.59 469.549 269.39 470.319 267.44 470.709C265.42 471.109 263.3 471.189 261.27 470.949C259.28 470.719 257.12 470.149 255.21 469.099C254.26 468.579 253.26 467.879 252.43 466.939C251.97 466.419 251.52 465.789 251.2 465.019C250.94 464.399 250.77 463.689 250.77 462.919C250.77 461.999 251.01 461.179 251.35 460.489C251.77 459.629 252.35 458.939 252.92 458.389C253.4 457.929 253.9 457.549 254.42 457.209C255.04 456.799 255.68 456.469 256.32 456.189C258.63 455.179 261.21 454.749 263.59 454.749C265.97 454.749 268.55 455.179 270.86 456.189C272.01 456.689 273.23 457.399 274.26 458.389C274.84 458.939 275.42 459.639 275.85 460.519C276.18 461.209 276.42 462.009 276.42 462.919" fill="#54902E"/>
<path d="M250.77 420.489C250.77 421.259 250.94 421.969 251.2 422.589C251.52 423.359 251.97 423.989 252.43 424.509C253.26 425.449 254.26 426.149 255.21 426.669C257.12 427.719 259.28 428.289 261.27 428.519C263.3 428.759 265.42 428.679 267.44 428.279C269.39 427.889 271.59 427.119 273.4 425.759C274.08 425.239 274.8 424.579 275.37 423.739C275.93 422.929 276.43 421.809 276.43 420.479C276.43 419.569 276.19 418.759 275.86 418.079C275.44 417.199 274.85 416.499 274.27 415.949C273.23 414.959 272.01 414.249 270.87 413.749C268.56 412.739 265.98 412.309 263.6 412.309C261.22 412.309 258.64 412.739 256.33 413.749C255.68 414.029 255.05 414.359 254.43 414.769C253.91 415.109 253.41 415.489 252.93 415.949C252.36 416.499 251.78 417.189 251.36 418.049C251.01 418.749 250.77 419.569 250.77 420.489Z" fill="#54902E"/>
<path d="M250.77 462.909C250.77 463.679 250.94 464.389 251.2 465.009C251.52 465.779 251.97 466.408 252.43 466.928C253.26 467.868 254.26 468.569 255.21 469.089C257.12 470.139 259.28 470.709 261.27 470.939C263.3 471.179 265.42 471.099 267.44 470.699C269.39 470.309 271.59 469.538 273.4 468.178C274.08 467.658 274.8 466.999 275.37 466.159C275.93 465.349 276.43 464.228 276.43 462.898V420.479C276.43 421.809 275.92 422.918 275.37 423.738C274.8 424.568 274.09 425.239 273.4 425.759C271.59 427.119 269.39 427.889 267.44 428.279C265.42 428.679 263.3 428.758 261.27 428.518C259.28 428.288 257.12 427.719 255.21 426.669C254.26 426.149 253.26 425.449 252.43 424.509C251.97 423.989 251.52 423.359 251.2 422.589C250.94 421.969 250.77 421.258 250.77 420.488C250.77 426.918 250.77 456.489 250.77 462.909C250.77 456.479 250.77 426.918 250.77 420.488Z" fill="#F5CC7C"/>
<path d="M259.68 418.298C271.002 418.298 280.18 409.12 280.18 397.798C280.18 386.476 271.002 377.298 259.68 377.298C248.358 377.298 239.18 386.476 239.18 397.798C239.18 409.12 248.358 418.298 259.68 418.298Z" fill="#EEE5D2"/>
<path d="M247.54 444.218C259.585 444.218 269.35 434.453 269.35 422.408C269.35 410.362 259.585 400.598 247.54 400.598C235.495 400.598 225.73 410.362 225.73 422.408C225.73 434.453 235.495 444.218 247.54 444.218Z" fill="#819577"/>
<path d="M278.3 455.689C293.178 455.689 305.24 443.627 305.24 428.749C305.24 413.87 293.178 401.809 278.3 401.809C263.421 401.809 251.36 413.87 251.36 428.749C251.36 443.627 263.421 455.689 278.3 455.689Z" fill="#79803C"/>
<path d="M280.26 422.139C287.346 422.139 293.09 416.394 293.09 409.309C293.09 402.223 287.346 396.479 280.26 396.479C273.174 396.479 267.43 402.223 267.43 409.309C267.43 416.394 273.174 422.139 280.26 422.139Z" fill="white"/>
<path d="M266.1 419.219C265.99 419.219 265.88 419.228 265.78 419.238C265.57 419.258 265.36 419.289 265.15 419.339C264.98 419.379 264.8 419.438 264.64 419.518C264.5 419.588 264.36 419.669 264.22 419.759C264.1 419.849 263.98 419.949 263.88 420.069C263.77 420.189 263.68 420.309 263.59 420.439C263.5 420.579 263.42 420.729 263.35 420.879C263.27 421.049 263.21 421.219 263.16 421.389C263.1 421.579 263.05 421.768 263.02 421.958C262.98 422.168 262.94 422.368 262.92 422.578C262.89 422.798 262.87 423.018 262.86 423.238C262.83 423.698 262.82 424.169 262.82 424.629C262.82 424.699 262.82 424.759 262.82 424.819C262.83 425.229 262.84 425.638 262.85 426.048C262.85 426.068 262.83 426.089 262.82 426.099C262.79 426.119 262.76 426.138 262.73 426.148C262.68 426.168 262.63 426.179 262.57 426.189C262.46 426.209 262.36 426.219 262.25 426.229C262.1 426.239 261.76 426.239 261.61 426.159L261.56 426.108C261.54 425.698 261.53 425.289 261.52 424.889C261.52 424.809 261.52 424.728 261.52 424.648C261.52 424.148 261.53 423.659 261.56 423.159C261.58 422.909 261.6 422.668 261.63 422.428C261.66 422.188 261.7 421.949 261.75 421.719C261.8 421.489 261.86 421.259 261.93 421.029C262 420.809 262.08 420.588 262.18 420.368C262.27 420.158 262.38 419.949 262.51 419.759C262.64 419.559 262.78 419.378 262.94 419.208C263.1 419.028 263.28 418.868 263.47 418.738C263.67 418.588 263.89 418.468 264.11 418.368C264.23 418.318 264.34 418.269 264.46 418.229L266.1 419.219Z" fill="#929C80"/>
<path d="M269.5 412.428C269.26 412.258 269.01 412.118 268.74 411.998C268.69 411.978 268.64 411.958 268.59 411.938C268.55 411.918 268.51 411.908 268.46 411.898C267.88 411.708 267.26 411.658 266.65 411.748C266.59 411.758 266.54 411.768 266.48 411.778C266.47 411.778 266.46 411.778 266.45 411.788C265.85 411.918 265.3 412.178 264.82 412.558C264.75 412.618 264.67 412.678 264.6 412.748C264.56 412.788 264.51 412.828 264.47 412.878C264.46 412.888 264.45 412.898 264.44 412.908C264.16 413.198 263.93 413.528 263.76 413.888C263.57 414.278 263.45 414.688 263.4 415.118C263.36 415.498 263.37 415.878 263.43 416.248C263.5 416.648 263.64 417.038 263.83 417.388C264.05 417.788 264.34 418.158 264.68 418.458C264.99 418.738 265.35 418.958 265.74 419.118C265.79 419.138 265.84 419.158 265.89 419.178C265.93 419.198 265.97 419.208 266.02 419.218C266.6 419.408 267.22 419.458 267.83 419.368C267.89 419.358 267.94 419.348 268 419.338C268.01 419.338 268.02 419.338 268.03 419.328C268.63 419.198 269.18 418.938 269.66 418.558C269.73 418.498 269.81 418.438 269.88 418.368C269.92 418.328 269.97 418.288 270.01 418.238C270.02 418.228 270.03 418.218 270.04 418.208C270.32 417.918 270.55 417.588 270.72 417.228C270.91 416.838 271.03 416.428 271.08 415.998C271.12 415.618 271.11 415.238 271.05 414.868C271 414.608 270.93 414.358 270.84 414.118C270.79 413.988 270.72 413.848 270.66 413.718C270.44 413.318 270.15 412.948 269.81 412.648C269.7 412.578 269.6 412.498 269.5 412.428Z" fill="#FDE57C"/>
<path d="M256.03 425.758C255.82 425.908 255.62 426.058 255.42 426.228C255.14 426.458 254.86 426.698 254.6 426.948C254.43 427.108 254.27 427.268 254.11 427.438C254.08 427.468 254.04 427.508 254.01 427.538C252.95 428.648 252.08 429.918 251.41 431.298C250.7 432.778 250.24 434.358 250.05 435.988C249.88 437.428 249.93 438.878 250.18 440.308C250.46 441.838 250.97 443.318 251.71 444.678C252.54 446.218 253.64 447.608 254.96 448.768C256.16 449.818 257.53 450.678 259 451.288C259.19 451.368 259.38 451.448 259.58 451.518C259.74 451.578 259.9 451.628 260.06 451.688C262.29 452.418 264.65 452.618 266.97 452.248C267.18 452.218 267.39 452.178 267.6 452.138C267.63 452.128 267.67 452.128 267.7 452.118C269.98 451.638 272.11 450.628 273.92 449.168C274.2 448.938 274.48 448.698 274.74 448.448C274.91 448.288 275.07 448.128 275.23 447.958C275.26 447.928 275.3 447.888 275.33 447.858C275.72 447.448 276.09 447.008 276.43 446.558C277.01 445.788 277.51 444.968 277.93 444.108C278.64 442.628 279.1 441.048 279.29 439.418C279.46 437.978 279.41 436.528 279.16 435.098C278.88 433.568 278.37 432.088 277.63 430.728C276.8 429.188 275.7 427.798 274.38 426.638C273.18 425.588 271.81 424.728 270.34 424.118C270.15 424.038 269.96 423.958 269.76 423.888C269.6 423.828 269.44 423.778 269.28 423.718C267.05 422.988 264.69 422.788 262.37 423.158C262.16 423.188 261.95 423.228 261.74 423.268C261.71 423.278 261.67 423.278 261.64 423.288C259.61 423.708 257.7 424.548 256.03 425.758Z" fill="#FDE57C"/>
<path d="M272.32 414.619C272.4 414.649 272.49 414.649 272.58 414.639C272.59 414.639 272.6 414.639 272.6 414.639C272.68 414.619 272.76 414.589 272.82 414.539C272.84 414.529 272.85 414.509 272.87 414.499C272.9 414.469 272.93 414.439 272.96 414.399C273.02 414.309 273.06 414.209 273.07 414.109C273.08 414.049 273.08 413.989 273.06 413.929C273.05 413.859 273.02 413.789 272.98 413.719C272.96 413.689 272.93 413.659 272.91 413.629C272.86 413.579 272.8 413.539 272.73 413.509C272.72 413.509 272.72 413.499 272.71 413.499C272.7 413.499 272.7 413.499 272.69 413.489L267.8 411.879H267.68C267.57 411.899 267.47 411.999 267.41 412.089C267.34 412.189 267.29 412.289 267.26 412.399C267.23 412.519 267.22 412.629 267.24 412.749C267.26 412.859 267.31 412.979 267.43 413.019L270.83 414.139L272.32 414.619Z" fill="#929C80"/>
<path d="M415 30C415 49.4957 392.613 80.0824 386.517 88.0502C385.835 88.9416 385.494 89.3873 385 89.3873C384.506 89.3873 384.165 88.9416 383.483 88.0502C377.387 80.0824 355 49.4957 355 30C355 13.4315 368.431 0 385 0C401.569 0 415 13.4315 415 30Z" fill="#3A544A"/>
<circle cx="385" cy="30" r="30" fill="#3A544A"/>
<circle cx="385" cy="30" r="24.5" fill="#626841" stroke="#FFF6E7"/>
<path d="M396.345 35.3377C396.345 41.6151 391.266 46.7042 385 46.7042C378.734 46.7042 373.655 41.6151 373.655 35.3377C373.655 31.4142 376.829 28.2336 380.746 28.2336C381.232 28.2336 381.706 28.2824 382.164 28.3762V16.8671H383.582V28.8249C386.086 29.9215 387.836 32.4244 387.836 35.3377C387.836 37.6614 386.722 39.7247 385 41.0212H387.836V42.4419H380.746V41.0212C383.879 41.0212 386.419 38.477 386.419 35.3377C386.419 33.2341 385.278 31.3978 383.582 30.4152V38.1795H382.164V29.8334C381.711 29.7168 381.236 29.6542 380.746 29.6542C377.613 29.6542 375.073 32.1985 375.073 35.3377C375.073 40.8309 379.518 45.2836 385.001 45.2836C390.483 45.2836 394.928 40.8309 394.928 35.3377C394.928 29.8446 390.483 25.3918 385.001 25.3918V23.9712C388.133 23.9712 390.674 21.427 390.674 18.2882C390.674 15.1495 388.134 12.6047 385.001 12.6047C381.867 12.6047 379.328 15.149 379.328 18.2877H377.91C377.909 14.3642 381.084 11.1836 385 11.1836C388.916 11.1836 392.091 14.3642 392.091 18.2877C392.091 20.9614 390.616 23.2904 388.438 24.502C393.023 25.9608 396.345 30.2603 396.345 35.3377Z" fill="#FFF6E7"/>
</svg>
