<svg width="250" height="260" viewBox="0 0 250 260" fill="none" xmlns="http://www.w3.org/2000/svg">
<path d="M151.481 78.3122C150.013 79.9042 147.643 81.6377 143.571 82.5475L143.18 82.6354V83.8522L143.193 83.9079C146.964 100.345 152.752 114.524 159.8 126.421L160.181 127.065L160.631 126.465C174.279 108.245 188.42 83.8571 195.301 68.6491L234.304 94.8083C233.734 95.7886 232.925 96.5562 231.685 97.0153C230.264 97.5414 228.23 97.6802 225.262 97.1823L225.063 97.1491L224.897 97.2634C209.115 108.101 186.571 121.705 163.784 132.03L163.249 132.272L163.573 132.762C184.608 164.49 215.333 180.18 244.328 189.547L243.617 191.337C228.919 195.208 218.471 208.398 214.095 225.464C195.739 212.111 181.127 197.075 169.696 176.69C158.137 156.077 149.813 129.972 144.174 94.5671L143.18 94.6462V209.156C143.18 221.121 141.731 230.273 135.357 236.9C129.022 243.486 117.72 247.683 97.7429 249.471C97.2493 243.749 96.6261 238.715 95.5496 234.447C94.4415 230.054 92.847 226.435 90.3923 223.702H90.3914C87.9856 220.898 85.3703 218.459 81.4783 216.406C77.6636 214.394 72.6469 212.767 65.4402 211.507V209.175C65.647 209.187 65.9113 209.203 66.2273 209.221C67.0693 209.27 68.2794 209.339 69.7507 209.422C72.6933 209.588 76.6821 209.809 80.8669 210.03C89.2279 210.472 98.3974 210.916 101.55 210.916C103.632 210.916 105.115 210.391 106.062 209.329C106.999 208.279 107.32 206.804 107.32 205.116V77.4958H50.2546L48.3152 71.4352H104.534L104.682 71.2692L120.171 53.9557L151.481 78.3122ZM101.408 119.982C100.744 121.097 99.9743 121.857 98.8259 122.408C97.5304 123.03 95.7227 123.404 92.9744 123.658L92.6218 123.69L92.5349 124.033C81.8126 166.425 56.9196 205.289 5.94409 226.939L4.65112 224.905C36.1548 199.56 51.647 159.714 57.6541 119.7L57.741 119.126H12.1345L10.1882 113.046H55.6218L55.7693 112.893L72.2478 95.8259L101.408 119.982ZM80.3718 11.3747C106.916 9.0358 125.47 11.6525 137.846 16.6364C150.27 21.6395 156.435 29.0094 158.282 36.1296C160.13 43.2564 157.68 50.2191 152.7 54.5104C147.756 58.7711 140.285 60.4241 131.973 56.9079C124.378 46.0169 104.956 27.0264 79.8337 13.1823L80.3718 11.3747Z" fill="#F5F5ED" stroke="#626841"/>
<path d="M150.181 76.1836C148.436 78.0108 145.573 79.8148 141.155 80.7568L140.76 80.8408V82.0713L140.772 82.126C144.852 100.118 150.708 115.305 158.114 128.432L158.464 129.05L158.928 128.513C174.548 110.464 191.669 85.8701 200.162 69.9131L233.364 92.168C232.685 93.1595 231.816 93.8842 230.563 94.2715C229.125 94.7163 227.128 94.7339 224.248 94.0977L224.019 94.0469L223.833 94.1904C208.344 106.224 184.994 121.854 161.643 133.115L161.141 133.357L161.436 133.83C183.015 168.402 214.685 186.408 245.358 197.219L244.601 199.313C232.494 202.236 223.682 212.848 220.009 227.13C200.485 213.919 184.214 198.804 171.204 178.212C158.061 157.409 148.229 130.992 141.752 95.2568L140.76 95.3457V214.346C140.76 224.588 139.485 232.552 133.879 238.363C128.311 244.136 118.368 247.888 100.772 249.452C99.7537 239.961 98.2085 232.782 93.835 228.114L93.4697 228.456L93.835 228.113L93.8252 228.104L93.3809 227.664C88.7811 223.204 82.3667 219.769 68.7998 217.765V215.136C69.008 215.148 69.2748 215.164 69.5938 215.183C70.4398 215.232 71.6554 215.301 73.1328 215.386C76.088 215.555 80.0921 215.78 84.2871 216.005C92.6681 216.454 101.838 216.905 104.91 216.905C107.244 216.905 108.881 216.451 109.914 215.371C110.943 214.296 111.26 212.716 111.26 210.766V76.126H50.375L48.4043 69.9453H108.447L108.597 69.7754L121.76 54.7344L150.181 76.1836ZM102.213 120.056C101.44 121.081 100.605 121.803 99.4131 122.338C98.0605 122.944 96.2199 123.324 93.4346 123.578L93.0898 123.609L92.998 123.943C81.3686 166.293 56.1306 205.559 6.21191 228.084L4.67285 225.748C38.1163 200.249 56.3654 160.765 64.2305 120.582L64.3477 119.985H12.499L10.5176 113.546H62.4209L62.5684 113.395L76.9863 98.5947L102.213 120.056ZM80.6543 10.6816C105.895 9.70362 123.845 12.7877 136.122 17.7578C148.46 22.7527 155.037 29.6356 157.579 36.1865C160.121 42.736 158.652 48.9908 154.831 52.873C151.04 56.7247 144.864 58.3101 137.774 55.4326C129.304 44.1135 107.83 25.5361 80.084 12.9912L80.6543 10.6816Z" fill="#F5F5ED" stroke="#626841"/>
<path d="M148.855 75.1961C146.997 77.0347 143.376 78.8749 138.572 79.8358L138.17 79.9159V81.1629L138.183 81.2196C142.622 100.198 148.878 116.594 156.715 130.392L157.041 130.967L157.505 130.497C175.064 112.74 194.94 88.0814 204.444 71.6776L233.776 90.327C233.083 91.3262 232.194 92.053 230.915 92.4178C229.443 92.8379 227.395 92.7967 224.446 92.0321L224.196 91.9666L223.997 92.1336C208.665 105.08 183.966 122.189 159.791 134.621L159.313 134.867L159.594 135.327C181.965 171.876 214.946 191.637 247.407 204.129L246.827 206.249C236.53 208.44 229.069 216.858 225.834 228.462C204.907 215.337 186.998 200.033 172.47 179.082C157.808 157.938 146.569 131.021 139.159 94.7459L138.17 94.8456V218.605C138.17 227.409 137.122 234.301 132.223 239.403C127.359 244.47 118.599 247.875 102.918 249.449C101.878 241.892 100.28 235.662 95.7903 231.72L95.7795 231.711L95.3245 231.342C90.6153 227.596 84.0686 224.85 70.4504 222.845V219.925C70.662 219.94 70.933 219.961 71.2571 219.985C72.117 220.049 73.3527 220.14 74.8557 220.25C77.8623 220.469 81.9396 220.762 86.22 221.055C94.769 221.639 104.163 222.225 107.44 222.225C109.967 222.225 111.702 221.698 112.786 220.542C113.865 219.392 114.19 217.734 114.19 215.756V75.6659H49.2278L47.1995 69.1454H111.308L111.457 68.9745L123.119 55.577L148.855 75.1961ZM102.315 120.333C101.527 121.247 100.62 121.918 99.3206 122.402C97.8318 122.957 95.8111 123.277 92.8381 123.406L92.4778 123.422L92.3792 123.768C80.211 166.362 54.3519 206.092 4.52075 229.135L2.70239 226.515C38.5019 201.243 59.2633 161.825 68.3577 121.165L68.4944 120.556H10.6985L8.66919 114.036H66.7639L66.9094 113.893L80.1243 100.98L102.315 120.333ZM79.9456 10.5096C104.502 10.7374 122.229 14.272 134.611 19.2752C147.059 24.3055 154.072 30.806 157.222 36.8944C160.371 42.9812 159.666 48.6428 156.723 52.1551C153.805 55.6364 148.58 57.1334 142.352 54.7342C132.906 43.0235 110.129 25.005 79.135 13.3397L79.9456 10.5096Z" fill="#F5F5ED" stroke="#626841"/>
<path d="M147.69 74.45C145.786 76.3358 141.904 78.427 137.071 79.3954L136.67 79.4764V80.7313L136.683 80.786C141.142 100.455 147.447 117.252 155.595 131.691L155.908 132.248L156.373 131.809C175.103 114.132 196.159 89.4963 207.006 72.7108L232.866 88.9227C232.077 89.9314 231.184 90.6127 229.925 90.953C228.467 91.3469 226.463 91.3011 223.476 90.6571L223.227 90.6034L223.036 90.7733C207.875 104.358 182.759 122.653 158.169 135.452L157.699 135.697L157.971 136.152C180.749 174.342 214.227 195.323 247.43 208.961L247.055 210.846C238.259 212.541 231.805 219.492 228.598 229.359C207.12 216.368 188.369 200.984 173.025 179.897C157.553 158.633 145.527 131.546 137.679 95.2206L136.69 95.326V221.736C136.69 229.57 135.767 235.737 131.328 240.331C126.921 244.892 118.948 248.001 104.597 249.459C103.543 242.874 101.929 237.882 97.6846 234.437L97.6738 234.429L97.6621 234.42C92.8943 230.985 85.8282 228.371 72.46 226.54V223.585C72.6733 223.601 72.9467 223.621 73.2744 223.645C74.1395 223.71 75.3827 223.802 76.8936 223.913C79.9153 224.134 84.0098 224.429 88.3008 224.724C96.8709 225.314 106.258 225.906 109.42 225.906C111.962 225.906 113.711 225.375 114.803 224.173C115.884 222.982 116.21 221.247 116.21 219.126V75.1961H49.2578L47.209 68.6053H113.301L113.45 68.4295L123.626 56.4862L147.69 74.45ZM102.695 120.513C101.014 122.445 98.5482 123.373 93.1475 123.616L92.7939 123.632L92.6914 123.971C79.9153 166.159 54.163 206.226 4.79395 229.995L2.68945 226.84C39.5108 201.883 61.9709 162.903 71.9062 121.873L72.0557 121.256H10.7607L8.9375 114.666H70.5703L70.7158 114.527L82.6943 103.062L102.695 120.513ZM79.9287 10.5233C127.683 12.5439 149.493 25.8341 156.574 37.3563C160.123 43.1303 159.955 48.4016 157.652 51.6737C155.379 54.9038 150.896 56.3638 145.353 54.3329C135.824 42.2511 111.586 24.5879 79.1064 13.6004L79.9287 10.5233Z" fill="#F5F5ED" stroke="#626841"/>
<path d="M146.668 73.5575C145.764 74.4295 144.342 75.3602 142.562 76.2069C140.523 77.1766 138.057 78.018 135.462 78.535L135.06 78.6151V79.8709L135.072 79.9247C139.562 99.9866 146.157 117.418 154.088 132.478L154.378 133.029L154.853 132.628C175.266 115.353 198.019 90.8107 209.472 73.9139L231.761 87.8465C230.978 88.7378 230.092 89.356 228.873 89.6405C227.442 89.9743 225.493 89.8637 222.632 89.0829L222.36 89.0096L222.156 89.203C207.167 103.404 181.39 122.87 156.926 136.55L156.482 136.797L156.737 137.236C179.64 176.726 213.549 198.895 247.723 213.414L247.132 215.584C239.853 216.755 234.41 222.193 231.706 230.301C209.44 217.349 189.791 202.054 173.605 181.014C157.29 159.807 144.474 132.741 136.058 96.3133L135.07 96.4256V224.725C135.07 231.559 134.275 237.045 130.304 241.176C126.364 245.273 119.201 248.135 106.22 249.469C105.384 244.095 103.504 239.628 99.4873 236.95L99.4795 236.944L99.4707 236.939L99.0098 236.664C94.2213 233.867 86.9212 231.605 74.1602 230.072V226.835C74.3751 226.851 74.6513 226.872 74.9824 226.896C75.8522 226.961 77.102 227.054 78.6211 227.165C81.6593 227.387 85.7763 227.683 90.0908 227.979C98.7085 228.571 108.148 229.166 111.33 229.166C113.995 229.166 115.823 228.707 116.96 227.534C118.095 226.363 118.42 224.604 118.42 222.346V74.8358H49.2734L47.4307 67.9354H115.514L115.664 67.7557L124.58 57.0594L146.668 73.5575ZM102.974 120.68C102.072 121.601 101.096 122.231 99.7461 122.672C98.2003 123.176 96.1497 123.437 93.1289 123.566L92.7783 123.581L92.6729 123.916C79.2992 166.385 53.3968 206.197 4.80078 230.382L2.69531 227.218C41.0305 202.364 64.9381 163.397 75.7236 122.352L75.8887 121.725H10.7979L8.73828 115.086H74.6494L74.7949 114.948L85.2617 104.994L102.974 120.68ZM79.8623 10.5409C126.138 14.2747 148.094 27.1158 156.004 37.9334C159.977 43.3674 160.356 48.1968 158.7 51.1473C157.081 54.0323 153.364 55.3675 148.503 53.5789C138.146 41.4239 113.236 23.8983 79.2295 14.1297L79.8623 10.5409Z" fill="#F5F5ED" stroke="#626841"/>
<path d="M145.069 72.6776C144.152 73.6591 142.651 74.6622 140.745 75.5565C138.598 76.5637 135.988 77.4116 133.246 77.9344L132.84 78.0116V79.2791L132.852 79.3319C137.371 100.064 144.016 117.869 152.259 133.292L152.543 133.822L153.013 133.446C174.104 116.579 198.068 91.8577 210.384 74.5877L230.404 86.7538C229.51 87.6637 228.563 88.292 227.33 88.5809C225.889 88.9182 223.994 88.8093 221.247 88.0252L220.965 87.9442L220.757 88.1522C206.2 102.709 179.987 123.101 154.837 137.129L154.396 137.375L154.646 137.813C177.975 178.636 212.391 201.746 247.067 217.152L246.678 219.303C240.661 219.758 235.759 224.41 233.312 230.973C210.617 217.932 190.232 202.464 173.307 181.176C156.253 159.727 142.692 132.348 133.826 95.5487L132.84 95.6659V227.206C132.84 233.021 132.173 237.882 128.571 241.643C124.998 245.375 118.444 248.12 106.437 249.466C105.58 244.83 103.684 241.126 99.9404 238.724L99.918 238.711L99.8936 238.698C95.6224 236.563 87.7237 234.46 74.9805 232.875V229.615C75.1923 229.631 75.4636 229.652 75.7881 229.677C76.6492 229.742 77.8862 229.836 79.3906 229.948C82.3995 230.172 86.4777 230.471 90.7549 230.769C99.2976 231.366 108.668 231.966 111.87 231.966C114.553 231.966 116.448 231.501 117.655 230.333C118.869 229.159 119.27 227.392 119.27 225.105V74.2157H48.3076L46.2285 67.5252H116.066L116.217 67.3426L124.403 57.37L145.069 72.6776ZM102.387 120.885C100.462 122.837 97.9591 123.553 92.4668 123.806L92.124 123.822L92.0156 124.147C78.0261 166.106 52.2262 206.179 3.58887 231.041L1.66797 227.633C40.8088 202.883 65.933 163.909 77.5908 122.852L77.7715 122.216H9.8584L7.77832 115.525H76.7793L76.9238 115.389L86.4023 106.421L102.387 120.885ZM78.8252 10.5497C124.1 15.3539 146.233 27.8142 154.799 38.1375C159.108 43.3312 159.911 47.8774 158.724 50.6434C158.134 52.0156 157.043 52.9928 155.564 53.4442C154.102 53.8905 152.231 53.8281 150.066 53.0653C139.367 40.8318 113.771 23.7149 77.9775 14.1581L78.8252 10.5497Z" fill="#F5F5ED" stroke="#626841"/>
<path d="M212.47 74.8057L231.14 85.7357C229.27 88.4057 226.87 89.2057 221.01 87.3357C206.34 102.536 179.68 123.606 154.61 138.266C178.08 179.866 213.01 203.866 248.48 219.866L247.95 222.536C242.62 222.806 238.35 226.536 236.22 232.406C189.29 206.536 150.89 170.276 132.49 96.1357V229.206C132.49 239.606 130.09 247.606 107.42 250.006C106.62 246.276 105.02 243.076 101.29 240.936C96.76 238.806 88.76 237.206 75.69 235.866V231.336C75.69 231.336 106.89 234.006 113.29 234.006C119.16 234.006 120.76 232.136 120.76 227.336V74.5357H48.2L45.8 66.5357H117.8L125 57.2057L145.27 72.1357C143.4 74.5357 138.34 76.9357 132.47 78.0057V78.8057C137 99.8757 143.67 118.006 152.2 133.736C174.33 116.936 199.67 92.1357 212.47 74.8057ZM88.47 106.806L103.67 120.936C101.54 123.066 98.87 123.866 92.74 124.136C78.61 166.806 52.47 207.066 3.67 232.136L1 227.866C41.27 203.336 67.67 164.136 79.67 123.066H9.8L7.4 115.336H79.13L88.46 106.806H88.47ZM77.8 14.5357L78.87 10.0057C167.94 21.7357 168.74 58.8057 152.2 53.2057C141.53 40.6757 114.6 23.6057 77.8 14.5357Z" fill="#626841"/>
</svg>
