<svg width="250" height="260" viewBox="0 0 250 260" fill="none" xmlns="http://www.w3.org/2000/svg">
<path d="M74.39 108.86C74.81 108.65 75.77 108.44 77.25 108.22C78.74 108.01 80.43 107.9 82.34 107.9C89.98 107.9 93.8 111.29 93.8 118.08C93.8 119.78 93.48 121.9 92.85 124.44C78.21 178.09 49.77 216.26 7.55 238.94L5 234.81C22.19 221.88 36.3 205.65 47.33 186.15C58.58 166.43 66.75 145.01 71.84 121.9H14.87C13.81 121.9 12.85 121.58 12.01 120.95C11.16 120.1 10.74 119.04 10.74 117.77C10.74 116.71 11.16 115.86 12.01 115.23C12.86 114.38 13.81 113.96 14.87 113.96H73.44L74.39 108.87V108.86ZM155.88 137.17C174.55 172.16 204.26 198.88 245 217.32C241.18 217.11 237.89 217.74 235.13 219.23C232.58 220.71 229.82 222.83 226.85 225.59C224.52 227.5 222.61 228.88 221.12 229.72C219.85 230.57 218.36 230.99 216.66 230.99C214.11 230.99 211.14 229.61 207.75 226.86C189.71 212.23 174.65 194.52 162.55 173.74C150.67 152.75 141.54 126.03 135.18 93.59V235.13C135.18 251.03 130.51 258.99 121.17 258.99C118.84 258.99 117.14 258.46 116.08 257.4C115.02 256.34 113.96 254.64 112.9 252.31C111.41 249.34 109.82 246.9 108.13 244.99C106.64 243.08 103.89 241.39 99.85 239.9C95.82 238.63 90.19 237.99 82.98 237.99V232.9H108.13C110.68 232.9 112.37 232.48 113.22 231.63C114.07 230.99 114.49 229.62 114.49 227.5V72.6H51.78C50.72 72.6 49.76 72.18 48.92 71.33C48.08 70.48 47.65 69.53 47.65 68.47C47.65 67.41 48.07 66.46 48.92 65.61C49.77 64.76 50.72 64.34 51.78 64.34H114.49V59.89C115.34 59.47 117.04 58.94 119.58 58.3C122.13 57.45 124.57 57.03 126.9 57.03C132.42 57.03 135.18 59.47 135.18 64.35V78.03C139.42 98.39 145.47 116.52 153.32 132.42C162.44 122.88 171.57 112.17 180.69 100.3C190.03 88.21 197.24 77.61 202.33 68.49C203.39 68.7 205.51 69.23 208.7 70.08C212.1 70.72 215.28 71.99 218.25 73.9C221.22 75.6 222.71 77.82 222.71 80.58C222.71 83.34 221.22 86.2 218.25 89.17C210.4 97.02 200.74 105.39 189.28 114.3C178.03 123.21 166.89 130.84 155.86 137.2L155.88 137.17ZM148.87 55.11C143.78 47.48 134.65 38.89 121.5 29.35C108.34 19.81 94.13 12.17 78.85 6.45L79.8 2C106.96 3.7 125.74 7.94 136.14 14.72C146.54 21.29 151.74 29.46 151.74 39.21C151.74 44.09 150.79 49.39 148.88 55.11H148.87Z" fill="#626841"/>
</svg>
