<svg width="84" height="22" viewBox="0 0 84 22" fill="none" xmlns="http://www.w3.org/2000/svg">
<path fill-rule="evenodd" clip-rule="evenodd" d="M60.0962 11.9724C62.4796 9.23223 65.9918 7.5 69.9087 7.5C77.0884 7.5 82.9089 13.3203 82.9089 20.5V21H1V20.5C1 13.3203 6.82054 7.5 14.0002 7.5C17.9701 7.5 21.4872 9.23595 23.8718 12.0408C27.0585 5.22334 33.9776 0.5 42 0.5C50.0064 0.5 56.901 5.17692 60.0962 11.9724Z" fill="black"/>
<path d="M14 20.4999L9.2502 12.2727M14 20.4999L5.77296 15.7499M14 20.4999L22.2272 15.7499M14 20.4999L18.75 12.2727M14 20.4999L14 10.5M14 10.5C17.7015 10.5 20.9332 12.511 22.6622 15.5M14 10.5C8.4772 10.5 4.00012 14.9772 4.00012 20.5H22" stroke="#BCCABF" stroke-miterlimit="10"/>
<path d="M69.909 20.4999L74.6587 12.2727M69.909 20.4999L78.136 15.7499M69.909 20.4999L61.6817 15.7499M69.909 20.4999L65.159 12.2727M69.909 20.4999L69.9089 10.5M69.9089 10.5C66.2075 10.5 62.9758 12.511 61.2467 15.5M69.9089 10.5C75.4317 10.5 79.9088 14.9772 79.9088 20.5H62" stroke="#BCCABF" stroke-miterlimit="10"/>
<path d="M23.9089 12.0843C21.5244 9.27946 17.9701 7.5 14.0002 7.5C6.82054 7.5 1 13.3203 1 20.5V21" stroke="#BCCABF"/>
<path d="M60 12.0843C62.3845 9.27946 65.9388 7.5 69.9087 7.5C77.0884 7.5 82.9089 13.3203 82.9089 20.5V21" stroke="#BCCABF"/>
<path d="M62 20.5C62 9.4543 53.0457 0.5 42 0.5C30.9543 0.5 22 9.4543 22 20.5" stroke="#BCCABF" stroke-miterlimit="10"/>
<path d="M22 20.5H32C32 14.9772 36.4772 10.5 42 10.5C47.5228 10.5 52 14.9772 52 20.5H62" stroke="#BCCABF" stroke-miterlimit="10"/>
<path d="M49 20.5C49 16.634 45.866 13.5 42 13.5C38.134 13.5 35 16.634 35 20.5H49Z" stroke="#BCCABF" stroke-miterlimit="10"/>
<path d="M51.1783 18.0392L61.8031 15.1905M50.2287 15.7491L59.7531 10.25M48.7176 13.7825L56.4936 6.00652M44.4609 11.3218L47.3096 0.697021M46.751 12.2715L52.2501 2.74702M32.8217 18.0392L22.1969 15.1905M33.7713 15.7491L24.2469 10.25M35.2824 13.7825L27.5064 6.00652M39.5391 11.3218L36.6904 0.697021M37.249 12.2715L31.7499 2.74702M42 11V0.5" stroke="#BCCABF" stroke-miterlimit="10"/>
</svg>
