<svg width="34" height="34" viewBox="0 0 34 34" fill="none" xmlns="http://www.w3.org/2000/svg">
<path d="M20.5 0.5C9.45431 0.5 0.5 9.45431 0.5 20.5" stroke="#7F8F3C" stroke-miterlimit="10"/>
<path d="M20.5 10.5C14.9772 10.5 10.5 14.9772 10.5 20.5" stroke="#7F8F3C" stroke-miterlimit="10"/>
<path d="M20.5 13.5C16.634 13.5 13.5 16.634 13.5 20.5" stroke="#7F8F3C" stroke-miterlimit="10"/>
<path d="M11.3217 18.0392L0.696899 15.1905M12.2713 15.7491L2.7469 10.25M13.7824 13.7825L6.0064 6.00652M18.0391 11.3218L15.1904 0.697021M15.749 12.2715L10.2499 2.74702" stroke="#7F8F3C" stroke-miterlimit="10"/>
<path d="M20.5001 0.5L30.5 0.50001C30.5 6.02286 26.0228 10.5 20.5 10.5L20.5001 0.5ZM20.5001 0.5L25.2501 8.72724M20.5001 0.5L28.7273 5.25" stroke="#7F8F3C" stroke-miterlimit="10"/>
<path d="M0.500068 20.4998L10.5 20.4998C10.5 26.0227 6.02285 30.4998 0.5 30.4998L0.500068 20.4998ZM0.500068 20.4998L5.25007 28.727M0.500068 20.4998L8.72731 25.2498" stroke="#7F8F3C" stroke-miterlimit="10"/>
<path d="M13.5 20.5C13.5 27.6797 7.6797 33.5 0.5 33.5H0" stroke="#7F8F3C"/>
<path d="M20.5 13.5C27.6797 13.5 33.5 7.6797 33.5 0.5V0" stroke="#7F8F3C"/>
</svg>
