<svg width="54" height="54" viewBox="0 0 54 54" fill="none" xmlns="http://www.w3.org/2000/svg">
<path d="M40.5 0.5C29.4543 0.5 20.5 9.45431 20.5 20.5" stroke="#BCCABF" stroke-miterlimit="10"/>
<path d="M40.5 10.5C34.9772 10.5 30.5 14.9772 30.5 20.5" stroke="#BCCABF" stroke-miterlimit="10"/>
<path d="M40.5 13.5C36.634 13.5 33.5 16.634 33.5 20.5" stroke="#BCCABF" stroke-miterlimit="10"/>
<path d="M31.3217 18.0392L20.6969 15.1905M32.2713 15.7491L22.7469 10.25M33.7824 13.7825L26.0064 6.00652M38.0391 11.3218L35.1904 0.697021M35.749 12.2715L30.2499 2.74702" stroke="#BCCABF" stroke-miterlimit="10"/>
<path d="M40.5001 0.5L50.5 0.50001C50.5 6.02286 46.0228 10.5 40.5 10.5L40.5001 0.5ZM40.5001 0.5L45.2501 8.72724M40.5001 0.5L48.7273 5.25" stroke="#BCCABF" stroke-miterlimit="10"/>
<path d="M20.5001 20.4998L30.5 20.4998C30.5 26.0227 26.0228 30.4998 20.5 30.4998L20.5001 20.4998ZM20.5001 20.4998L25.2501 28.727M20.5001 20.4998L28.7273 25.2498" stroke="#BCCABF" stroke-miterlimit="10"/>
<path d="M13.5 40.5C13.5 47.6797 7.6797 53.5 0.5 53.5H0" stroke="#BCCABF"/>
<path d="M33.5 20.5C33.5 27.6797 27.6797 33.5 20.5 33.5" stroke="#BCCABF"/>
<path d="M40.5 13.5C47.6797 13.5 53.5 7.6797 53.5 0.5V0" stroke="#BCCABF"/>
<path d="M0.500068 40.4998L10.5 40.4998C10.5 46.0227 6.02285 50.4998 0.5 50.4998L0.500068 40.4998ZM0.500068 40.4998L5.25007 48.727M0.500068 40.4998L8.72731 45.2498" stroke="#BCCABF" stroke-miterlimit="10"/>
<path d="M20.5 20.5C9.45431 20.5 0.5 29.4543 0.5 40.5" stroke="#BCCABF" stroke-miterlimit="10"/>
<path d="M20.5 30.5C14.9772 30.5 10.5 34.9772 10.5 40.5" stroke="#BCCABF" stroke-miterlimit="10"/>
<path d="M20.5 33.5C16.634 33.5 13.5 36.634 13.5 40.5" stroke="#BCCABF" stroke-miterlimit="10"/>
<path d="M11.3217 38.0392L0.696899 35.1905M12.2713 35.7491L2.7469 30.25M13.7824 33.7825L6.0064 26.0065M18.0391 31.3218L15.1904 20.697M15.749 32.2715L10.2499 22.747" stroke="#BCCABF" stroke-miterlimit="10"/>
</svg>
