<svg width="255" height="255" viewBox="0 0 255 255" fill="none" xmlns="http://www.w3.org/2000/svg">
<g clip-path="url(#clip0_362_24)">
<path d="M253.06 1H32.4902V221.57H253.06V1Z" fill="#F6F0EC" stroke="#111010" stroke-width="2" stroke-linecap="round" stroke-linejoin="round"/>
<path d="M238.16 15.8906H17.5898V236.461H238.16V15.8906Z" fill="#F6F0EC" stroke="#111010" stroke-width="2" stroke-linecap="round" stroke-linejoin="round"/>
<path d="M221.57 32.4883H1V253.058H221.57V32.4883Z" fill="#F6F0EC" stroke="#111010" stroke-width="2" stroke-linecap="round" stroke-linejoin="round"/>
<path d="M77.64 184.92C78.4933 186.84 79.1333 188.28 79.56 189.24C79.9867 190.094 80.6267 191.427 81.48 193.24C82.3333 195.16 82.9733 196.6 83.4 197.56C83.8267 198.414 84.4667 199.747 85.32 201.56L82.76 203.8C79.0267 201.347 76.2 199.48 74.28 198.2C72.4667 196.92 70.6 195.64 68.68 194.36C66.76 193.08 63.9333 191.214 60.2 188.76V185.56C61.8 185.24 62.9733 184.974 63.72 184.76C64.4667 184.547 65.64 184.28 67.24 183.96V101.72C66.3867 100.44 65.6933 99.4805 65.16 98.8405C64.7333 98.2005 64.0933 97.2405 63.24 95.9605C62.3867 94.7871 61.5333 93.6671 60.68 92.6005C59.9333 91.4271 59.1333 90.2538 58.28 89.0805L60.68 86.5205C63.88 88.3338 66.28 89.7205 67.88 90.6805C69.48 91.6405 71.08 92.6005 72.68 93.5605C74.28 94.4138 76.68 95.8005 79.88 97.7205L80.36 99.9605C80.04 100.707 79.8267 101.294 79.72 101.72C79.6133 102.147 79.4 102.734 79.08 103.48C78.76 104.334 78.4933 104.974 78.28 105.4C78.1733 105.827 77.96 106.467 77.64 107.32V184.92ZM65.48 92.9205C63.1333 93.3471 60.84 93.7738 58.6 94.2005C56.36 94.6271 54.1733 95.1071 52.04 95.6405C50.44 96.0671 48.8933 96.4938 47.4 96.9205C45.9067 97.2405 44.4667 97.6138 43.08 98.0405C39.0267 95.1605 35.9867 93.0805 33.96 91.8005C31.9333 90.4138 28.9467 88.3338 25 85.5605C25.2133 85.1338 25.3733 84.8138 25.48 84.6005C25.6933 84.3871 25.8533 84.2271 25.96 84.1205C26.0667 83.9071 26.2267 83.5871 26.44 83.1605C30.0667 84.1205 32.7867 84.8138 34.6 85.2405C36.4133 85.6671 39.08 86.3605 42.6 87.3205C46.2267 87.1071 48.8933 86.9471 50.6 86.8405C52.4133 86.6271 55.08 86.4138 58.6 86.2005L62.44 89.8805L65.48 92.9205ZM58.6 86.2005C65.96 85.6671 73.32 85.1338 80.68 84.6005L93.96 83.6405C94.6 83.1071 95.1867 82.6271 95.72 82.2005C96.4667 81.5605 97 81.1338 97.32 80.9205C97.64 80.6005 98.1733 80.1205 98.92 79.4805H102.28C104.84 82.1471 106.707 84.1738 107.88 85.5605C109.16 86.8405 110.44 88.1738 111.72 89.5605C113 90.9471 114.867 92.9738 117.32 95.6405C116.893 96.1738 116.52 96.6005 116.2 96.9205C115.987 97.1338 115.667 97.5071 115.24 98.0405C114.173 97.5071 113.053 96.9738 111.88 96.4405C106.653 93.9871 101.427 91.5871 96.2 89.2405C93.4267 89.2405 89.16 89.6138 83.4 90.3605C77.64 91.0005 71.6667 91.8538 65.48 92.9205L58.6 86.2005Z" fill="#111010"/>
<path d="M142.296 106.2L134.296 95.6405L136.216 93.0805L158.296 104.12L158.936 107L152.696 111.8V181.08C154.19 183.534 156.43 185.614 159.416 187.32C162.51 188.92 165.763 189.827 169.176 190.04L185.176 170.2L187.416 171.8C183.363 178.094 180.59 183.214 179.096 187.16C177.71 191.107 176.803 195.48 176.376 200.28L174.616 201.56C166.19 201.56 159.043 198.787 153.176 193.24C147.31 187.587 143.736 180.174 142.456 171L142.296 106.2ZM168.536 123.16C164.696 123.8 160.856 124.76 157.016 126.04C153.176 127.32 147.47 129.294 139.896 131.96L136.056 133.4L120.376 120.12L121.816 118.2L134.456 123.8L167.256 118.04L172.216 113.88H175.576L188.056 127.64L185.976 130.04L168.536 123.16Z" fill="#111010"/>
</g>
<defs>
<clipPath id="clip0_362_24">
<rect width="254.06" height="254.06" fill="white"/>
</clipPath>
</defs>
</svg>
