<svg width="313" height="254" viewBox="0 0 313 254" fill="none" xmlns="http://www.w3.org/2000/svg">
<path d="M64.8904 215.59L1 252.581V37.9911L64.8904 1V215.59Z" fill="#F6F0EC" stroke="#111010" stroke-width="2" stroke-linecap="round" stroke-linejoin="round"/>
<path d="M277 215.947L233 253V38.0527L277 1V215.947Z" fill="#F6F0EC" stroke="#111010" stroke-width="2" stroke-linecap="round" stroke-linejoin="round"/>
<path d="M125.89 215.59L1 252.59V38L125.89 1V215.59Z" fill="#F6F0EC" stroke="#111010" stroke-width="2" stroke-linecap="round" stroke-linejoin="round"/>
<path d="M277 215.937L261 253V38.0625L277 1V215.937Z" fill="#F6F0EC" stroke="#111010" stroke-width="2" stroke-linecap="round" stroke-linejoin="round"/>
<path d="M125.89 215.94L232.89 253V38.0603L125.89 1V215.94Z" fill="#F6F0EC" stroke="#111010" stroke-width="2" stroke-linecap="round" stroke-linejoin="round"/>
<path d="M22.4398 189.8C22.2265 189.587 22.0132 189.374 21.7998 189.16C21.6932 189.054 21.5865 188.947 21.4798 188.84C21.3732 188.734 21.1598 188.52 20.8398 188.2C24.8932 183.187 29.9598 173.96 36.0398 160.52C42.2265 146.974 48.0398 132.36 53.4798 116.68C59.0265 100.894 62.9732 87.2938 65.3198 75.8805C64.3598 74.9205 63.6665 74.2271 63.2398 73.8005C62.8132 73.3738 62.1198 72.7338 61.1598 71.8805C60.4132 71.1338 59.8798 70.6005 59.5598 70.2805C59.2398 69.9605 58.7065 69.4271 57.9598 68.6805L60.0398 65.4805C64.3065 67.0805 67.5065 68.3071 69.6398 69.1605C71.7732 69.9071 73.9065 70.7071 76.0398 71.5605C78.1732 72.4138 81.3732 73.6405 85.6398 75.2405L84.8399 78.7605C83.9865 79.0805 83.3465 79.3471 82.9198 79.5605C82.5998 79.6671 82.0132 79.8805 81.1598 80.2005C80.4132 80.5205 79.8265 80.7338 79.3998 80.8405C78.9732 80.9471 78.3865 81.1605 77.6398 81.4805C70.0665 107.187 61.2132 129.96 51.0798 149.8C40.9465 169.64 31.3998 182.974 22.4398 189.8ZM63.7198 152.52C62.2265 151.347 61.1065 150.494 60.3598 149.96C59.6132 149.427 58.4932 148.574 56.9998 147.4C55.3998 146.12 54.1732 145.214 53.3198 144.68C52.5732 144.04 51.3998 143.08 49.7998 141.8L50.2798 139.72C52.5198 140.36 54.1732 140.84 55.2398 141.16C56.3065 141.48 57.9065 141.96 60.0398 142.6L83.3998 139.88C84.2532 139.134 84.8932 138.547 85.3198 138.12C85.7465 137.694 86.3865 137.107 87.2398 136.36C88.9465 136.894 90.1732 137.32 90.9198 137.64C91.7732 137.96 92.9998 138.387 94.5998 138.92L99.5599 146.28L100.68 152.52C97.5865 150.707 95.2932 149.374 93.7999 148.52C92.4132 147.667 90.2265 146.387 87.2398 144.68L63.7198 152.52ZM94.5998 187.24C95.2398 186.387 95.4532 184.894 95.2398 182.76C95.0265 180.52 94.2798 177.854 92.9998 174.76C91.8265 171.667 90.2798 168.414 88.3598 165C88.6799 164.68 88.9465 164.467 89.1599 164.36C89.3732 164.254 89.5332 164.147 89.6398 164.04C89.8532 163.827 90.1199 163.614 90.4398 163.4C91.0799 164.04 91.5598 164.574 91.8798 165C92.1998 165.32 92.6798 165.8 93.3198 166.44C94.7065 167.934 95.7198 169.054 96.3598 169.8C97.1065 170.44 98.1732 171.454 99.5599 172.84C97.9599 160.68 94.9732 146.12 90.5998 129.16C85.9065 111.027 81.5865 97.2671 77.6398 87.8805C76.5732 87.2405 75.7732 86.7605 75.2398 86.4405C74.8132 86.1205 74.0665 85.6405 72.9998 85.0005L75.3998 81.8005L82.1198 84.8405C85.4265 89.8538 88.5732 95.7205 91.5598 102.44C94.5465 109.16 97.4265 116.574 100.2 124.68C102.44 131.294 104.573 138.174 106.6 145.32C108.733 152.467 110.707 159.72 112.52 167.08L115.08 171.88C114.44 173.907 113.053 176.147 110.92 178.6C108.787 181.054 106.387 183.294 103.72 185.32C101.053 187.454 98.6532 188.947 96.5198 189.8L94.5998 187.24Z" fill="#111010"/>
<path d="M200.34 172.84C200.767 173.267 201.087 173.64 201.3 173.96C201.513 174.174 201.833 174.494 202.26 174.92C203.433 173.747 204.607 172.627 205.78 171.56C207.167 170.174 208.18 169.16 208.82 168.52C209.567 167.88 210.633 166.867 212.02 165.48L213.78 166.76C212.713 169.107 211.913 170.867 211.38 172.04C210.953 173.214 210.26 174.92 209.3 177.16C208.873 178.12 208.447 179.134 208.02 180.2C208.34 180.84 208.607 181.32 208.82 181.64C209.033 181.854 209.3 182.28 209.62 182.92C210.153 183.88 210.527 184.574 210.74 185C211.06 185.427 211.487 186.12 212.02 187.08L209.94 189.8C208.233 189.16 205.673 187.987 202.26 186.28C198.847 184.68 195.54 182.974 192.34 181.16C189.247 179.24 187.06 177.694 185.78 176.52L186.58 173.64C186.9 173.534 187.167 173.427 187.38 173.32C187.913 173 188.34 172.787 188.66 172.68C188.98 172.574 189.407 172.36 189.94 172.04V125.48C189.94 123.347 189.247 120.947 187.86 118.28C186.58 115.614 184.98 113.267 183.06 111.24C181.14 109.107 179.433 107.827 177.94 107.4C175.7 107.4 172.82 108.414 169.3 110.44C165.887 112.36 162.473 114.974 159.06 118.28C155.647 121.48 152.927 124.68 150.9 127.88L147.54 128.68L136.82 120.2L136.18 117.8L139.06 116.04L145.14 104.04L147.7 104.84L146.42 115.24H148.18C151.167 111.72 155.327 108.734 160.66 106.28C165.993 103.72 170.793 102.44 175.06 102.44C179.007 102.44 182.953 103.774 186.9 106.44C190.953 109.107 194.42 112.467 197.3 116.52C200.287 120.574 202.313 124.574 203.38 128.52V131.56L200.34 134.92V172.84ZM171.86 187.56C167.807 187.56 163.007 185.96 157.46 182.76C152.02 179.56 147.22 175.72 143.06 171.24C139.007 166.654 136.873 162.494 136.66 158.76C138.793 154.814 142.847 150.707 148.82 146.44C154.793 142.067 161.3 138.494 168.34 135.72C175.38 132.84 181.513 131.4 186.74 131.4L195.22 133.16L192.18 141.96L185.94 136.52C181.353 137.16 176.18 139.134 170.42 142.44C164.767 145.64 159.7 149.427 155.22 153.8C150.74 158.174 147.913 162.28 146.74 166.12C148.447 168.467 151.327 170.654 155.38 172.68C159.433 174.6 163.433 175.774 167.38 176.2L192.82 154.28L195.06 158.76L184.5 169.64C179.273 175.08 175.647 180.627 173.62 186.28L171.86 187.56Z" fill="#111010"/>
<path d="M312 215.94L261 253V38.0603L312 1V215.94Z" fill="#F6F0EC" stroke="#111010" stroke-width="2" stroke-linecap="round" stroke-linejoin="round"/>
</svg>
