<svg width="256" height="256" viewBox="0 0 256 256" fill="none" xmlns="http://www.w3.org/2000/svg">
<path d="M197.108 239.325C193.665 240.236 190.83 240.033 188.603 238.717C186.375 237.401 185.261 235.68 185.261 233.553C185.363 231.528 186.679 230.01 189.21 228.997C190.02 228.693 190.83 228.339 191.64 227.934C192.551 227.63 193.412 227.276 194.222 226.871C197.867 225.15 200.955 223.226 203.486 221.1C206.018 219.075 207.739 216.746 208.65 214.114C209.561 211.481 209.663 209.456 208.954 208.039C208.346 206.52 207.233 205.507 205.613 205.001C203.993 204.495 202.018 204.242 199.689 204.242C195.133 204.242 191.539 204.799 188.906 205.912C186.274 207.026 184.249 208.595 182.831 210.62C181.11 213.152 177.82 215.379 172.96 217.303C168.1 219.125 162.632 220.391 156.557 221.1C150.583 221.809 139.092 222.315 122.082 222.619C105.173 223.024 92.3651 223.024 83.6576 222.619C77.4814 222.315 70.2421 221.505 61.9396 220.189C53.7384 218.872 46.7016 217.354 40.8291 215.632C34.9566 213.911 32.0204 212.291 32.0204 210.772C32.0204 209.861 32.6279 208.95 33.8429 208.039C35.1591 207.026 36.9816 205.912 39.3103 204.697C41.6391 203.381 43.3603 202.318 44.4741 201.508C45.6891 200.597 46.2966 199.736 46.2966 198.926C46.2966 197.711 45.8916 196.243 45.0816 194.522C44.2716 192.801 43.0566 190.32 41.4366 187.08C40.6266 185.662 39.9178 184.346 39.3103 183.131C38.7028 181.916 38.3991 181.056 38.3991 180.549C38.3991 179.942 39.2597 179.638 40.981 179.638C42.7022 179.537 45.2334 179.588 48.5747 179.79C50.2959 179.891 51.9159 179.992 53.4346 180.094C55.0546 180.094 56.1178 179.993 56.624 179.79C56.7253 179.79 57.8896 179.284 60.1171 178.271C62.9521 176.955 65.3821 176.044 67.4071 175.538C69.4321 175.031 71.4064 175.133 73.3302 175.841C74.0389 176.145 75.2539 176.702 76.9751 177.512C77.7851 177.917 78.5951 178.271 79.4051 178.575C80.2151 178.879 81.1264 179.031 82.1389 179.031C82.9489 179.031 83.5564 177.866 83.9614 175.538C84.3663 173.209 84.822 169.412 85.3282 164.147C85.7332 158.376 86.2395 153.82 86.847 150.478C87.4545 147.238 88.5682 144.656 90.1882 142.733C91.8082 140.809 93.5294 139.695 95.3519 139.391C97.1744 139.088 98.5413 139.594 99.4525 140.91C99.9588 141.619 100.161 142.48 100.06 143.492C99.9588 144.403 99.7056 145.77 99.3006 147.593C98.6931 150.225 98.2375 152.756 97.9338 155.186C97.63 157.515 97.63 160.198 97.9338 163.236C98.035 164.653 98.2882 166.121 98.6931 167.64C99.1994 170.07 99.8575 171.791 100.668 172.804C101.478 173.715 102.439 174.12 103.553 174.019C104.768 173.918 106.337 173.462 108.261 172.652C109.172 172.247 110.185 171.893 111.299 171.589C112.514 171.285 113.678 171.032 114.792 170.829C117.424 170.323 119.5 169.716 121.019 169.007C122.639 168.197 123.955 166.729 124.967 164.603C126.891 160.654 128.663 157.515 130.283 155.186C132.004 152.756 133.928 151.187 136.054 150.478C138.889 149.567 140.509 148.808 140.914 148.2C141.319 147.491 140.762 146.378 139.244 144.859C137.826 143.441 136.611 141.619 135.599 139.391C134.586 137.063 133.877 134.683 133.472 132.253C133.169 129.823 133.219 127.697 133.624 125.875C134.029 124.052 134.789 122.635 135.902 121.622C137.117 120.508 138.383 120.103 139.699 120.407C141.015 120.61 142.18 121.622 143.192 123.445L143.952 124.963C146.382 129.418 148.761 133.266 151.09 136.506C153.52 139.746 156.456 142.53 159.898 144.859C164.455 147.795 167.695 150.58 169.618 153.212C171.542 155.845 172.504 158.629 172.504 161.565V182.22L172.656 182.068C174.681 179.739 176.858 177.411 179.186 175.082C181.616 172.753 183.388 171.386 184.502 170.981C185.818 170.475 187.135 170.273 188.451 170.374C189.868 170.374 190.982 170.829 191.792 171.741C192.602 172.551 192.804 173.918 192.4 175.841C191.893 178.17 190.881 180.954 189.362 184.194C187.945 187.333 186.679 189.915 185.565 191.94L185.261 192.547C187.286 191.535 191.134 191.029 196.804 191.029C202.575 191.029 207.233 191.535 210.776 192.547C214.725 193.762 218.016 195.99 220.648 199.23C223.382 202.369 224.293 206.773 223.382 212.443C222.673 216.695 220.901 220.695 218.066 224.441C215.333 228.187 212.042 231.377 208.194 234.009C204.448 236.642 200.753 238.413 197.108 239.325Z" fill="#181D14"/>
<path d="M70.2013 98.5563C66.6493 101.34 63.4493 102.268 60.6013 101.34C57.7853 100.412 55.7533 98.2043 54.5053 94.7163C53.2893 91.2283 53.1453 87.3883 54.0733 83.1963C54.2333 82.3643 54.6333 81.6923 55.2733 81.1803C55.9453 80.6363 56.7133 80.3643 57.5773 80.3643C58.7293 80.3643 59.6573 80.8123 60.3613 81.7083C61.0653 82.5723 61.3053 83.5803 61.0813 84.7323C60.6013 87.0043 60.4253 89.0043 60.5533 90.7323C60.7133 92.4283 61.2253 93.5163 62.0893 93.9963C62.9853 94.4763 64.2173 94.1083 65.7853 92.8923C67.8013 91.3243 69.3693 89.5163 70.4893 87.4683C71.6093 85.4203 72.1213 83.5643 72.0253 81.9003C71.9293 80.2363 71.2413 79.1963 69.9613 78.7803C68.6173 78.3323 67.1293 78.3643 65.4973 78.8763C63.8653 79.3563 62.2973 80.3163 60.7933 81.7563C59.2893 83.1963 58.0413 85.0203 57.0493 87.2283C56.7933 87.8683 56.3613 88.3803 55.7533 88.7643C55.1773 89.1483 54.5213 89.3403 53.7853 89.3403C52.7933 89.3403 51.9453 88.9883 51.2413 88.2843C50.5373 87.5803 50.1853 86.7323 50.1853 85.7403C50.1853 85.1963 50.2973 84.7003 50.5213 84.2523C52.0253 80.9243 54.0573 78.2043 56.6173 76.0923C59.2093 73.9483 61.9933 72.5563 64.9693 71.9163C67.9453 71.2763 70.7773 71.4203 73.4653 72.3483C76.2813 73.3403 78.0573 75.4203 78.7933 78.5883C79.5293 81.7563 79.1293 85.2283 77.5933 89.0043C76.0573 92.7483 73.5933 95.9323 70.2013 98.5563ZM57.6733 115.02C57.0013 115.02 56.3773 114.844 55.8013 114.492C55.2573 114.172 54.8253 113.724 54.5053 113.148C52.6493 109.788 51.7213 105.692 51.7213 100.86C51.7533 96.0283 52.2013 91.5803 53.0653 87.5163C53.9293 83.4523 54.6973 80.4283 55.3693 78.4443C55.6253 77.7083 56.0573 77.1163 56.6653 76.6683C57.2733 76.2203 57.9773 75.9963 58.7773 75.9963C59.7693 75.9963 60.6173 76.3483 61.3213 77.0523C62.0253 77.7563 62.3773 78.6043 62.3773 79.5963C62.3773 80.0763 62.3133 80.4603 62.1853 80.7483C61.6413 82.3803 60.9853 84.9883 60.2173 88.5723C59.4813 92.1563 59.0493 95.9643 58.9213 99.9963C58.8253 104.028 59.4653 107.26 60.8413 109.692C61.1293 110.172 61.2733 110.748 61.2733 111.42C61.2733 112.412 60.9213 113.26 60.2173 113.964C59.5133 114.668 58.6653 115.02 57.6733 115.02Z" fill="#181D14"/>
<path d="M116.777 119.724C115.529 119.724 113.929 119.212 111.977 118.188C110.025 117.164 108.057 115.868 106.073 114.3C104.089 112.764 102.441 111.26 101.129 109.788C99.9127 108.444 98.4887 106.492 96.8567 103.932C95.2567 101.34 93.8807 98.8443 92.7287 96.4443C91.5767 94.0123 91.0007 92.2843 91.0007 91.2603C91.0007 90.2683 91.3527 89.4203 92.0567 88.7163C92.7607 88.0123 93.6087 87.6603 94.6007 87.6603C95.4327 87.6603 96.1687 87.9163 96.8087 88.4283C97.4487 88.9083 97.8647 89.5323 98.0567 90.3003C98.5367 92.0923 99.6727 94.5723 101.465 97.7403C103.289 100.908 104.969 103.324 106.505 104.988C107.945 106.62 109.721 108.188 111.833 109.692C113.977 111.228 115.913 112.204 117.641 112.62C118.441 112.812 119.097 113.228 119.609 113.868C120.121 114.54 120.377 115.292 120.377 116.124C120.377 117.116 120.025 117.964 119.321 118.668C118.617 119.372 117.769 119.724 116.777 119.724ZM88.6007 110.988C87.8327 110.988 87.1447 110.764 86.5367 110.316C85.9287 109.9 85.4967 109.356 85.2407 108.684C84.0887 105.74 83.3847 102.332 83.1287 98.4603C82.8727 94.5883 82.9527 90.8603 83.3687 87.2763C83.8167 83.6923 84.4407 80.8603 85.2407 78.7803C85.4967 78.1083 85.9287 77.5643 86.5367 77.1483C87.1447 76.7003 87.8327 76.4763 88.6007 76.4763C89.5927 76.4763 90.4407 76.8283 91.1447 77.5323C91.8487 78.2363 92.2007 79.0843 92.2007 80.0763C92.2007 80.5243 92.1207 80.9563 91.9607 81.3722C91.3207 82.9723 90.8247 85.2763 90.4727 88.2843C90.1527 91.2923 90.0887 94.4283 90.2807 97.6923C90.4727 100.956 91.0327 103.756 91.9607 106.092C92.1207 106.508 92.2007 106.94 92.2007 107.388C92.2007 108.38 91.8487 109.228 91.1447 109.932C90.4407 110.636 89.5927 110.988 88.6007 110.988ZM85.8167 93.6603C85.2407 93.3403 84.7607 92.8923 84.3767 92.3163C84.0247 91.7403 83.8487 91.1163 83.8487 90.4443C83.8487 89.4523 84.2007 88.6043 84.9047 87.9003C85.6087 87.1963 86.4567 86.8443 87.4487 86.8443C88.0247 86.8443 88.5687 86.9723 89.0807 87.2283C90.3927 87.9003 91.9927 88.0603 93.8807 87.7083C95.7687 87.3243 97.5607 86.6363 99.2567 85.6443C100.313 85.0043 101.177 84.2203 101.849 83.2923C102.521 82.3323 102.793 81.4523 102.665 80.6523C102.537 79.8203 101.929 79.2603 100.841 78.9723C99.9767 78.7483 98.9367 78.8443 97.7207 79.2603C96.5047 79.6443 95.2727 80.3003 94.0247 81.2283C92.8087 82.1563 91.7847 83.2603 90.9527 84.5403C90.6007 85.0523 90.1527 85.4523 89.6087 85.7403C89.0967 86.0283 88.5367 86.1723 87.9287 86.1723C86.9367 86.1723 86.0887 85.8203 85.3847 85.1163C84.6807 84.4123 84.3287 83.5643 84.3287 82.5723C84.3287 81.9323 84.5207 81.2763 84.9047 80.6043C86.2807 78.5243 87.9927 76.7323 90.0407 75.2283C92.0887 73.7243 94.2327 72.6843 96.4727 72.1083C98.7127 71.5323 100.809 71.5163 102.761 72.0602C106.025 72.9563 108.137 74.6683 109.097 77.1963C110.089 79.7243 109.977 82.4123 108.761 85.2603C107.545 88.0763 105.593 90.2843 102.905 91.8843C100.377 93.3563 97.5607 94.3643 94.4567 94.9083C91.3527 95.4203 88.4727 95.0043 85.8167 93.6603Z" fill="#181D14"/>
<path d="M127.981 111.036C125.197 111.036 122.637 110.076 120.301 108.156C117.997 106.236 116.493 103.324 115.789 99.4203C115.117 95.4843 115.789 90.7003 117.805 85.0683C119.853 79.3403 123.037 75.5323 127.357 73.6443C131.709 71.7243 135.517 71.7243 138.781 73.6443C142.077 75.5643 143.213 78.5243 142.189 82.5243C141.037 86.8443 138.637 90.4123 134.989 93.2283C131.341 96.0123 127.437 97.6283 123.277 98.0763C119.117 98.5243 115.837 97.6763 113.437 95.5323C112.637 94.7963 112.237 93.9003 112.237 92.8443C112.237 91.8523 112.589 91.0043 113.293 90.3003C113.997 89.5963 114.845 89.2443 115.837 89.2443C116.765 89.2443 117.565 89.5483 118.237 90.1563C119.229 91.0523 120.973 91.2763 123.469 90.8283C125.965 90.3483 128.349 89.2603 130.621 87.5643C132.925 85.8363 134.413 83.7083 135.085 81.1803C135.373 80.0603 134.829 79.4203 133.453 79.2603C132.109 79.0683 130.557 79.6603 128.797 81.0363C127.069 82.3803 125.677 84.5243 124.621 87.4683C123.277 91.2443 122.669 94.3643 122.797 96.8283C122.925 99.2603 123.501 101.036 124.525 102.156C125.549 103.276 126.701 103.836 127.981 103.836C129.133 103.836 130.429 103.372 131.869 102.444C133.309 101.484 134.493 100.412 135.421 99.2283C136.381 98.0443 136.749 97.1803 136.525 96.6363C136.365 96.2203 136.285 95.7723 136.285 95.2923C136.285 94.3003 136.637 93.4523 137.341 92.7483C138.045 92.0443 138.893 91.6923 139.885 91.6923C140.621 91.6923 141.293 91.9003 141.901 92.3163C142.509 92.7323 142.957 93.2763 143.245 93.9483C144.205 96.3163 143.949 98.8443 142.477 101.532C141.005 104.188 138.877 106.428 136.093 108.252C133.309 110.108 130.605 111.036 127.981 111.036Z" fill="#181D14"/>
<path d="M153.891 109.452C151.107 108.108 149.283 106.524 148.419 104.7C147.555 102.844 147.123 100.812 147.123 98.6043C147.123 97.6123 147.475 96.7643 148.179 96.0603C148.883 95.3563 149.731 95.0043 150.723 95.0043C151.715 95.0043 152.563 95.3563 153.267 96.0603C153.971 96.7643 154.323 97.6123 154.323 98.6043C154.323 99.4363 154.371 100.092 154.467 100.572C154.595 101.052 154.851 101.484 155.235 101.868C155.619 102.22 156.227 102.604 157.059 103.02C157.987 103.468 158.963 103.708 159.987 103.74C161.011 103.772 161.955 103.66 162.819 103.404C163.683 103.116 164.307 102.732 164.691 102.252C165.523 101.26 165.891 100.364 165.795 99.5643C165.731 98.7643 165.203 97.9483 164.211 97.1163C163.123 96.1883 162.019 95.3563 160.899 94.6203C159.811 93.8843 158.291 92.9243 156.339 91.7403C154.195 90.4603 152.515 89.0203 151.299 87.4203C150.115 85.8203 149.523 83.7083 149.523 81.0843C149.523 79.5483 149.955 78.0603 150.819 76.6203C151.683 75.1483 152.851 73.9643 154.323 73.0683C155.795 72.1403 157.427 71.6603 159.219 71.6282C160.883 71.6282 162.563 72.0443 164.259 72.8763C165.987 73.7083 167.459 74.8443 168.675 76.2843C169.923 77.7243 170.707 79.3243 171.027 81.0843C171.219 82.1723 170.963 83.1643 170.259 84.0603C169.555 84.9243 168.627 85.3563 167.475 85.3563C166.611 85.3563 165.843 85.0843 165.171 84.5403C164.499 83.9963 164.083 83.2923 163.923 82.4283C163.827 81.8843 163.523 81.3243 163.011 80.7483C162.499 80.1723 161.891 79.7083 161.187 79.3563C160.515 79.0043 159.891 78.8283 159.315 78.8283C158.867 78.8283 158.435 78.9563 158.019 79.2123C157.635 79.4683 157.315 79.7883 157.059 80.1723C156.835 80.5243 156.723 80.8283 156.723 81.0843C156.723 82.1403 156.931 82.9563 157.347 83.5323C157.795 84.1083 158.707 84.7963 160.083 85.5963C161.939 86.6843 163.539 87.6923 164.883 88.6203C166.227 89.5483 167.539 90.5563 168.819 91.6443C170.451 92.9883 171.619 94.5083 172.323 96.2043C173.027 97.9003 173.219 99.6763 172.899 101.532C172.579 103.356 171.699 105.132 170.259 106.86C169.139 108.204 167.651 109.228 165.795 109.932C163.971 110.668 162.003 111.004 159.891 110.94C157.779 110.876 155.779 110.38 153.891 109.452Z" fill="#181D14"/>
<path d="M183.14 110.604C181.092 109.58 179.508 108.236 178.388 106.572C177.3 104.908 176.66 103.228 176.468 101.532C176.276 99.8363 176.468 98.4603 177.044 97.4043C177.332 96.8283 177.764 96.3643 178.34 96.0123C178.916 95.6603 179.54 95.4843 180.212 95.4843C181.204 95.4843 182.052 95.8363 182.756 96.5403C183.46 97.2443 183.812 98.0923 183.812 99.0843C183.812 99.7243 183.668 100.284 183.38 100.764C183.284 100.924 183.3 101.196 183.428 101.58C183.588 101.932 183.892 102.348 184.34 102.828C184.82 103.308 185.476 103.756 186.308 104.172C187.204 104.588 188.148 104.812 189.14 104.844C190.132 104.844 191.044 104.7 191.876 104.412C192.708 104.092 193.332 103.676 193.748 103.164C194.644 102.108 195.092 101.004 195.092 99.8523C195.092 98.6683 194.692 97.6603 193.892 96.8283C193.38 96.2523 192.756 95.7403 192.02 95.2923C191.316 94.8123 190.34 94.2363 189.092 93.5643C188.58 93.3083 188.052 93.0363 187.508 92.7483C186.996 92.4283 186.452 92.0923 185.876 91.7403C184.116 90.6843 182.676 89.6283 181.556 88.5723C180.436 87.5163 179.62 86.2843 179.108 84.8763C178.628 83.4683 178.66 81.8523 179.204 80.0283C180.036 77.5003 181.524 75.5003 183.668 74.0283C185.844 72.5243 188.212 72.0603 190.772 72.6363C193.364 73.1803 195.7 75.0043 197.78 78.1083C198.196 78.7163 198.404 79.4043 198.404 80.1723C198.404 81.1643 198.052 82.0123 197.348 82.7163C196.644 83.4203 195.796 83.7723 194.804 83.7723C194.196 83.7723 193.636 83.6443 193.124 83.3883C192.612 83.1003 192.18 82.7163 191.828 82.2363C190.996 81.1163 190.212 80.3643 189.476 79.9803C188.74 79.5963 188.1 79.5323 187.556 79.7883C187.044 80.0443 186.676 80.5083 186.452 81.1803C186.228 81.8523 186.18 82.4123 186.308 82.8603C186.436 83.2763 186.724 83.6763 187.172 84.0603C187.652 84.4123 188.468 84.9243 189.62 85.5963C190.132 85.9163 190.932 86.3643 192.02 86.9403C193.908 87.9963 195.348 88.8603 196.34 89.5323C197.332 90.1723 198.276 90.9723 199.172 91.9323C200.484 93.3403 201.38 94.9563 201.86 96.7803C202.372 98.6043 202.404 100.476 201.956 102.396C201.54 104.316 200.66 106.108 199.316 107.772C198.228 109.084 196.772 110.124 194.948 110.892C193.156 111.66 191.204 112.028 189.092 111.996C187.012 111.996 185.028 111.532 183.14 110.604Z" fill="#181D14"/>
<path d="M210.338 99.9003C209.25 99.9003 208.354 99.5003 207.65 98.7003C206.946 97.9003 206.642 96.9883 206.738 95.9643L206.786 95.4363C207.202 92.6843 207.666 90.2843 208.178 88.2363C209.618 82.7323 210.978 78.8443 212.258 76.5723C213.538 74.3003 214.818 72.8123 216.098 72.1083C216.61 71.7883 217.202 71.6282 217.874 71.6282C218.866 71.6282 219.714 71.9802 220.418 72.6843C221.122 73.3883 221.474 74.2363 221.474 75.2283C221.474 75.9003 221.298 76.5243 220.946 77.1003C220.626 77.6443 220.194 78.0603 219.65 78.3483C219.554 78.4123 219.298 78.8123 218.882 79.5483C218.466 80.2843 217.922 81.5163 217.25 83.2443C216.61 84.9723 215.922 87.2443 215.186 90.0603C214.546 92.6523 214.146 94.6843 213.986 96.1563L213.938 96.6363C213.842 97.5643 213.442 98.3483 212.738 98.9883C212.066 99.5963 211.266 99.9003 210.338 99.9003ZM209.234 110.988C208.242 110.988 207.394 110.636 206.69 109.932C205.986 109.228 205.634 108.38 205.634 107.388C205.634 106.844 205.746 106.348 205.97 105.9L206.402 104.94C206.658 104.3 207.09 103.788 207.698 103.404C208.306 103.02 208.962 102.828 209.666 102.828C210.658 102.828 211.506 103.18 212.21 103.884C212.914 104.588 213.266 105.436 213.266 106.428C213.266 106.972 213.154 107.468 212.93 107.916L212.498 108.876C212.242 109.516 211.81 110.028 211.202 110.412C210.594 110.796 209.938 110.988 209.234 110.988Z" fill="#181D14"/>
<path d="M26.5454 136.789C-5.25449 113.389 -2.85454 61.7888 52.3454 41.9888C106.395 22.6015 223.036 22.9846 246.145 75.5886C268.79 127.134 200.591 148.502 140.545 151.189C73.5046 154.188 7.34542 141.589 18.4432 85.596" stroke="#181D14" stroke-width="7" stroke-linecap="round"/>
</svg>
